<?xml version="1.0" encoding="utf-8"?>
<!-- Generator: Adobe Illustrator 25.2.1, SVG Export Plug-In . SVG Version: 6.00 Build 0)  -->
<svg version="1.1" id="Capa_1" xmlns="http://www.w3.org/2000/svg" xmlns:xlink="http://www.w3.org/1999/xlink" width='32' height='32' x="0px" y="0px"
	 viewBox="0 0 297 297" style="enable-background:new 0 0 297 297;" xml:space="preserve">
<style type="text/css">
	.st0{fill:#FF0000;}
</style>
<path class="st0" d="M250.7,297c5.3-17.2,22.8-77.3,22.8-99.5v-76.9c0-10.4-8.3-18.8-18.6-18.8c-10.2,0-18.6,8.4-18.6,18.8v32.8
	c0,1.9-1.6,3.5-3.5,3.5c-1.9,0-3.5-1.6-3.5-3.5v-51.2c0-10.4-8.3-18.8-18.6-18.8c-10.2,0-18.6,8.4-18.6,18.8v36.5
	c0,1.9-1.6,3.5-3.5,3.5c-1.9,0-3.5-1.6-3.5-3.5V87.5c0-10.4-8.3-18.8-18.6-18.8c-10.2,0-18.6,8.4-18.6,18.8V124
	c0,1.9-1.6,3.5-3.5,3.5c-1.9,0-3.5-1.6-3.5-3.5V18.8c0-10.4-8.3-18.8-18.6-18.8c-10.2,0-18.6,8.4-18.6,18.8v162.9
	c0,1.4-0.9,2.8-2.3,3.3c-1.3,0.5-2.9,0.1-3.9-1l-43.5-49.7l-0.5-0.5c-3.5-3.3-8.1-5.1-12.9-5.2H41c-5,0.1-9.6,2-13,5.4
	c-4.3,4.3-7.6,12.5,0.7,27.2c12.7,22.3,26.5,43.4,38.8,62.1c9.1,13.9,17.8,27.1,24.2,38.2c4.1,7.1,12.7,25.7,17.4,35.6L250.7,297
	L250.7,297z"/>
</svg>
