<svg id="Layer_0_Image" data-name="Layer 0 Image" xmlns="http://www.w3.org/2000/svg" viewBox="0 0 798.19 642.15"><defs><style>.cls-1{fill:#fefefe;}.cls-2{fill:#ff5941;}.cls-3{fill:#0a8964;}.cls-4{fill:#0d2c4f;}.cls-5{fill:#0feaac;}.cls-6{fill:#07b58a;}.cls-7{fill:#a83;}.cls-8{fill:#3a350f;}.cls-9{fill:#07172c;}.cls-10{fill:#6570ae;}.cls-11{fill:#e03422;}.cls-12{fill:#f9f9dc;}.cls-13{fill:#7d8efd;}.cls-14{fill:#c4c4cc;}.cls-15{fill:#a5b2fe;}.cls-16{fill:#b1bcfd;}.cls-17{fill:#98999b;}.cls-18{fill:#0c2d51;}.cls-19{fill:#076045;}.cls-20{fill:#eff0fc;}.cls-21{fill:#f9f5f4;}.cls-22{fill:#f3cf07;}.cls-23{fill:#bc9e08;}.cls-24{fill:#95473a;}.cls-25{fill:#99564a;}.cls-26{fill:#92463a;}.cls-27{fill:#8c4035;}.cls-28{fill:#c74828;}.cls-29{fill:#e8e8ec;}.cls-30{fill:#a6825c;}.cls-31{fill:#a7825c;}.cls-32{fill:#4351b3;}.cls-33{fill:#fcfcfd;}.cls-34{fill:#f9b467;}.cls-35{fill:#fbfbfc;}.cls-36{fill:#fcfcfc;}.cls-37{fill:#fbfbfb;}.cls-38{fill:#9496a3;}</style></defs><path class="cls-1" d="M399.09,642.06q-197.25,0-394.5.09c-3.75,0-4.59-.84-4.59-4.59q.15-316.48,0-633C0,.84.84,0,4.59,0q394.5.15,789,0c3.75,0,4.59.84,4.59,4.59q-.16,316.49,0,633c0,3.75-.84,4.59-4.59,4.59Q596.35,642,399.09,642.06Z" transform="translate(0 0)"/><path class="cls-2" d="M492.45,223.77c12,.34,24.07.7,36.11,1,15.4.38,30.66,2.52,46,3.41,12.95.75,25.88,3.12,38.63,5.72,22.37,4.56,44.69,9.56,64.06,22.75,15.09,10.26,26.52,23.7,33.36,40.53a89.55,89.55,0,0,1,6.58,40.29,4.34,4.34,0,0,1-3.54,1.49c-10.72.05-21.44.69-32.15-.34a4.06,4.06,0,0,1-1.5-.91c-1.66-2.41-1.17-5.09-.83-7.7.45-3.49-1.21-4.72-4.46-5-12.15-1.08-12.13-1.13-13.72,10.77-.4,3-.1,6-.54,8.92-.3,2,.08,4.95-3.5,4.67a5.22,5.22,0,0,1-.56-3.32c.3-7,.29-7-6.92-7-5.74-.07-11.48.32-17.21-.26-2.72-.61-4-2.77-5.14-5-1.35-2.65-2.85-5.23-4-8-2.41-6-7.79-7.7-13.2-9.38-1.72-.53-2.75.5-3.64,1.85-.56.86-1.11,2.34-2.57.88-.94-5.51-.13-7.52,4.58-10.08,3.67-2,5.35-4.77,5.7-9.06.68-8.35,2.64-16.56,3.56-24.9,3.49-3.71,8.67-3.83,12.48-6.28a76.71,76.71,0,0,1-19.69-11.74c-3-2.4-6.09-4.62-10.11-5-9.5-1-14.8,2.51-19,12.48-.76,1.81-1,3.89-2.76,5.19-4.53,3.33-4.57,7.8-2.91,12.52,2,5.8,4.75,11.32,7.14,17,.9,2.14,3,4.19,1.23,6.87a3.79,3.79,0,0,1-1.62.36c-7.86-2.78-14.7-7.75-22.68-10.28a164,164,0,0,0-23.78-5.27c-23.82-3.85-47.75-2.32-71.65-2.79-6.34-.12-12.57,1.48-18.92,1-2.15-.15-4.34.12-6.41-.69-3.93-3.13-3.59-7.95-4.65-12.15-3.72-14.73-7.48-29.45-11-44.23-.34-6.86,1.3-8.79,8.09-8.84q25.68-.19,51.37,0C486,223.25,489.33,221.69,492.45,223.77Z" transform="translate(0 0)"/><path class="cls-3" d="M604.46,319.53c1.28-4.26,2.82-5.36,8-3.86,8.59,2.46,11.66,8.75,14.84,15.57a20,20,0,0,0,4.22,6.52c3.63,3.74,5.78,8.42,8.23,12.9a3.11,3.11,0,0,1-.35,3.32c-5.45,3.91-11.68,5.73-18.2,6.75-6.85,0-13.23,2.34-19.72,4q-13.14,3.44-26.31,6.82c-4.2,1.08-3.52-1.92-3.31-4.38-.89,5.26-.69,5.41,4.43,4.12,13.42-3.38,26.83-6.8,40.16-10.52,2.74-.76,4.46.43,5.6,2.82a47.8,47.8,0,0,1,3.37,8.3c.74,2.45,2.09,3.23,4.47,2.06,1.49-.73,3.09-1.58,4.72-1.49,6,.35,9.18-2.94,11.3-7.94,1.48-.78,2.21.28,3,1.22,3.27,5.22,5.52,5.26,9.49.14,2-1.39,4.17-2.4,6.73-1.93a42.25,42.25,0,0,1,10,12.66c1.52,2.54.84,4.22-1.48,6.14-6.93,5.72-13.59,11.76-20.36,17.68-3.7,3.66-7.93,2.1-12.55,1a173,173,0,0,0,7.43,24.41c1.08,2.88,2.65,6-1,8.44a7.24,7.24,0,0,1-2.52.49c-18.52,4.15-37.31,4.53-56.17,4.19-5.31-.1-10.55-.62-15.81-1.17-4.31.08-6.52-2.28-6.58-6.36-.13-9.13-2.07-18.05-2.81-27.09a4.93,4.93,0,0,1,.39-1.61c3.1-2.58,7-3.45,10.66-4.85,7.87-3,15.68-6.29,20.13-7.62-8.14,2.83-19.75,7.22-31.23,12-5.3,1.29-10.53,1.44-15.64-.83-3.12-2.19-5.14-5.29-7-8.5-.9-3.54,7.72-31.21,9.74-42.06a21.94,21.94,0,0,0,.73-3.35,76.25,76.25,0,0,1,4.51-17.27c3.92-10.61,16-18.13,26.55-17.33a3.46,3.46,0,0,1,2.12,2.6c.69,5.23,4.69,6.62,8.84,8.22C598.24,325.71,600.85,321.44,604.46,319.53Z" transform="translate(0 0)"/><path class="cls-2" d="M247.69,337.42c-.78-23.81,5.63-45.25,21-63.78a91.8,91.8,0,0,1,34.46-25.54A197.51,197.51,0,0,1,346,235.34c9.19-1.73,18.42-3,27.62-4.62,1.86-.32,3.22-.6,3.24-2.78.5-.41,4.33,8.18,3,12.49-4.05,12.86-5.59,26.26-8.44,39.37-2.72,12.47-4.7,25.12-7.59,37.55-1.25,5.39-.78,8.87,4.3,11.25.54,5.42-.56,7-5.68,7.31a28.39,28.39,0,0,0-11.28,2.8q-24.27,1-48.54,0c-3.3-1.15-2.17-2.76-.25-4.11,2.16-1.51,4.63-2.58,6.79-4.13,2.52-1.81,4.13-4.19,2.35-7.2s-4.33-1.46-6.64-.59c-3,1.12-5.55,3.09-9.13.49-1.62-1.18-2.86,2.78-5.05,3.26-6.53,1.08-11.49,5.44-17.21,8.2-3.22,1.56-6.11,3.89-9.87,4.21-3.63.14-7.26.32-10.89.16C250.89,339,249,339,247.69,337.42Z" transform="translate(0 0)"/><path class="cls-4" d="M367.88,328.66c-7.57-1.92-7.32-1.87-5.89-8.92,3.72-18.34,6.89-36.8,10.91-55.07,1.78-8.06,2.21-16.47,5.53-24.18,1.88-4.38,3.57-26.64,4.77-33.89,1.89-11.41,7.63-19.89,17.56-25.65,1.19-.69,3.2-.82,1.77-3-.93-2.6-2-5.2.31-7.67,4.26-1.56,8.62-.92,13-.57,2.78,2.49,5.41-.74,8.14-.24,2.49.05,5,0,7.48,0,3.68,0,6.64.9,7.11,5.22.22,2.11,1.55,2.71,3.44,2.74s3.65-.06,5.48.09c16.37.2,31.24,6.4,46.38,11.54a60.64,60.64,0,0,0,14.95,3.4c1.64.11,3.35,0,4.61,1.38-.54,13.11-5.31,23.46-18.41,28.46a15.41,15.41,0,0,0-2.53,1.54c-20.32,2.09-40.71.62-61.06,1-6.54.14-7.57,1.17-6.76,7.85.26,4.64-2.14,8.66-3.43,12.84-4.87,15.8-8.3,32-13.59,47.69a43.62,43.62,0,0,0-1.81,11.69c-2.71,2.72-3.24,6.42-4.12,9.86-1,4-2,8-3.19,11.91-2.17,7.15-2.44,7.46-9.92,7C381.6,332.32,374.48,331.55,367.88,328.66Z" transform="translate(0 0)"/><path class="cls-2" d="M224.28,326.6c1,.24,1.25,1.09,1.54,1.9,2.64,4.72,3.7,10.11,6.34,14.83,3.33,6,1,11.6-1.19,17.19-1,2.6-2.87,4.89-2.93,7.86-.33,2.14-1.54,3.89-2.58,5.72-2.73,3.67-.72,7.57.06,11,1.38,6.15,2.24,12.43,4.25,18.44.47,2.43.42,4.94,1.36,7.28a55.55,55.55,0,0,1,2.1,18.44c-.14,2.89-1,5.15-4.4,5.45-11.53,1.29-23.07,2.17-34.7,1.38-8.94-.61-17.95.19-26.83-1.47-1.79-.34-3.32-1.23-3.16-3.19.35-4.38-.46-9,2.38-12.93,1.28-1.13,2.8-.64,4.26-.55,2.06.12,4.09,0,5.12-2.15s-.11-3.83-1.26-5.5a33.28,33.28,0,0,0-3.69-4c-1.36-1.4-2.8-2.74-2.81-5.09-4.44,2.52-6.92,6.8-11.23,8.7a2.5,2.5,0,0,1-2.7-.84c-5.54-8-12.73-14.79-17.26-23.54-1.94-4.5-6-7.44-8.45-11.64s-2.46-8.71,1.18-12.1c5.62-5.24,11.49-10.21,17.26-15.29a8.81,8.81,0,0,1,2.86-3.89c7.72-6.32,15.38-12.73,22.73-19.47,5-4.62,10.92-5.18,17.18-5,6.37-.21,12.74.25,19.09-.43C215.52,318,221.07,320.24,224.28,326.6Z" transform="translate(0 0)"/><path class="cls-2" d="M513.39,193.77c-13.66.52-25.57-5.86-38.14-9.65-6.91-2.08-13.68-5-21.12-4.47-2.45.18-4.54-.84-6.79-1.34-.77-5.49-2.26-11,.46-16.38,2.35-3.11,6.21-3,9.39-4.06,8.8-3,14.94-7.86,16.34-17.81,1.05-7.5,4.19-14.58,5.75-22-2,8-4.91,15.76-6.27,23.83a18.09,18.09,0,0,1-6.55,11.24c-4,3.41-9.18,4.48-14,6.17-1.56.54-3.26.68-4.45,2-8.18,2.75-15.49,7.79-24.18,9.2-2.47-.59-4.9,2.93-7.39.09a31.39,31.39,0,0,1-7.24-11.95c1-4.17,5.68-3.83,8-6.43C427,146.82,435.86,139.86,446,135c2.34-1.14,4.7-2.57,5.32-5.51.48-7.73,4.12-14.75,4.36-23.76-.51,7.53-2.88,13.38-3.86,19.58-.62,2.49.18,5.53-2.78,7.09-6.61-1.14-12-8.11-12.73-16.22-.16-1.77.67-3.65-.53-5.31,2.21-5.8,4.35-11.64,6.71-17.38a7.82,7.82,0,0,0,.44-3.34c.32-4.3,1-8.57.4-12.92A6.31,6.31,0,0,1,445,71.65c4.87-2.88,9.75-5.77,15.42-6.9,5.05.33,9.51,2.7,14.19,4.28,2.68.91,4.08,3.29,4.17,6.25.09,3.27,1.45,6.15,3,8.87,2.41,4.16,5.64,7,11,5.74a4.05,4.05,0,0,1,2.91.33c7.15,8.16,11.17,18.07,14.28,28.15,4.28,13.92,7.47,28.19,7.11,42.94-.22,9-.49,17.92-.95,26.87C516,190.25,515.55,192.53,513.39,193.77Z" transform="translate(0 0)"/><path class="cls-5" d="M647.15,433.26c2.78-2.78.34-5.37-.62-7.7-3-7.32-4.65-15.07-7.1-22.56-.39-1.17-.06-2.58-.06-4.47,4.53,3.81,9.18,3.34,13.91,1.94-.35,6.21,2.09,11.71,4.91,16.92a5.16,5.16,0,0,0,6.13,2.15c2.59-.82,4.44-2.28,4.9-5A25.22,25.22,0,0,0,668.05,401c-2.36-6.14,3.31-16.09,9.66-17.05,2.09-.32,2.95,1.33,3.61,2.81a50.89,50.89,0,0,1,3,11,19.38,19.38,0,0,0,5.36,10.25c1.47,1.46,2.68,1.78,4.24.37,3.51-3.18,6.91-8.52,4.37-13.9-4.83-10.23,0-17.43,11.21-18,4.68-.23,9.13-2.12,13.85-2.6,2.55-.26,4.41-.09,5.15,2.44,2,6.81,4.71,13.57,5.4,20.52.82,8.36-4.7,14.63-14.24,15.57-3.49.35-6.9.09-9.81,2.66-2,1.76-2.29,3.19,0,4.72,1.37.92,2.85,2.36,4.29,2.37,6.41.05,12.36,3.36,18.93,2.37,3.24-.48,7-.77,7.88,3.84.58,3-4.4,8.69-7.8,9.06a31,31,0,0,1-12.71-1.61c-6.59-2.12-12.82-2.34-19,1.07-4.07,2.25-4.59,8.82-.59,11.2a39.18,39.18,0,0,0,11.35,4.52,119,119,0,0,0,23.83,3c3.05.09,5.39,2.24,5.29,6.36-.11,4.42-2.61,6.62-6.06,7.18a19.7,19.7,0,0,1-10-1.22c-11.72-4.32-24.07-5.51-36.57-4.45-2.57.22-4.69,1.78-6.54,3.27-3.16,2.55-1.92,6.8,2.39,8.52a100.05,100.05,0,0,0,30,7c6,.43,11.72,3.2,18,2.23,1.78-.28,3.2,1.25,3.52,3,.64,3.35.31,6.7-2.06,9.36-4.5,5-11.83,6-18.24,3.67-8.41-3.06-16.56-6.69-25.84-7.67-4.35-.45-8,.56-12,.86-2.68.21-4.61,2-3.26,4.73,1.5,3.11-2.13,6.49,1.12,9.41,2.82,2.54,6.08.8,9,1.57a2.11,2.11,0,0,1,1.53,1.76c-4.24,1.59-8.65.46-13,.79-1,.07-1.63-.95-2-1.93-.5-1.85.14-3.62.33-5.43a32,32,0,0,0-2.63-16.49c-7.32-16.92-14.48-33.93-21.65-50.92A4.67,4.67,0,0,1,647.15,433.26Z" transform="translate(0 0)"/><path class="cls-5" d="M88,493.29c-3.48-7.51-2.54-8.9,5.94-11.52,10.1-3.12,20-6.76,27.67-14.61,3.79-3.89,2.9-7.56-2.14-9.48-9.16-3.48-17-.17-24.5,4.71-8.34,5.46-15.69,5.21-22.62-.58-2.28-1.91-2.67-4.48-3.88-6.75-.82-1.52-.07-2.51,1.69-2.69,2.79-.28,5.49-1.41,8.36-1,4.47.64,8.33-1.52,12.22-3,4.19-1.63,5.05-7.82,1.18-10.14-3-1.81-6.15-4.86-11-2.3-5.55,2.95-15.73-.92-18.73-6.14-2.64-4.61-1.06-6.55,3.49-8.63,5.26-2.4,10.77-.84,15.93-2.63,2.8-1,5.83-2.19,6-5,.21-3-2.19-5.38-5.29-6.37-4.71-1.5-9.56-.53-14.35-.67-6.35-.18-9.88-3.74-10.07-10.13-.15-5.12-.78-10.23-.9-15.35-.16-6.88,1-8.44,7.76-9.36a129,129,0,0,1,15.84-1.08c7.72-.1,13.24,5.68,13.31,13.52,0,3,0,6,0,9a5.12,5.12,0,0,0,4,5.1c2.45.6,3.57-1.51,4.83-3.42,4.17-6.32,2.35-13.91,4.68-20.6,1-2.8.81-6,5.27-5.68,4.29.34,6.63,3.13,7.91,6.51a9.37,9.37,0,0,1-.32,7.31c-4,7.92-6.28,16.18-5.41,25.13,2.21,3.42,4.52,6.57,9.39,5.93a3.23,3.23,0,0,1,3.56,2.18c.82,4.29.39,8.63.4,12.94q.09,25.44,0,50.88c0,2.32.22,4.66-.4,6.94a4.67,4.67,0,0,1-3.83,2.79c-5.63,1.13-10.52,3.83-15.3,6.83a19.63,19.63,0,0,1-12.39,2.64C92.72,498.24,89.74,496.74,88,493.29Z" transform="translate(0 0)"/><path class="cls-6" d="M672.06,509.49c.21,1.39,1,2.08,2.35,1.54,4-1.6,7.92-.6,11.88.08a3.2,3.2,0,0,0,.86.22,16.76,16.76,0,0,1,6.05,3.21A18.8,18.8,0,0,0,703,519c5.51.83,9,3.71,10.14,9.3.77,3.89,1.51,7.78,2.35,11.65.3,1.41,1.22,2.88,2.72,1.75,3.33-2.52,7.34-4.52,8-9.45.38-2.92,1.3-5.77,1.79-8.68,1.46-8.8,6.83-13.36,15.41-14.81a19.7,19.7,0,0,0,10.85-5.41c2.34-2.29,5.1-4.28,8.69-4.33,3.15-1.16,6.3-1.52,9.45,0,6.25,2.75,8.13,10.14,3.71,15.29-3,3.49-6.29,6.74-9.5,10.05a20,20,0,0,0-4.43,5.86c-1.51,2.26-.63,4.69-.54,7.07a9.53,9.53,0,0,1-1.47,5.07c-2,3.92-5.87,5.6-9.32,7.59-7.32,4.24-7.42,4.08-6.52,12,.13,1.11-.18,2.33.79,3.24A23.12,23.12,0,0,1,745,577c-4.33,4.24-12.31,4.88-18.77,1.52-2.29-1.35-2.05,1.78-3.48,2-1.87.09-1.35,2.53-2.89,2.95-3.26-3.92-2.38-9-3.76-13.46-5.41-17.45-14-32.78-28.24-44.59,3.06,3.88,6.89,7.11,10,11a103.59,103.59,0,0,1,8.73,12.7,92.88,92.88,0,0,1,10.48,29.31,3.27,3.27,0,0,1-.94,3.2c-4,1.45-8.16,1.12-12.28.76-3.82-.33-6.06-2.3-6-6.43.06-3.47-.38-7,.43-10.39,1.07-4.46-.7-7.2-4.51-9.31-4.17-2.31-8.63-4.44-10.37-9.46a9.2,9.2,0,0,1-.42-1.94c-.09-1-.08-2.09-.08-3.14s0-2-.06-3c-.66-3.35-3.34-5.14-5.59-7.25-4.74-4.44-9-9.13-9.55-16.08C668.3,512.75,668.72,510,672.06,509.49Z" transform="translate(0 0)"/><path class="cls-3" d="M402.6,170.81l.72,7.86a2.87,2.87,0,0,1-1.31,1.05c-5.28.95-10.62.12-15.92.56a1.57,1.57,0,0,1-1.38-.81c-3.86-1.5-7.89-.65-11.82-.71-10-.13-19.95-.15-29.91,0-3.23.06-4.71-1.07-5.63-4.16-4-13.44-8.31-26.8-12.37-40.22-1.7-5.63-1.5-5.7,4.46-5.76,18.1-.16,36.2-.31,54.3-.57,4-.06,6.44.31,7.65,5.3,1.58,6.52,3.5,13,5.52,19.49C401.65,157.94,401.29,164.64,402.6,170.81Z" transform="translate(0 0)"/><path class="cls-7" d="M224.28,326.6c-4.41-3.55-8.46-7.76-14.63-8.16-2.8-2.74-2.84-6.15-.06-8.27,6.68-5.09,6.41-12,5.75-19-.52-5.44-.9-10.9-1.73-16.32-.49-3.18-1.74-3.48-4.32-2.05a19.24,19.24,0,0,0-8.39,8.26c-3.14,6.49-8.23,10.72-14.68,13.52-2.57,1.11-4.06,2.23-.44,4,1.07.52,2.37,1.16,2.51,2.27.78,6.12,3.42,12.2.71,18.45-10.3-1.74-16.26,5.54-23,11.11-6.41,5.31-12.71,10.75-19.06,16.13-2-11.75.81-22.32,8.44-31.37a11.31,11.31,0,0,0,2.77-7.58c.35-9.65,1.59-19.09,7.85-27a11.87,11.87,0,0,1,2-2.14,16.72,16.72,0,0,0,6.17-9.51c3.3-12.17,15.79-17.7,27.92-13.45,5.5,1.92,10.4,5,16.19,6.48,6.22,1.54,9.29,7.06,6.85,13.16-3.53,8.84-1.89,16.18,1.89,24.45C231.13,308.55,229.45,318,224.28,326.6Z" transform="translate(0 0)"/><path class="cls-8" d="M495.67,90.22c-9.87,2.89-17.67-3-18.07-14.11-.13-3.43-1.54-5.3-4.28-6.34-4.12-1.56-8.38-2.75-12.58-4.1a22.25,22.25,0,0,1-12-9c-1.65-2.35-2.66-4.54-.83-7.23.66-1,1.19-2.12.13-3.14a2.57,2.57,0,0,0-3.24-.29c-3.44,2.28-6.21.54-9.14-1.13a78.76,78.76,0,0,0-13.06-5.5c-.74,1.86.76,4.09-1,5.55a23.43,23.43,0,0,1-7.07-6.88,8.94,8.94,0,0,1-.06-8.06c5.38-9.28,13.25-15.8,23.78-17.32,10.17-1.47,18.81,3.62,26.59,9.81a38.63,38.63,0,0,1,11,13.75c4,8.58,10.43,13.9,19,17.56,6.92,3,10.3,9.35,12.73,16.21C510.48,78.22,502.62,88.11,495.67,90.22Z" transform="translate(0 0)"/><path class="cls-3" d="M69.77,578.46c-4,2.07-8.3,2.06-12.61,1.86-4.86-.23-7.2-2.63-7.26-7.58a34.15,34.15,0,0,1,1.37-10.3c1.89-6.31.56-9-5.22-12a58,58,0,0,1-6.47-3.56c-3.55-2.42-6.39-5.45-5.53-10.23.89-5-1.49-8.51-4.63-11.93-3.67-4-8-7.35-10.89-12.1-2.5-4.09-2.77-7.75.63-11.19,3.16-3.2,7.15-5.3,11.59-3.68,3.64,1.33,7.48,2.79,10.36,5.63,4.12,4.06,9.15,5.66,14.75,5.94,7.69,1.23,11.27,6.3,12.38,13.5s3.38,13.84,9.39,18.58a3.6,3.6,0,0,1-.6,5c-3.13,2.62-5.73,6-9.83,7.34-2.91-.61-3.62-3.18-4.59-5.4-5.74-13.19-14.94-23.68-25.7-33a54.78,54.78,0,0,0,6,6.54A96.25,96.25,0,0,1,65.6,557.64c-1.53,7,2.79,12.23,5.32,18A2.71,2.71,0,0,1,69.77,578.46Z" transform="translate(0 0)"/><path class="cls-9" d="M722.28,579.88c.31-.87.56-1.77.94-2.61s1-1.9,2.06-1.63c1.53.38.64,1.86.93,2.83a28.3,28.3,0,0,0-.89,2.84c-2,9.87-1.41,10.62,8.6,10.62,10.25,0,10.09,0,7.89,10.26-1.48,6.95-2.43,14-3.62,21,.8,1.95-.38,2.35-1.9,2.35-10.72,0-21.45,0-32.17,0-2,0-2.91-1.23-3.74-2.7-3.12-8.06-3.6-16.72-5.37-25.08-1.09-5.18.93-6.84,6.22-7.09,3.13-.15,6.28-.14,9.41,0,3.91.13,5.44-1.61,4.91-5.43-.2-1.44-.54-3,.47-4.3-2.78-20.13-11.8-37.09-26.1-51.37-.82-.81-1.73-1.54-2.47-2.42-.93-1.1-3.6-1.82-2-3.63,1.26-1.42,3.12.1,4.32,1.22a97.53,97.53,0,0,1,18.37,23A96.22,96.22,0,0,1,719.83,583c1.65,2.48.69,5,.57,7.41C721.48,587.16,719.58,583,722.28,579.88Z" transform="translate(0 0)"/><path class="cls-9" d="M69.77,578.46l.15-3.45c1.89-.38,2.84.84,3.72,2.18A43,43,0,0,1,75,585.52c.1-2.25-.61-4.78,0-7.32,3.15-13.69,8-26.67,15.85-38.43,4.11-6.15,9.52-11,14.84-16,1.42-1.34,3.41-2.21,4.9-.66,1.68,1.74-.1,3.36-1.23,4.7-1.6,1.91-3.5,3.55-5.22,5.35-13.13,13.79-20.37,30.43-23.64,49,0,.34,0,.67,0,1,0,7.45.14,7.54,7.37,7.59a67.6,67.6,0,0,1,8.42.21c3.08.39,5.16,2.09,4.46,5.29-2,9.33-2.29,19-5.79,28.05-1.28,1.9-3.25,1.31-5,1.32-9.09,0-18.2-.15-27.29.1-3.94.11-6.08-.7-5.14-5.09.12-.55-.32-.91-.58-1.32-1.54-7.62-3.09-15.23-4.6-22.86-.59-3,.71-4.45,3.7-4.47,3.82,0,7.66-.14,11.48,0,2.71.11,3.57-1,3.26-3.56C70.36,585.08,70.09,581.76,69.77,578.46Z" transform="translate(0 0)"/><path class="cls-10" d="M56.91,619.24c.8,5.93,4.74,6.13,9.62,5.88,7.72-.4,15.48-.07,23.21-.13,1.66,0,3.82.77,4.37-1.91,7.46-.36,14.88-2.47,22.4-.53,2.59,1.64,5.49,1.1,8.28,1.1q103.23,0,206.47,0c2.71,0,5.55,1.16,8.2-.44a3.28,3.28,0,0,1,1.46-1.09c2.93-.88,5.94-.59,8.92-.6,65.13,0,130.27.22,195.4-.16,17.75-.1,35.51-1.15,53.27-.67,1.25,0,2.51-.19,3.76,0a109.16,109.16,0,0,1,21.44,1.3A14.35,14.35,0,0,1,627,623c5.18,1.48,10.47.63,15.7.65,5.4,0,10.85.67,16.22-.51a6.16,6.16,0,0,1,1.54-.71,5.93,5.93,0,0,1,2.55,0c9.25-.34,18.48-1.09,27.75-.75,3.47.12,7-.15,10.4.55,1.21,1.11,1.45,3,4,2.93,10-.25,20-.11,30-.1,1.4,0,2.69-.1,3.05-1.82,9.64.08,19.28.14,28.92.28,1.36,0,3.65-.78,3.76,1.2.11,2.17-2.23,1.33-3.5,1.33q-73.61,0-147.22-.07-70.83,0-141.65.08-189.15,0-378.31,0H7.36c-1.16,0-2.33.06-3.49,0-.9-.07-2.26.36-2.4-1-.2-1.84,1.37-1.52,2.44-1.53,8.48,0,17,0,25.45,0,7.65,0,15.31-.18,23,.07C55.69,623.64,57.29,622.73,56.91,619.24Z" transform="translate(0 0)"/><path class="cls-11" d="M230.87,343.44c-2.11-4.83-4.92-9.43-5.05-14.94,6.32,3.26,11.77,7.85,17.7,11.68,6.48,4.07,12.32,1.6,18.07-1.75.89-.52,2-.21,2.88-.63,6.32-3.37,12.63-6.76,19-10.1,2.26-1.19,4.38-3.1,7.29-1.87,4.45,2.74,5.89,7.79,8.93,11.63,2.09,3.69-.38,5.43-3,7.17Q279.36,356,262.3,367.72c-5.66,4.23-11.5,5.25-18,1.58-4.14-2.35-9-3.35-12.75-6.48-1.51-2.38-.12-4.58.74-6.59a15.09,15.09,0,0,0-.32-13.38c-.2-.4,0-1-.57-1.21A1.94,1.94,0,0,1,230.87,343.44Z" transform="translate(0 0)"/><path class="cls-9" d="M680.13,337.8l37.09-.33c4.91,1,6.86,4.17,6.78,8.91q-.12,6.72-.28,13.45a6,6,0,0,1-3.78,5.87c-2.17,1.16-4.53.77-6.83.78-9.26,0-18.53.07-27.8,0-4.62,0-5.64-1.22-4.21-5.3,2.2-6.25,2.36-12.23-.88-18.2C679.37,341.42,678.85,339.54,680.13,337.8Z" transform="translate(0 0)"/><path class="cls-12" d="M421.58,44.93c1.21-2.5-1.95-4.58-.58-7.37a78.53,78.53,0,0,1,17.49,7.52c1.68,1,2.84,1.51,4.73.21,2.1-1.45,5-2,6.85.09s0,3.93-1.72,5.47-.15,2.55.54,3.83c2.7,5,7.69,7.56,11.85,11l-15,6.18a2.6,2.6,0,0,1-2.18-1.79c-.8-2-1.8-2.25-3.54-.94-1.05.79-2.68,1.3-3.77.73-2.17-1.13-3.8-.21-5.56.68.26-3.27-1.18-5.94-3-8.47a67.34,67.34,0,0,1-4.28-11.52c-.81,1.27,2,3-.15,4.29-2.37-1.67-2-4.19-1.06-6.09S422.51,46.09,421.58,44.93Z" transform="translate(0 0)"/><path class="cls-11" d="M417.6,152.94c-1.64,3.36-6.33,2.51-8,5.8-5.81,3.08-9,.88-9.88-6.85-.85-2.81.71-3.95,2.95-5.3,7.65-4.61,15.56-8.8,22.85-14a8.55,8.55,0,0,0,3.44-4.53c1.75-6,4.43-11.52,6.83-17.21,2.06.47,1.73,2.13,1.75,3.59.1,8.07,4.12,13.66,11,17.45.39,2.79-2.06,3.1-3.65,3.88-9.35,4.57-17.33,11.41-26.72,15.9A1.21,1.21,0,0,0,417.6,152.94Z" transform="translate(0 0)"/><path class="cls-9" d="M384.71,179.47a1.72,1.72,0,0,0,.8.26c5.64-1.26,11.45.5,17.08-.93a1,1,0,0,1,.73-.13,9.21,9.21,0,0,1,1.77,0c.27,1.66-1.07,2.47-2.21,2.8-3.68,1.06-6.14,3.64-8.85,6.12-7,6.38-9.22,14.71-10.27,23.55-.48,4.11-2.54,7.86-2.32,12.16.12,2.38-1.74,11.63-1.74,11.63s-7.75-19.19-9.38-25.49C367,196.68,371,185.35,384.71,179.47Z" transform="translate(0 0)"/><path class="cls-12" d="M680.13,337.8c-.65,2,.77,3.59,1.62,5,3.67,6.12,3.41,12.48.71,18.55-1.92,4.3-.53,4.64,3.2,4.57,11.42-.19,22.85-.17,34.28-.23-1.13,2.39-3.34,1.76-5.23,1.77-9.6,0-19.21.18-28.81-.05-4.12-.09-7.07.52-8,5.23-.28,1.46-1.83,2.67-2.79,4-4.3-3.39-6.75-8.38-10.54-12.21-.47-1.46.45-3-.29-4.45-3.78-4.29-5.85-9-4.57-14.93.93-4.35,2.92-6.37,7.41-6.18a11.57,11.57,0,0,1,4.85.9c3.21,1.67,5.56.87,7.51-1.93A2.72,2.72,0,0,0,680.13,337.8Z" transform="translate(0 0)"/><path class="cls-8" d="M430.65,70.53c.7-1.69,1.05-3.69,3.82-2.17a4.44,4.44,0,0,0,3.77,0c4.41-2.67,6.12-.13,7.46,3.47-3,4.77.63,10.05-1.13,15-.43,1.21-.14,2.68-1.66,3.31C432.63,89.57,426.93,80.46,430.65,70.53Z" transform="translate(0 0)"/><path class="cls-12" d="M399.69,151.89c1,.54,1.1,1.57,1.4,2.5,1.38,4.27,4.11,5.92,8.48,4.35a54.75,54.75,0,0,1,6.86,11.86l-13.83.21c-3.3-5.54-3-12.22-5.69-17.95C397.93,152.81,399,153,399.69,151.89Z" transform="translate(0 0)"/><path class="cls-9" d="M264.47,337.8c-3.22,1.85-6.5,3.62-9.65,5.58-5,3.11-7.88-.94-11.3-3.2.36-2.48,2.89-1.67,4.17-2.76Z" transform="translate(0 0)"/><path class="cls-8" d="M423.2,54.83c.24-1.6-1.29-3.08-.06-5.22a22.76,22.76,0,0,1,4.49,12.45C426,59.75,423.65,57.88,423.2,54.83Z" transform="translate(0 0)"/><path class="cls-13" d="M760.14,542.36c2.29-3.78-1.7-8.59,2-12.14C761.16,534.21,764.1,538.86,760.14,542.36Z" transform="translate(0 0)"/><path class="cls-14" d="M414.45,30l.06,8.06C412,35.38,411.27,32.7,414.45,30Z" transform="translate(0 0)"/><path class="cls-15" d="M772.37,499l-9.45,0C766.06,496.52,769.21,496.26,772.37,499Z" transform="translate(0 0)"/><path class="cls-16" d="M745,577c0-3.9.08-7.81.11-11.71C746.7,569.16,747.13,573.07,745,577Z" transform="translate(0 0)"/><path class="cls-9" d="M438.74,287.77c-.07,5.17,2.07,9.92,3.28,14.78,1.11,4.4-.28,5.54-4,6a15.39,15.39,0,0,0-2.37.64c-4.06,4.17-9.94,3.71-14.84,5.74-1.94.8-4.17.85-6.08,1.87-6.83,1.84-11.25-3.73-9.37-11.8-1.62-4.21-.31-8.45.88-12.24,3.2-10.21,5.66-20.63,8.71-30.85,2.93-9.8,4.5-20.14,9.67-29.23q4,15.57,7.93,31.14Q435.62,275.8,438.74,287.77Z" transform="translate(0 0)"/><path class="cls-12" d="M582.5,313.88c2.18-2.37,2-5,1-7.81l1.2-.69c0-1-.52-2-.15-2.94,2.27-5.52,2.29-10.46-1.46-15.73-2.49-3.51.33-7.48,4.89-7.06s7.7-1.32,11.34-3.58a19.12,19.12,0,0,1,19.15-1.1c.56,9.84-3.21,19.19-3.32,29,0,2.79-2.65,5.17-4.94,5.77-5.61,1.47-5.84,5.37-5.71,9.8-2.17,4.55-5.72,6.66-10.75,5.74-7.51-1.38-9.29-3.11-10.43-9.59A8.84,8.84,0,0,0,582.5,313.88Z" transform="translate(0 0)"/><path class="cls-8" d="M618.43,275c-2.65-.1-5.3-.1-7.94-.31A16.32,16.32,0,0,0,597,279.38c-2.24,2.26-4.34,3.18-7.41,1.54a4.18,4.18,0,0,0-5.41,1.12c-1.19,1.54-1.46,3.78,0,5.07,6.79,6,2.47,12.13.51,18.27-4.64-7.85-8-16.32-10.93-24.88-1.48-4.3-1-9.07,3.81-11.71a4.09,4.09,0,0,0,2.08-3.05c4-14.65,17-19.86,29.42-11.33,6.77,4.66,13.09,9.94,20.86,13a12.55,12.55,0,0,1,2.16,1.38C627.52,272,622.93,273.38,618.43,275Z" transform="translate(0 0)"/><path class="cls-9" d="M666.15,359.81l-1.56,4.63-5.76,2.14a10.32,10.32,0,0,1-10.4.26c0-1.16-1-1.57-1.77-2.16-2.86-4.5-2.36-6.63,2-9,1.8-1,4.23-1,5.27-3.86-3-1.07-5.44.22-8,1-2.06.65-4.08,2.57-6.33.4-1.84-5.61-6.36-9.84-8-15.54,7.46,0,14.94.15,22.38-.19,4-.19,5,1.31,4.37,4.88-.39,2.26-.49,4.57-.72,6.86.31.38.74.79.69,1.25C657.7,356.39,661.14,358.76,666.15,359.81Z" transform="translate(0 0)"/><path class="cls-17" d="M666.15,359.81c-10-.58-9.27,1.44-8.55-10.5,3.07-6.18,1.58-13,2.43-19.44,1-7.24.41-7.25,7.91-6.55,3,.28,6,.19,9,.34s4.52,1.83,4.1,4.89-1,6.19-1.51,9.29c-.27,1-.53,1.9-.81,2.84-.6,2.09-1,4.14-3.79,1.55-1.09-1-3-1.38-4.55-1.67-3.19-.57-6.85-1.73-8.91,1.86a10.58,10.58,0,0,0,0,10.81C662.74,355.57,663.59,358.34,666.15,359.81Z" transform="translate(0 0)"/><path class="cls-2" d="M450.72,322.75c2.09,1.08,1.65,3.06,1.66,4.83,0,6.8.18,13.6-.05,20.39-.12,3.5,1.08,4.51,4.54,4.48,18.91-.15,37.82-.07,56.72-.08a4,4,0,0,1,2.67-1.18c10.72-.15,21.45-.91,32.15.4,3.17,3.73,1.18,7.73-.47,10.9-1,1.87-6.65,17.86-5.58,20-1.13,3.5-1,7.12-1,10.73,1.63,2.64,3.08,5.4,5.61,7.35,3.54,2.63,7.55,2.81,11.74,2.47,1.88-.15,3.89-1.26,5.67.37,1.27,9.43,3.17,18.8,3,28.38-.05,3.23,1.52,4.93,4.89,4.62,2.74,4.88,1.32,10.37,2.17,15.54,1.52,9.25,3.82,18.27,8.35,26.37a83.23,83.23,0,0,1,8.94,22.47c3.69,16.32,8.17,32.44,12.2,48.66a7.33,7.33,0,0,1-.34,5.33c-5.93,9.6-12.31,18.93-18,28.72-1,1.79-2,3.46-1,5.56a4.92,4.92,0,0,1-1.25,4.13c-2.92,3-1.75,5.43.53,8.1,4.59,5.39,9.25,10.71,13.82,16.1,1.1,1.29,2.89,2.48,1.56,4.64-1,0-2,.08-3,.09-84.06,1.42-168.13.92-252.2,1-1.49,0-3,.1-4.48.15a3.66,3.66,0,0,1-2.35.5c-7.37-2.1-11.74-7.39-14.1-14.25a52.21,52.21,0,0,1-3-16.62c0-2.5-1-4.85-1.64-7.27-1.08-10.07-3.74-19.91-4.37-30-1.32-21.37,3.3-41.58,12-61,5.19-14.29,11.65-28.09,16.56-42.5,4.84-11,9.09-22.3,13.44-33.52,1.12-2.92,2.84-5.62,3.39-8.76,6-14.51,11.66-29.18,17.55-43.74.81-2,1.72-3.94,2.66-5.88,3-6.17,7.93-9.05,14.71-9.08,7,0,13.91.06,20.87-.09,8.79-.21,17.57,0,26.35-.1,7,0,7.1-.17,7.14-7.33,0-5-.07-9.94,0-14.91C449.05,326.62,448.78,324.35,450.72,322.75Z" transform="translate(0 0)"/><path class="cls-18" d="M602.11,555.06a5.46,5.46,0,0,0,.79-5.14c-4.7-17.74-9.89-35.39-13.68-53.32-1.91-9.05-7.6-15.94-10.65-24.26-4.28-11.69-6.74-23.48-6.23-35.89,10.72,1.09,21.49.78,32.23,1.21,13.82.56,27.13-2.92,40.69-4.31.65,2.53-1.35,3.93-2.59,5.49-6.9,8.62-13.73,17.3-20.73,25.84-1.28,1.56-2.53,2.63-.41,4.4.45.38.17,1.25,0,1.89-1,5.4,1.34,10.37,2.08,15.53,1.22,8.47,4.17,16.65,4.7,25.27.71-.22,1.28-1,2.16-.57-2.32,4,.38,7.61,1,11.38,1.58,10.07,3.63,20,6.05,30a7.11,7.11,0,0,0,2.12,3.77c-.59,4.13.13,8.14,1,12.17,1.78,8.17,3.16,16.42,4.87,24.61A66,66,0,0,1,648,604.2c.41,2.28.23,4.35-2.57,5-8.66.7-17.07,3.14-25.76,3.65-2.39-.66-2.57-2.79-2.94-4.68a97.16,97.16,0,0,0-3.93-14.7c.92-6.76-1.59-12.8-4.32-18.66C605.49,568.5,605.44,561.26,602.11,555.06Z" transform="translate(0 0)"/><path class="cls-9" d="M621.19,470.56c-4.21-5.11.86-7.88,3.15-10.91,6.75-8.94,13.92-17.56,20.92-26.3l1.89-.09c8.15,19.08,16.36,38.14,24.44,57.25a25.77,25.77,0,0,1,.47,19,18.06,18.06,0,0,0-3.63,5.64c.3,2.39-1.3,4-2.56,5.62-3.67,4.84-6.61,10.2-10.44,14.93-1.6,1.88-2.76,4.07-4.24,6-.46.49-.94.95-1.39,1.45-2.32,3.14-4.31,6.51-6.57,9.68-1,1.44-2,3-4,3.35-1-.27-2.5,1.4-3-1.07-2.57-12.78-5.09-25.58-8.07-38.28-.67-2.87,2.65-3.27,2.12-5.53-1.6-3,1.28-4.51,2.42-6.43,4.58-7.75,4.62-7.65-.37-14.91-3.2-4.66-6.51-9.24-9.52-14C621.87,474.38,620.09,472.86,621.19,470.56Z" transform="translate(0 0)"/><path class="cls-12" d="M639.6,353.3c4.21,0,7.6-3,11.77-3.23,1.69-.1,3.71-.43,4.36,1.33.79,2.15-1.47,2.93-2.87,3.93a3.74,3.74,0,0,1-1.38.5c-4.91,1.16-6.62,4.05-4.82,8.85-1.36,5.84-4.61,9.32-11,8.91-.48,0-1,.22-1.47.17-3.1-.32-5.6,4.66-8.39,1.87-2-2-2.26-5.7-3.34-8.62a23.39,23.39,0,0,0-1.08-2.19,5.67,5.67,0,0,1-.05-5.12C627.73,358.49,633.62,355.78,639.6,353.3Z" transform="translate(0 0)"/><path class="cls-19" d="M621.3,359.7c0,1.7,0,3.41.05,5.12-2.19-5.61-6.35-2.48-9.51-1.78-6.53,1.45-12.9,3.59-19.35,5.41-5.62,1.6-11.44,2.44-16.93,4.59a6.25,6.25,0,0,1-4.34.11c-1.66-.72-1-2.73-.7-4,.5-2,.72-4.23,2.46-5.85,1,2.45.13,4.65-.86,7.54,6.36-.32,11.7-2.77,17.27-4,7-1.55,13.87-3.93,20.93-5.13C614,361,617.29,358.23,621.3,359.7Z" transform="translate(0 0)"/><path class="cls-19" d="M563.23,401.34c11.75-5,23.56-9.86,35.83-13.43.18.51.37,1,.56,1.51l-35.13,13.15A1.54,1.54,0,0,1,563.23,401.34Z" transform="translate(0 0)"/><path class="cls-19" d="M563.23,401.34l1.26,1.23a6.52,6.52,0,0,1-.07.88c-3.4.33-6.71,1.46-10.2,1-3.18-.37-6.11-1.14-8.12-3.9a1,1,0,0,1,1.54-.29C552.72,402.44,558,401.8,563.23,401.34Z" transform="translate(0 0)"/><path class="cls-20" d="M648.43,366.84c3.45-.69,6.92-.34,10.4-.26a6.86,6.86,0,0,1-6.28,4.89C650.28,371.71,649.2,369,648.43,366.84Z" transform="translate(0 0)"/><path class="cls-19" d="M547.64,400.3l-1.54.29a9.44,9.44,0,0,1-4.7-7.33C544.07,395.08,545.38,398.11,547.64,400.3Z" transform="translate(0 0)"/><path class="cls-9" d="M262,366q15.3-10.14,30.61-20.28c1.89-1.26,3.64-2.75,5.6-3.87s1.66-2.53.68-4.09a1.1,1.1,0,0,1,1.77-.31l51,.23c7.05.94,14.1,1.77,21.14,2.73a4.55,4.55,0,0,1,3.82,2.84c1.16,5.42.73,10.9.42,16.35-.25,4.17-3,6.46-6.78,7.66a26,26,0,0,1-7.89.81q-46.31,0-92.59,0C267,368.06,264,368.82,262,366Z" transform="translate(0 0)"/><path class="cls-4" d="M375.59,342.94c-4.52-2.21-9.51-1.79-14.3-2.37-3.44-.41-6.7-1-9.66-2.86,2.46-3,6-3.52,9.37-3.24,4.61.39,6.56-1.54,6.88-5.81,7.16.14,13.92,2.57,20.88,3.79,1.56,3.27.23,6.48-.23,9.69a3.19,3.19,0,0,1-3.11,2.77C382,345.07,378.44,345.74,375.59,342.94Z" transform="translate(0 0)"/><path class="cls-12" d="M300.63,337.48l-1.77.31-8.13-12c1.26-1.5,2.46-3.06,3.8-4.49.88-.94,2.59-1.3,2.81.06.66,4.19,2.78,1.85,4.48,1.24a48.61,48.61,0,0,1,4.95-2c2.18-.53,4.65-1.21,5.93,1.69,1.18,2.68,1.77,5.13-.77,7.66C308.63,333.25,303.8,334.1,300.63,337.48Z" transform="translate(0 0)"/><path class="cls-21" d="M423.82,170.51a192.74,192.74,0,0,1,23.79-10.07,1.65,1.65,0,0,1,1.69,1.17c-1.94,2.95-2,6.34-1.42,9.52a15.34,15.34,0,0,1-.54,7.18c-1.79.17-3.58.39-5.38.5-3.32.2-6.35.32-4.83-4.76.67-2.26-.83-3.52-3.44-3.4C430.41,170.79,427.11,170.57,423.82,170.51Z" transform="translate(0 0)"/><path class="cls-9" d="M167.19,433.5c10.38.57,20.76,1.59,31.14,1.59,10.21,0,20.42-1,30.63-1.57,2.44,2.9,2.26,6.43,2.33,9.87.16,7.73.74,15.42,1.62,23.1a74.2,74.2,0,0,1,.33,13c.08,14.15,1.87,28.18,2.89,42.27.36,5,.18,10,.23,15,.17,14.13,1.87,28.17,2.69,42.27.22,3.82.28,7.63.24,11.46,0,5-.41,9.94.64,14.9.53,2.55.73,5.31-.75,7.78-2.82,2.17-6.1,1.39-9.25,1.44a122.24,122.24,0,0,1-22.38-1.07c-5.11-.79-6.17-4.57-6.2-8.8-.13-19.26-1.79-38.49-1.07-57.76.34-14.94-.31-29.87-.73-44.81-.34-12.28-.79-24.55-1.45-38.08-7.83,24.76-13,49-19,73-5.6,21.68-10.41,43.54-15.3,65.39-.36,1.62-.62,3.26-1.06,4.87-1.74,6.35-2.57,7-9.35,7.19s-13.81.11-20.72.06c-2.4-.25-4.93-.25-6.09-3a4.2,4.2,0,0,1-.23-1.72c3.4-17.37,7.62-34.57,11.47-51.85,2.41-10.8,4.41-21.67,6.89-32.44,2.66-6,2.92-12.5,4.52-18.71,3.14-12.16,5.59-24.5,8.29-36.77,2.28-10.34,4.8-20.63,7-31C164.94,437,165.08,434.79,167.19,433.5Z" transform="translate(0 0)"/><path class="cls-22" d="M231.67,466.59c-1.6-5.81-.83-11.83-1.6-17.72-.66-5.08-.77-10.23-1.12-15.35,2.46.05,2.84-1.41,2.88-3.52a82.14,82.14,0,0,0-2-19.46c8.24-.28,16.43.53,24.7.41,35.33-.51,70.67-.14,106-.09-2.11,5.8-4.14,11.63-6.34,17.4-2.84,7.46-5.8,14.88-8.76,22.3a8.79,8.79,0,0,1-1.47,1.91A45.76,45.76,0,0,1,328.72,454c-6.32-.51-12.62-.24-18.93-.24-1.31,0-2.87,0-3.5,1.39-.77,1.7.59,2.85,1.66,3.8,4.61,4.06,9.51,7.78,14.21,11.73a36,36,0,0,1,4.45,4c1.08,1.26,2.33,2.78,1,4.4s-2.87.49-4-.34c-6.21-4.45-13.07-7.94-18.85-13-1.5-1.31-3-2.61-4.56-3.86-7.07-5.72-14.7-8.81-24.22-8.37-13.4.61-26.87.46-40.3.14-2.6-.06-2.3,1.74-2.5,3.37C232.79,460.24,234.18,463.73,231.67,466.59Z" transform="translate(0 0)"/><path class="cls-23" d="M167.19,433.5c-3.47,15.63-6.89,31.28-10.42,46.91-2.58,11.44-5.13,22.89-8.05,34.25-1,3.79-.2,8-2.82,11.39-3.28-4.25-8.11-3.26-12.44-3.35-2.69-.05-1.9,2.69-1.91,4.32-.07,14,0,27.92-.07,41.88,0,2.55.35,5.3-2,7.38-2.66-2.21-1.92-5-1.93-7.55-.15-28.58.09-57.16.35-85.73.21-23.27-.12-46.54.14-69.8.28-2.17,1.89-1.8,3.36-1.78,9.19.08,18.38-.24,27.58-.06,4.21.08,7.47,2.67,8.84,6.93-3.07,4.09-1.24,9.16-2.65,13.6C164.83,433,166.24,433.28,167.19,433.5Z" transform="translate(0 0)"/><path class="cls-12" d="M189,319.3c-.34-5-.74-9.92-1-14.89-.13-2.49-.32-4.57-3.63-4.77-1.61-.09-3.39-1.09-3.28-3.11.1-1.67,1.8-2.28,3.15-2.75,7.14-2.49,12.51-6.8,15.83-13.79,2.18-4.59,6.32-7.43,10.68-9.82,2.42-1.32,4-1.05,4.22,2.28q.78,13.89,1.84,27.78c.27,3.48-.94,6.69-3.63,8.2-4.48,2.53-4.62,5.89-3.53,10C202.84,320.32,195.89,319.16,189,319.3Z" transform="translate(0 0)"/><path class="cls-1" d="M169.26,396.8c-4.87-7.54-9.63-15-14.51-22.39-1.07-1.63-.89-2.53.68-3.64,3.34-2.35,6.65-4.76,9.77-7.38,1.92-1.62,2.73-.7,3.08,1C170.44,375.06,174.07,385.65,169.26,396.8Z" transform="translate(0 0)"/><path class="cls-12" d="M167.83,418.29c-4.89-7.73-13.09-6.46-20.17-6.44-6.23,0-12.54,0-18.8.43-.45.76-1,.69-1.62.2.14-3.13,2.58-1.94,4.08-2,8.57-.11,17.15,0,25.72-.06.27,0,.53-.22.8-.33l-1-.78,12.88-11.75c-1.52,6.1,2.45,8.24,5.06,11.2,2.06,2.33,4.64,4.72,2.18,8.14S171.23,420.08,167.83,418.29Z" transform="translate(0 0)"/><path class="cls-24" d="M231.75,362.12c-3.29,1.13-1.8,5.67-4.94,6.92-.38-5.42,3.74-9.3,4.91-14.26.95-4,1.24-7.69-.85-11.33v-4.17c4.61,6.22,5.22,12.41,1.62,19C231.9,359.37,232,360.83,231.75,362.12Z" transform="translate(0 0)"/><path class="cls-25" d="M224.82,373.08c1,6.82,2.05,13.63,3,20.46.43,3.23.58,6.49.85,9.73-2.9-8.08-4-16.58-5.76-24.92A4.82,4.82,0,0,1,224.82,373.08Z" transform="translate(0 0)"/><path class="cls-26" d="M449.3,161.61l-1.69-1.17c4.26-1.68,8.53-3.33,12.77-5.05,5.79-2.34,9.93-6,11.3-12.53,1.79-8.52,5.29-16.62,6.19-25.38a3.12,3.12,0,0,1,2.15-2.94c1,2.54.37,4.83-.4,7.31-2.14,6.93-4.72,13.82-5.83,20.93-1.34,8.49-6.9,12.24-13.81,15.08C456.49,159.29,452.86,160.37,449.3,161.61Z" transform="translate(0 0)"/><path class="cls-27" d="M417.6,152.94c-1.09-2.3.79-2.48,2.16-3.28,9.45-5.59,18.84-11.28,28.24-16.95.25-.15.35-.55.52-.83,2.93-1.64,1.54-4.57,2.05-6.93,2.65,1.17,1.22,3.21,1.06,5-.16,3.24-2.34,5.16-4.94,6.18-9.36,3.68-16.69,10.72-25.55,15.19C420,151.88,418.78,152.4,417.6,152.94Z" transform="translate(0 0)"/><path class="cls-28" d="M451.63,129.93c-.35-1.66.76-3.63-1.06-5q2.22-9.63,4.43-19.25l1.44.35C457.11,114.42,453.69,122.05,451.63,129.93Z" transform="translate(0 0)"/><path class="cls-23" d="M127.24,412.48l1.62-.2V575.12H130v-55.7c4.25,2.58,8.33,1.64,12.25,2,3.16.29,4.24,1.66,3.7,4.63-3.36,16.06-6.6,32.16-10.12,48.19-2.61,11.89-5.6,23.69-8.42,35.53-2.6-1.88-2-4.73-2-7.27.05-27.31-.3-54.63.16-81.94.69-4.74-1.57-9.79,1.45-14.29q0-9.48,0-18.95,0-36.45,0-72.9C127,413.78,127.14,413.13,127.24,412.48Z" transform="translate(0 0)"/><path class="cls-1" d="M650.29,541.42a19.91,19.91,0,0,1,4.23-6.16,4.92,4.92,0,0,1,4.79-.4c6.25,2.45,12.76,1.76,19.2,1.89,2,0,4,0,5.62,1.52.06,1,.13,2,.19,2.93-1.2,2-3.13,2.2-5.19,2.26a55.17,55.17,0,0,1-11.4-.84c-2.28-.42-4.72-.85-5.93,2.08a2.69,2.69,0,0,1-1.52,1.21c-4.36,2.09-4.95,4-2,7.81s5.6,8.21,10,10.88a12.29,12.29,0,0,1,6.21,8.57,4.44,4.44,0,0,0,1.79,2.92c2.57,1.69,3.91,3.55,3.17,7-.57,2.67,3.3,6.62,5.93,7,3.6.49,8.7-2,9.73-4.77a3,3,0,0,0-.13-2.88c-3.83-5.21-3.44-10.79-1.13-17-3.73,2-5.65.29-6.93-2.33a119.8,119.8,0,0,0-6.66-12.75c-2.25-3.46-.32-6,3.94-6.14.5,4.86,3.89,7.34,7.76,9.45,8.43,4.59,8.42,4.6,7.35,14-.1.82-.1,1.65-.14,2.48-.49,10.76,1.08,12.18,12,11.16,1.6-.14,3.15-1.12,4.81-.34,2.69,11,2.69,11-8.1,11-12.55,0-12.55,0-10.19,12.21q1.74,9,3.46,18.05c-.52.61-.93,1.41-1.9,1.39a330,330,0,0,0-35,.61,2.23,2.23,0,0,1-2.19-.82c-.43-1.28.48-1.82,1.35-2.27,7.67-3.94,9.74-10.57,10.65-18.76,2-18.45-7.43-31.08-20-42.12C647.59,554.55,648.1,548.37,650.29,541.42Z" transform="translate(0 0)"/><path class="cls-9" d="M731,556.82c-2.55-1.05-2.14-3.28-1.34-5,3.57-7.6,7.48-15.1,12.65-21.7,4.46-5.68,9.2-11.25,14.93-15.76.86-.68,1.89-2.92,3.63-.84,1.58,1.89-.27,2.73-1.26,3.55-12.32,10.32-20.78,23.4-27.31,37.88C732,555.65,732.26,556.69,731,556.82Z" transform="translate(0 0)"/><path class="cls-29" d="M722.28,579.88,721,591.1h-.42q-.35-4-.71-8.09a13.59,13.59,0,0,1,.27-3.28C720.89,577.33,721.63,578.6,722.28,579.88Z" transform="translate(0 0)"/><path class="cls-4" d="M402.59,178.8c-5.59,2.17-11.39.5-17.08.93C391.1,177.6,396.89,179.07,402.59,178.8Z" transform="translate(0 0)"/><path class="cls-6" d="M77.06,542.12c4.56-.5,4.16-4.89,4.31-7.26.6-9.3,5.5-14.36,14.16-15.71,6-.93,9.28-5.94,14.41-8a15.5,15.5,0,0,1,7.74-1.36c6.88.46,8.59,2.47,8.24,9.44a18.28,18.28,0,0,1-.72,3.89c-1.48,4.09-5,6.55-7.88,9.42-3.1,3-5.12,6.35-5.1,10.87,0,5-3,8.23-7,10.69-1.69,1-3.51,1.85-5.13,3-3,2.2-4.26,5-3,8.63a21.84,21.84,0,0,1,1,9.79c-.4,3.51-2.31,6-5.79,6.55-4.38.63-8.87,1-13.1-1.07,3.67-20.95,12.9-38.95,28.5-53.55,1.18-1.1,3.46-2.4,2.28-3.77-1.46-1.71-3,.26-4.4,1.5C93.17,536,85.23,549.63,79.78,564.87c-1.55,4.32-1.88,9-3.72,13.33-1.39,1-2.23.26-3-.9L69.92,575c-3.66-5.32-7.77-10.52-4.93-17.66a3.18,3.18,0,0,1,1.87-4.06c3.28-1.86,5.44-5.12,8.82-6.94A3,3,0,0,0,77.06,542.12Z" transform="translate(0 0)"/><path class="cls-9" d="M66.86,553.29c-.63,1.35-1.25,2.7-1.87,4.06C62,551.88,59.12,546.41,56.14,541c-5-9.24-12.27-16.68-19.78-23.89-1.08-1-3.38-2.26-1.81-3.93s3.07.73,4,1.59c10.55,9.55,19.5,20.38,25.37,33.47A26.63,26.63,0,0,0,66.86,553.29Z" transform="translate(0 0)"/><path class="cls-2" d="M73.11,577.3l3,.9v11.89l-1.44.17A68.28,68.28,0,0,1,73.11,577.3Z" transform="translate(0 0)"/><path class="cls-2" d="M613.13,593.33c4.33,4.35,3.29,10.44,5,15.63.41,1.22.28,2.61,1.51,3.46,3.84-.66,5,1.5,5,4.79,0,1.94.58,3.92-.39,5.8l-22.16-.94a51.19,51.19,0,0,0-2.07-7.65c-1.67-4.8-1.6-9.49,2.26-13.45,2.7-2.08,5.76-3.72,7.85-6.57A2.41,2.41,0,0,1,613.13,593.33Z" transform="translate(0 0)"/><path class="cls-9" d="M624.26,623a8.71,8.71,0,0,1-.88-5.63c.35-2.94-1-4.38-3.71-5,8.29-2.1,16.58-4.18,25.23-4,.71,8.28.69,8.37,9.15,10.48,2.67.66,5,1.55,6.35,4.06l-.33.3c-2.8,1.45-5.81.7-8.72.74-8.35.12-16.69,0-25,.14Z" transform="translate(0 0)"/><path class="cls-9" d="M603.28,601.13c-4.08,5-4,10.21-.84,15.51a4.33,4.33,0,0,1-.33,5.43h-2.72c-2.86-5.81-8.27-9.6-11.84-14.84-.55-.81-1.3-1.47-1.91-2.24-2-2.56-5.32-5-5.69-7.76-.3-2.3,2.86-5.05,4.48-7.61.22-.49.63-.81,1.12-.57,5.82,2.78,11.25,6.25,16.77,9.55A1.92,1.92,0,0,1,603.28,601.13Z" transform="translate(0 0)"/><path class="cls-30" d="M115.85,623.61l.79-.55c6-1.22,12.16-.28,18.23-.51s12.2.41,18.25-.75c18.19-.55,36.38-.45,54.57-.09,12.07,1.69,24.23.27,36.33.94,27.94.06,55.89,0,83.83,0,4,0,8,.08,11.79,1.41l1.91.2.06.66c-1.5.06-3,.19-4.5.19q-107.75,0-215.47,0C119.68,625.12,117.2,626.27,115.85,623.61Z" transform="translate(0 0)"/><path class="cls-31" d="M339.64,624.09l-95.93-.1a1.38,1.38,0,0,1,.75-1.63c2.35-1.12,4.87-.87,7.34-.87,24.89,0,49.77,0,74.65-.06,3.86,0,7.5.93,11.2,1.68l2.07.17C339.69,623.55,339.66,623.82,339.64,624.09Z" transform="translate(0 0)"/><path class="cls-32" d="M626.31,624.18c11.21-2,22.5-.83,33.76-.88-.05,1.65-1.22,1.7-2.42,1.7-9.87,0-19.73,0-29.59-.07C627.47,624.93,626.89,624.44,626.31,624.18Z" transform="translate(0 0)"/><path class="cls-2" d="M127,520.15c-1.38.68-.8,3.18-2.94,3.15.13-.64.21-1.28.4-1.9,2.15-7.33-.66-11.78-10.17-10.74-1.45.16-2.89.34-4.34.52.9-1.7,2.45-1.92,4.18-1.95,3.47-.06,7.21.89,9.6-3,.67-1.08,2.13.21,3.24.06Z" transform="translate(0 0)"/><path class="cls-9" d="M549.65,323.54l-.24,28.89-35.82-.06c0-8.29-.07-16.58,0-24.87,0-7.56,5.12-12.9,12.65-12.68,6.15.18,12.59-1.71,18.42,1.86C547.25,318.28,549.37,320.23,549.65,323.54Z" transform="translate(0 0)"/><path class="cls-9" d="M414.75,352.38q-.06-11.19-.13-22.39c3.5-3.57,8.58-2.73,12.73-4.52,1.33-.58,2.92-.51,4.37-.82,5.51-1.17,5.67-1.39,5.29-7.2-.06-1-.23-2,.77-2.68,5.63.54,10.88,1.67,12.94,8,0,8.48,0,16.95.15,25.42.07,3.17-.85,4.35-4.21,4.28C436,352.26,425.39,352.38,414.75,352.38Z" transform="translate(0 0)"/><path class="cls-4" d="M437.78,314.77c2.13,9.79,2.11,9.71-7.85,11.66-5.14,1-10.21,2.36-15.31,3.56-2.19.58-4.38,1.2-6.59,1.73-1.06.25-2.4.89-3-.64-.51-1.31.73-2,1.39-2.88a11,11,0,0,1,5.18-3.57c5.12-2,5.55-5.29,3.61-9.68l20.44-5.77C436.37,311,437.08,312.91,437.78,314.77Z" transform="translate(0 0)"/><path class="cls-9" d="M539.56,526.52c-5,6.69-12,10.8-19.18,14.38-12.4,6.2-25.67,9.74-39.68,9.19-23.81-.93-43.82-10.26-60.17-27.59-8.17-8.67-12.68-19.58-18.46-29.71-.92-1.61-.8-3.84-1.1-5.79-3.19-20.39-2.63-40.33,7.5-59,10.27-18.91,25.19-32.31,45.63-39.86a80.18,80.18,0,0,1,41-4.22c22.42,3.64,41.05,14.54,54.61,33.32,17.43,24.14,20.17,50.43,11.22,78.19-2.5,7.75-7.12,14.74-11.58,21.63-3,.46-4.78-1.74-6.9-3.1a56.77,56.77,0,0,0-9.49-5.27c-1.07-.42-2.19-1.09-3.25-.17-1.21,1.05-.78,2.42-.35,3.67.84,2.41,2.72,4.09,4.25,6C535.71,520.89,538.78,522.89,539.56,526.52Z" transform="translate(0 0)"/><path class="cls-23" d="M238.52,613c-.32-10.77-.45-21.55-1-32.31-.58-11.11-2-22.17-2.28-33.27-.46-20.1-1.92-40.13-3.24-60.17-.17-2.64,0-5.31,0-8,4.87.37,8.07,4,11.84,6.35,11.79,7.42,23.24,15.38,35.12,22.68,2.55,1.57,4.73,3.64,7.23,5.29,3,2,5.5,2.09,8.64,0q13.68-9.12,27.48-18.07c1.54-1,3-3,5.24-1.25-2.21,6.33-4.61,12.6-6.61,19A115.64,115.64,0,0,0,318,571.72c1,4.67,1.19,9.49,1.75,14.24a5.17,5.17,0,0,1,.42,2.42c.31,4.77.33,4.73-4.5,3.7a32.46,32.46,0,0,0-9.93-.3c-19.25,1.83-38.53.56-57.79.86-6.55.1-6.56,0-6.63,6.67a89.4,89.4,0,0,1-.17,10C241,610.82,241.39,613.19,238.52,613Z" transform="translate(0 0)"/><path class="cls-22" d="M327.55,494.3c-6.11,2.16-10.79,6.7-16.21,10-6.28,3.82-12.3,8.08-18.41,12.17-1.81,1.22-3.3.74-5-.41q-11.87-8-23.87-15.89C255,494.23,246,488.23,236.7,482.65c-1.69-1-2.57-3.07-4.7-3.34l-.33-12.72c.05-4,.09-8,.15-11.95,0-1.69.09-4,2.56-2.8,3.6,1.73,7.09.54,10.64.54,13.12,0,26.24.06,39.35-.05,4.88,0,8.52,2.76,12,5.3,9.33,6.82,18.29,14.13,28.17,20.18.79.48,1.39,1.43,2.62,1,.42-2.07-1-2.92-2.26-4q-9.39-7.69-18.66-15.51c-1.37-1.16-3-2.48-2.31-4.58.79-2.29,3-2.45,5-2.36,7.27.33,14.52-.29,21.83.54,4.23.47,8.74-1.24,13.2-.46C339.35,466.76,333.09,480.39,327.55,494.3Z" transform="translate(0 0)"/><path class="cls-23" d="M238.52,613c2.67-3.55,1.11-7.61,1.19-11.4.24-10.48.09-10.48,10.29-10.48,14.76,0,29.52.1,44.27,0,6.76-.07,13.47-1.45,20.27-1,1.8.12,3.73-.27,5.23,2V586c2.64,5.81,2.09,12.22,3.29,18.3,1.76,8.91,6.53,15,14.59,18.85l-93.6-.09a111.22,111.22,0,0,0-12.67-4.95c-2.58-.75-3.13-2.63-1.61-5Z" transform="translate(0 0)"/><path class="cls-9" d="M603.28,601.13c-3.85-4.08-9.39-5.46-13.79-8.68a46.17,46.17,0,0,0-5.06-2.83c-3.45-1.26-2.27-3.23-.9-5.36q9.33-14.58,18.58-29.2a9.55,9.55,0,0,1,4.27,8.41c-.08,4.6,2.77,8.35,4.22,12.51s3.08,8,3.66,12.27c.23,1.7.62,3.7-1.13,5.08C609.42,595.4,608,600.35,603.28,601.13Z" transform="translate(0 0)"/><path class="cls-33" d="M539.56,526.52c-4.15-4.65-9.14-8.6-11.68-14.58-.71-1.68-1.26-3.22,0-4.59,1.53-1.61,3.18-.66,5,0,6.06,2.3,11,6.46,16.45,9.69,1.71,1.75,3.77,3.28,5,5.3,1.78,2.81,2,6-.72,8.53s-5.81,2.1-8.61.39C543,530,541.38,528.13,539.56,526.52Z" transform="translate(0 0)"/><path class="cls-2" d="M621.19,470.56c4.22,8.54,10.51,15.72,15.73,23.6,1.48,2.23,1.93,3.53.2,5.89-2.59,3.52-4.56,7.49-6.8,11.26-1.15.26-2.44,3-3.15-.76-2.26-12-5-23.89-7.39-35.86C619.51,473.33,617.78,470.9,621.19,470.56Z" transform="translate(0 0)"/><path class="cls-2" d="M649.16,542.42c.72,14.74-2.38,29.11-4.27,43.6-.29,2.28-.5,4.57-.75,6.84-2.17-10.4-4.29-20.8-6.54-31.18-.5-2.27,1.15-3.65,1.66-5.49Z" transform="translate(0 0)"/><path class="cls-23" d="M207.9,623.07H152.81c-.51-3.25-1-6.49,1.18-9.4,4.21.36,6.17-1.31,7.12-5.73,4.4-20.47,9.19-40.85,13.92-61.24.74-3.21,1.88-6.32,2.83-9.48.4-.29,1.07-.68,1.31-.38,3.28,4.06,7.81,2.93,12.09,3.13,4.47.22,9,.65,10.4,6.21.47,19.87,1,39.73,1.35,59.6.07,3.72.87,6.53,5.14,7C211.22,616.28,209.05,619.66,207.9,623.07Z" transform="translate(0 0)"/><path class="cls-23" d="M201.66,546.18c-3.72-5.62-9.55-5.37-15.07-4.8-3.43.35-6,.65-7-3.35-.11-.39-1.11-.54-1.7-.81-.21-5.93,2.28-11.34,3.67-16.9,4.58-18.44,8.87-37,14.62-55.11.49-1.55.53-3.67,3.46-4.73C200.5,489.28,202.13,517.7,201.66,546.18Z" transform="translate(0 0)"/><path class="cls-9" d="M154,613.67c-.41,3.13.44,6.42-1.18,9.4-1.92,1.28-4.11,1.07-6.22,1-10-.54-20,1.23-29.95-1,2-3.69,5.85-4,9.21-5.18,2.51-1,3.92-3.28,6-4.81A190.93,190.93,0,0,1,154,613.67Z" transform="translate(0 0)"/><path class="cls-18" d="M207.9,623.07c-.6-3.45,1.27-6.84.25-10.3l21.62.35c-.24,2.41.22,3.67,3.2,4.29,4,.84,8.49,1.59,11.08,5.61-.12.32-.23.65-.34,1-10,0-20,0-30,.09A22.49,22.49,0,0,1,207.9,623.07Z" transform="translate(0 0)"/><path class="cls-34" d="M131.81,613.07c-.47,3.49-2.7,4.79-6,4.81,1.94-1.79.89-4.22,1.37-6.32C128.44,613,130.21,612.8,131.81,613.07Z" transform="translate(0 0)"/><path class="cls-1" d="M696.81,605.77c-3.51,1.28-4.08,3.45-3,6.66,1.13,3.52-.14,5.81-4.32,5.68-3.48-.1-7,0-10.43-.09a2.36,2.36,0,0,1-2.51-2c-.29-1.67,1.07-1.59,2.13-2a12.44,12.44,0,0,0,4.6-2.75c1.62-1.86,1.77-4.76-1.31-4.63-3.35.14-2.95-1.6-2.5-3.2.87-3.09-1-6.65,1.8-9.46,1.72.19,1.58,2,1.69,2.92.47,3.77,1.46,6.26,5.9,4,1.19-.6,1.92.16,2.35,1.11C692.18,604.25,694.52,604.5,696.81,605.77Z" transform="translate(0 0)"/><path class="cls-2" d="M531.69,467c1.53,25.2-22.45,49.48-50.2,48.92-26.81-.54-49.43-23.54-48.74-50,.73-28,22.29-49.25,50.48-49.1C509.24,416.92,532.77,438.5,531.69,467Z" transform="translate(0 0)"/><path class="cls-35" d="M548.61,475.48c-5,.75-9.61-4.49-9.73-9.63-.13-5,4.88-10.21,9.74-10.07,4,.12,10.38,4.06,9.87,10.33C558,471.61,554.22,475.54,548.61,475.48Z" transform="translate(0 0)"/><path class="cls-36" d="M482.73,542.39a9.63,9.63,0,1,1-.56-19.25c5.84-.15,10.22,3.94,10.24,9.56A9.65,9.65,0,0,1,482.73,542.39Z" transform="translate(0 0)"/><path class="cls-37" d="M416.52,475.5c-5.72,0-9.44-3.71-9.51-9.56a9.83,9.83,0,0,1,9.25-10.23c4.87-.19,10.15,5.12,10.15,10.2S421.85,475.46,416.52,475.5Z" transform="translate(0 0)"/><path class="cls-36" d="M519.43,419.69a9.69,9.69,0,1,1,19.37-.08,9.49,9.49,0,0,1-9.69,9.68C523.5,429.17,519.46,425.16,519.43,419.69Z" transform="translate(0 0)"/><path class="cls-36" d="M482.18,391c5.94-.08,10.26,3.93,10.23,9.5,0,5-4.71,9.67-9.82,9.75a10.06,10.06,0,0,1-9.95-9.51A9.39,9.39,0,0,1,482.18,391Z" transform="translate(0 0)"/><path class="cls-33" d="M436.22,428.85c-6.23,0-9.71-3.41-9.7-9.42a9.43,9.43,0,0,1,9.56-9.79,9.78,9.78,0,0,1,9.81,9.64C446,425.05,442.13,428.88,436.22,428.85Z" transform="translate(0 0)"/><path class="cls-36" d="M444.82,517.38c-2,2.48-3.69,5.28-7.2,5.86-4.75.79-8.55-.82-10.39-5.27-1.64-4-1.82-8.41,1.89-11.37,4.36-3.48,6.34-4.53,11.95-1.32a7.49,7.49,0,0,1,3.6,3.92C445.77,511.91,446.67,514.62,444.82,517.38Z" transform="translate(0 0)"/><path class="cls-38" d="M444.82,517.38l-.15-8.18C446.93,511.89,447.5,514.61,444.82,517.38Z" transform="translate(0 0)"/></svg>