<svg id="Background_Image" data-name="Background Image" xmlns="http://www.w3.org/2000/svg" viewBox="0 0 757.37 725.25"><defs><style>.cls-1{fill:#ddc44a;}.cls-2{fill:#f9db5d;}.cls-3{fill:#07172c;}.cls-4{fill:#0c2847;}.cls-5{fill:#c6a70c;}.cls-6{fill:#f3cf07;}</style></defs><path class="cls-1" d="M253.57,227.74c-13.45,17.42-29.19,31.34-52.19,34.24-6.26.8-12.18-.68-18.38-2.43-.54,3.39,1.08,6.25,1.55,9.25,3.54,22.77-6,40.39-21.76,55.55-11.22,10.79-24.48,16.33-40.21,15.42-5.31-.3-10.62-.55-15.93-.83-3.36-4.33-4.55-9.59-6-14.66Q72.89,230.52,45.32,136.72c-.51-1.75-1.27-3.45-.85-5.35a2.71,2.71,0,0,1,1.79-.78c17.65.22,30.53-10.14,43.69-19.77,5.38-3.94,10-8.74,14.67-13.54,1.48-1.28,2.7-3,4.86-3.2,4.17,1.26,6.87,4.67,9.79,7.44q17.37,16.49,35,32.65c17.72,16.34,35.2,32.93,52.9,49.28,12.7,11.73,25.56,23.3,37.74,35.57C247.81,221.92,252.11,223.45,253.57,227.74Z"/><path class="cls-2" d="M253.57,227.74c-8.11-5.33-14.28-12.86-21.47-19.23-13.16-11.66-25.62-24.11-38.44-36.16q-23-21.65-46.17-43.15c-11.79-10.94-23.69-21.76-35.56-32.6a31.1,31.1,0,0,0-2.78-2c-.78-2.37,1.06-3.65,2.2-5.18,5.84-7.83,11.45-15.79,15.74-24.63,4.1-8.47,7-17.13,5.78-26.73a2.68,2.68,0,0,1,.62-2.31c10.76.16,20.85,3.84,31.19,6.09q68.1,14.82,136.11,30c12.31,2.74,24.52,5.88,36.75,9,2.85.72,5.91,1.13,8.23,3.27,1.12,10.05,2.87,20,1,30.24-5.48,30.06-35.1,53-65.53,50.41a24.89,24.89,0,0,1-3.45-.47c-7.43-1.65-7.71-1.61-6.2,5.68,4.2,20.17-2.58,37.31-14.14,53.24-1.06,1.47-2,3-3,4.54C254.14,227.66,253.85,227.69,253.57,227.74Z"/><path class="cls-3" d="M105.44,97.45a117.92,117.92,0,0,1-42.95,31.63,30.33,30.33,0,0,1-18,2.29Q31.93,94.83,19.39,58.3,10,31,.48,3.67C.07,2.5-.41,1.62.6.56S2.36.1,3.29.49s2.16.84,3.24,1.25c5.78,3.47,10.24,8.54,15,13.08C35,27.54,48.53,40.07,62,52.75,74.89,65,87.71,77.32,101,89.21,103.25,91.26,107.43,92.84,105.44,97.45Z"/><path class="cls-4" d="M105.44,97.45c.28-3.87-2.92-5.6-5.23-7.36-7.29-5.56-13.28-12.48-20.06-18.57C65.23,58.11,51,43.9,36.41,30.14c-10-9.43-20.75-18-29.88-28.4C32.44,8.5,58.29,15.44,84.26,22c16.54,4.15,33,8.59,49.23,13.74,2.54,8.86.13,17.14-3.2,25.2-4.48,10.83-11,20.46-18.24,29.63-1,1.3-1.93,2.68-2.9,4Z"/><path class="cls-5" d="M620.89,571.61Q595.81,548,570.74,524.48,546.4,501.61,522,478.75l-50.14-47.13L422.1,384.83,372.67,338.4,323.25,292c-16.48-15.47-32.76-31.17-49.53-46.32-6.54-5.9-12.4-12.52-19.3-18a4.87,4.87,0,0,1-.13-.59l-.23,0a3.2,3.2,0,0,0-1.38.59c-9.21,9.82-18.12,20-30.28,26.47-10.93,5.84-22.3,8.47-34.62,5.42-5.84-1.45-6.9-.35-5.49,5.71a53.14,53.14,0,0,1,1.47,18.27c-1.79,15.57-9.68,27.88-20.38,38.51-8,7.95-17.28,14.18-28.89,15.73a103,103,0,0,1-22.41.15c-1.9-.16-4-1.11-5.43,1.08,5.65,6.8,12.52,12.37,18.92,18.4Q266.67,490,407.83,622.68L517.09,725.25,642.27,591.68Z"/><path class="cls-6" d="M273.72,245.65c16.77,15.15,33,30.85,49.53,46.32l49.42,46.43,49.43,46.43,49.79,46.79L522,478.75q24.35,22.88,48.71,45.73,25.08,23.55,50.15,47.13l21.38,20.07,115.1-122.81q-94.22-88.32-188.51-176.55Q471.48,201.15,374.08,110c-9.36-8.75-18.87-17.34-28.31-26-2.43,3.31-.55,6.75-.07,10a60.84,60.84,0,0,1-37,64.78c-10.79,4.39-21.71,5.93-33.16,3.4-4.52-1-6.18.63-5.72,5.29.1,1,.26,2,.43,3,2.12,12.62,1.1,24.8-4.63,36.47a119.42,119.42,0,0,1-8.94,15c-1.09,1.59-2.67,3-2.35,5.19a4.87,4.87,0,0,0,.13.59C261.32,233.13,267.18,239.75,273.72,245.65Z"/></svg>