<?xml version="1.0" encoding="utf-8"?>
<!-- Generator: Adobe Illustrator 25.2.1, SVG Export Plug-In . SVG Version: 6.00 Build 0)  -->
<svg version="1.1" id="Background_xA0_Image_1_" xmlns="http://www.w3.org/2000/svg" xmlns:xlink="http://www.w3.org/1999/xlink"
	width='32' height='32' x="0px" y="0px" viewBox="0 0 591.4 878.5" style="enable-background:new 0 0 591.4 878.5;" xml:space="preserve">
<style type="text/css">
	.st0{fill:#DDC44A;}
	.st1{fill:#F9DB5D;}
	.st2{fill:#07172C;}
	.st3{fill:#0C2847;}
	.st4{fill:#C6A70C;}
	.st5{fill:#F3CF07;}
</style>
<g>
	<path class="st0" d="M189.2,304.8c-18.7,11.6-38.3,19.2-60.9,13.9c-6.1-1.4-11.2-4.9-16.4-8.7c-1.7,3-1.2,6.2-1.8,9.2
		c-4.6,22.6-19.7,35.8-39.8,44.5c-14.3,6.2-28.6,6.8-43.1,0.4c-4.9-2.1-9.8-4.2-14.6-6.3c-1.6-5.2-0.9-10.6-0.5-15.9
		c4.5-65,9.1-130,13.6-195.1c0.1-1.8,0-3.7,1.1-5.3c0.6-0.2,1.3-0.3,2-0.1c16.5,6.4,32.1,1.1,47.8-3.3c6.4-1.8,12.5-4.7,18.5-7.6
		c1.8-0.7,3.6-1.8,5.7-1.3c3.5,2.6,4.8,6.8,6.6,10.4c7,14.3,14.2,28.6,21.4,42.8c10.9,21.5,21.5,43.1,32.4,64.6
		c7.8,15.4,15.8,30.8,23,46.5C185.9,297.3,189.4,300.2,189.2,304.8z"/>
	<path class="st1" d="M189.2,304.8c-5.7-7.8-8.9-17-13.4-25.5c-8.3-15.5-15.6-31.5-23.4-47.3c-9.4-18.9-18.7-37.7-28.2-56.6
		c-7.2-14.4-14.6-28.7-22-43c-0.5-1-1.3-1.9-1.9-2.9c0.1-2.5,2.3-3,3.9-4.1c8.2-5.3,16.2-10.8,23.3-17.6c6.8-6.5,12.6-13.6,14.7-23
		c0.2-0.8,0.6-1.5,1.4-1.9c10,3.9,18.2,10.9,27.1,16.6c39.1,25.1,78.1,50.3,117.1,75.6c10.6,6.9,20.9,14.1,31.3,21.2
		c2.4,1.7,5.1,3.1,6.6,5.9c-2.5,9.8-4.3,19.8-9.6,28.7c-15.6,26.3-51.4,37.4-79,24.4c-1-0.5-2.1-1-3.1-1.7c-6.4-4.1-6.7-4.2-7.8,3.2
		c-3.1,20.4-15.4,34.1-31.8,45c-1.5,1-3,2.1-4.4,3.2C189.8,304.9,189.5,304.8,189.2,304.8z"/>
	<path class="st2" d="M95.9,131c-16,8.9-33.1,13.6-51.3,14.7c-6.3,0.4-12.2-0.9-17.7-4.1c0.7-25.7,1.4-51.5,2-77.2
		c0.5-19.3,0.9-38.5,1.3-57.8c0-1.2-0.1-2.2,1.2-2.9C32.6,3,33.2,3.8,34,4.5c0.8,0.8,1.7,1.5,2.6,2.3c4.2,5.3,6.6,11.6,9.5,17.5
		c8.1,16.6,16.5,33.1,24.6,49.6c7.9,16,15.6,32,23.8,47.8C96,124.4,99.3,127.4,95.9,131z"/>
	<path class="st3" d="M95.9,131c1.6-3.5-0.8-6.3-2.3-8.7c-4.9-7.8-8.1-16.3-12.3-24.4c-9.3-17.8-17.7-36-26.5-54
		c-6.1-12.3-13.2-24.2-18.1-37c21.9,15.4,43.7,30.9,65.8,46.1c14,9.7,27.9,19.6,41.3,30.1c-0.7,9.2-5.9,16.1-11.8,22.5
		c-8,8.6-17.5,15.3-27.4,21.4c-1.4,0.9-2.7,1.8-4.1,2.8C98.9,130,97.4,130.5,95.9,131z"/>
	<g>
		<path class="st4" d="M413.5,755.2c-10.2-20.6-20.4-41.1-30.5-61.7c-9.9-20-19.8-39.9-29.7-59.9c-10.2-20.6-20.4-41.1-30.5-61.7
			c-10.1-20.4-20.2-40.8-30.3-61.2c-10-20.3-20.1-40.5-30.1-60.8c-10-20.3-20.1-40.5-30.1-60.8c-10-20.3-19.8-40.6-30.2-60.7
			c-4.1-7.8-7.3-16.1-11.8-23.6c0-0.2,0-0.4,0.1-0.6c-0.1,0-0.1-0.1-0.2-0.1c-0.5-0.1-1-0.1-1.5,0.1c-12.1,6-24,12.4-37.6,14.2
			c-12.3,1.7-23.9,0.2-34.3-7c-5-3.4-6.3-2.7-7.1,3.4c-0.8,6.1-2.1,12-5,17.6c-7.1,14-18.8,22.7-32.5,29
			c-10.3,4.7-21.1,7.3-32.6,4.7c-7.3-1.7-14.3-4.5-21-7.7c-1.7-0.8-3.3-2.4-5.5-0.9c2.9,8.4,7.4,16,11.3,23.9
			C81.3,497.3,138.6,613,196,728.7c22.2,44.8,44.4,89.5,66.6,134.2l163.9-81.5C422.1,772.7,417.8,764,413.5,755.2z"/>
		<path class="st5" d="M201.9,328.6c10.4,20,20.2,40.4,30.2,60.7c10,20.3,20.1,40.5,30.1,60.8c10,20.3,20.1,40.5,30.1,60.8
			c10.1,20.4,20.2,40.8,30.3,61.2c10.2,20.6,20.4,41.1,30.5,61.7c9.9,20,19.8,39.9,29.7,59.9c10.2,20.6,20.4,41.1,30.5,61.7
			c4.3,8.8,8.7,17.5,13,26.3l150.7-74.9c-38.3-77.1-76.7-154.2-115.1-231.2c-39.6-79.6-79.3-159.2-118.9-238.8
			c-5.7-11.5-11.6-22.8-17.5-34.3c-3.4,2.2-2.9,6.1-3.5,9.3c-5.7,27-29.7,46.9-57.3,47.8c-11.6,0.4-22.4-2-32.3-8.4
			c-3.9-2.5-6-1.6-7.2,3c-0.3,1-0.4,1.9-0.6,2.9c-2.4,12.6-7.6,23.6-17.1,32.6c-4.3,4-8.8,7.6-13.6,10.9c-1.6,1.1-3.6,1.9-4,4
			c0,0.2-0.1,0.4-0.1,0.6C194.6,312.5,197.8,320.8,201.9,328.6z"/>
	</g>
</g>
</svg>
