<svg id="Rounded_Rectangle_1_Image" data-name="Rounded Rectangle 1 Image" xmlns="http://www.w3.org/2000/svg" viewBox="0 0 328.49 221.82"><defs><style>.cls-1{fill:#f3cf07;}.cls-2{fill:#065b41;}.cls-3{fill:#21dba6;}.cls-4{fill:#1a60a0;}.cls-5{fill:#ff5941;}.cls-6{fill:#bc3628;}.cls-7{fill:#cad0db;}.cls-8{fill:#09916a;}.cls-9{fill:#07172c;}.cls-10{fill:#091e35;}.cls-11{fill:#2ba4ef;}.cls-12{fill:#08294c;}.cls-13{fill:#f2c2c4;}.cls-14{fill:#bfa316;}.cls-15{fill:#071f38;}.cls-16{fill:#f9766c;}.cls-17{fill:#c597ac;}.cls-18{fill:#d01c29;}.cls-19{fill:#e85f5c;}.cls-20{fill:#0f354c;}.cls-21{fill:#0b4b84;}.cls-22{fill:#e0ecfa;}.cls-23{fill:#d4dff9;}.cls-24{fill:#cddcfb;}.cls-25{fill:#f97465;}.cls-26{fill:#3e41b2;}.cls-27{fill:#3d43a4;}.cls-28{fill:#e1ebfa;}.cls-29{fill:#e1eefc;}.cls-30{fill:#7d7f1d;}.cls-31{fill:#313ad4;}.cls-32{fill:#2623c4;}.cls-33{fill:#322ece;}.cls-34{fill:#3f44ab;}.cls-35{fill:#3e43a4;}.cls-36{fill:#eac8c5;}.cls-37{fill:#092647;}.cls-38{fill:#ccac0d;}.cls-39{fill:#071f3a;}.cls-40{fill:#f0a09f;}.cls-41{fill:#f29c93;}.cls-42{fill:#e95d56;}.cls-43{fill:#6d8cdb;}.cls-44{fill:#6b8bd6;}.cls-45{fill:#c9c941;}.cls-46{fill:#e1ebfc;}.cls-47{fill:#d2dcfb;}.cls-48{fill:#d8e5f8;}.cls-49{fill:#362fd4;}.cls-50{fill:#2c31cb;}.cls-51{fill:#4449ad;}.cls-52{fill:#e2fefe;}.cls-53{fill:#ecfefe;}.cls-54{fill:#e9fdfe;}.cls-55{fill:#e4fefe;}.cls-56{fill:#eaf8fe;}.cls-57{fill:#2f2db2;}.cls-58{fill:#0c8462;}.cls-59{fill:#f2bbbf;}.cls-60{fill:#394ebd;}.cls-61{fill:#5a3fa9;}.cls-62{fill:#9677dc;}.cls-63{fill:#e0eafb;}.cls-64{fill:#c3cae9;}.cls-65{fill:#e5311f;}.cls-66{fill:#14476d;}.cls-67{fill:#95677d;}.cls-68{fill:#95b8f6;}.cls-69{fill:#92b3f9;}.cls-70{fill:#95b0f1;}.cls-71{fill:#90b0fb;}.cls-72{fill:#90b1fb;}.cls-73{fill:#94b0f1;}.cls-74{fill:#8fb2f9;}.cls-75{fill:#90b2f9;}.cls-76{fill:#89a8fa;}.cls-77{fill:#88a6fa;}.cls-78{fill:#89a6fb;}.cls-79{fill:#89a7f9;}.cls-80{fill:#88a7fa;}.cls-81{fill:#89a7f8;}.cls-82{fill:#8aa6f7;}.cls-83{fill:#89a6f8;}.cls-84{fill:#8aa7f6;}.cls-85{fill:#082c4c;}.cls-86{fill:#ccdafc;}.cls-87{fill:#cfdef9;}.cls-88{fill:#d4ddf9;}.cls-89{fill:#d1dff9;}.cls-90{fill:#d0ddfc;}.cls-91{fill:#21201d;}.cls-92{fill:#cbd9fb;}.cls-93{fill:#8ba7f7;}.cls-94{fill:#2b26db;}.cls-95{fill:#2b2bdf;}.cls-96{fill:#93aef7;}.cls-97{fill:#6f74ab;}.cls-98{fill:#3a3f9f;}.cls-99{fill:#93b3f9;}.cls-100{fill:#90b1f7;}.cls-101{fill:#90b3f8;}.cls-102{fill:#8fb3f9;}.cls-103{fill:#90aff8;}.cls-104{fill:#91b3f8;}.cls-105{fill:#8eb4fe;}.cls-106{fill:#8db4fe;}.cls-107{fill:#ebeffb;}.cls-108{fill:#97b3f2;}.cls-109{fill:#88a7f9;}.cls-110{fill:#8ba9f5;}.cls-111{fill:#94a8e7;}.cls-112{fill:#92b3f8;}.cls-113{fill:#91aff7;}.cls-114{fill:#8fb3f8;}.cls-115{fill:#92b1f6;}.cls-116{fill:#91aff8;}.cls-117{fill:#91b0f6;}.cls-118{fill:#88a7f4;}.cls-119{fill:#8ca5f6;}.cls-120{fill:#88a7f6;}.cls-121{fill:#89a6f7;}.cls-122{fill:#074f39;}.cls-123{fill:#30331e;}.cls-124{fill:#5b561f;}.cls-125{fill:#d0dbfb;}.cls-126{fill:#cfdef8;}.cls-127{fill:#d0dbfd;}.cls-128{fill:#d2defb;}.cls-129{fill:#d2ddfc;}.cls-130{fill:#e6effa;}.cls-131{fill:#8aa6f8;}.cls-132{fill:#8ba6f7;}.cls-133{fill:#8ba5f8;}.cls-134{fill:#8ca4f3;}.cls-135{fill:#87a8f8;}.cls-136{fill:#89a8f8;}.cls-137{fill:#88a8f8;}.cls-138{fill:#88a7f8;}.cls-139{fill:#89a8f9;}.cls-140{fill:#88a8f6;}.cls-141{fill:#87a8fa;}.cls-142{fill:#88a8f7;}.cls-143{fill:#89a8f6;}.cls-144{fill:#87a8f4;}.cls-145{fill:#88a8f2;}.cls-146{fill:#89a8f2;}.cls-147{fill:#8aa6f9;}.cls-148{fill:#89a6f9;}.cls-149{fill:#8ba8f3;}.cls-150{fill:#4f172a;}.cls-151{fill:#89a7f6;}.cls-152{fill:#89a6f5;}.cls-153{fill:#8aa7f7;}.cls-154{fill:#8aa6f4;}.cls-155{fill:#87a8f3;}.cls-156{fill:#88a6f5;}.cls-157{fill:#8aa7f8;}.cls-158{fill:#89a7f2;}.cls-159{fill:#89a7f1;}.cls-160{fill:#88a8f1;}</style></defs><path class="cls-1" d="M40.08,170.24c-1.77-2.54-3.95-4.79-5.45-7.51-1.91-3.49-3.23-7.12-2-11.16a15,15,0,0,1,3-5.34c2.72-3.13,4.25-6.6,3.17-10.8a8.87,8.87,0,0,0-2.12-3.66c-1.49-1.65-3.25-3-4.76-4.68a18.09,18.09,0,0,1-3.87-7.28c-1.5-5.11-1-10.17.41-15.21a21.73,21.73,0,0,1,4-7.63,6.14,6.14,0,0,1,4-2.43c.93-.12.9-.41.61-1.14a105.78,105.78,0,0,1-4.38-12.58c-1-3.95-2.1-7.89-2.9-11.89a85,85,0,0,1-1.6-10.45c-.21-2.86-.46-5.7-.44-8.57A24.29,24.29,0,0,1,29,42.77a8.3,8.3,0,0,1,6.63-5.43,21.93,21.93,0,0,1,8,1.2c3.77,1.08,11.22,5.7,11.76,5.62a46.61,46.61,0,0,1,5.92,4.56c.89.74-.19,1.13-.33,1.69a3.72,3.72,0,0,1-1.27,1.06c-2.49,1.64-4.94,3.35-7.41,5-.38.26-.86.5-.72,1.11a1.24,1.24,0,0,0,1.14.91c1.68.29,3.39.44,5.08.67a1.88,1.88,0,0,1,1.31.46C60.82,62.7,62.2,65.9,63.7,69a1.53,1.53,0,0,1,.22,1.25c-1.69,2-3.22,4-4.81,6.09-2.65,3.4-5.27,6.81-8,10.12-.84,1-1.62,2.07-2.41,3.12-.56.75-.42,1.29.37,1.76a4.53,4.53,0,0,0,2.4.64c1.67,0,3.35,0,5,0,.55,0,1.16-.06,1.39.66a7.6,7.6,0,0,1,.12,1.9c0,12.25,0,24.5,0,36.75,0,8.3.05,16.59,0,24.88a4.16,4.16,0,0,1-1,3.1,2.68,2.68,0,0,0-.47,2q0,7.84,0,15.68a8.72,8.72,0,0,1-.1,1.91c-.28.8-.89.65-1.48.47a27.52,27.52,0,0,1-6.13-2.65,56.74,56.74,0,0,1-6.34-4.22C41.6,171.86,40.9,171,40.08,170.24Z" transform="translate(-27.23 -16.67)"/><path class="cls-2" d="M263,205.33c2.27,23.5-32,18.35-34.82.82,14,45.84-53.62,28.45-42,1.23,3,11.32-46.25,42.19-56.07.92-.66-2.78.51-5.42,1.28-8,1.12-3.77,5.83-11.16,5.75-11.7a46,46,0,0,1,4.63-5.86c.75-.89,1.12.19,1.68.34a3.62,3.62,0,0,1,1,1.28c1.62,2.51,3.29,5,4.94,7.47.25.38.48.86,1.1.72a1.2,1.2,0,0,0,.92-1.12c.31-1.68.47-3.39.72-5.08a1.88,1.88,0,0,1,.49-1.3c3.07-1.63,6.28-3,9.44-4.44a1.49,1.49,0,0,1,1.25-.21c1.95,1.71,4,3.27,6,4.88,3.37,2.68,6.75,5.35,10,8.13,1,.85,2.05,1.65,3.09,2.44.74.57,1.29.44,1.77-.35a4.68,4.68,0,0,0,.67-2.39c0-1.67,0-3.35.06-5,0-.55,0-1.16.67-1.38a7.19,7.19,0,0,1,1.91-.1c12.25.13,24.5.24,36.75.42,8.29.11,16.58.13,24.87.25a4.13,4.13,0,0,1,3.09,1,2.72,2.72,0,0,0,2,.5L270,189a8,8,0,0,1,1.9.12c.81.29.64.89.46,1.48a27.58,27.58,0,0,1-2.72,6.1,55.81,55.81,0,0,1-4.29,6.29C264.6,203.83,263.73,204.52,263,205.33Z" transform="translate(-27.23 -16.67)"/><path class="cls-3" d="M112.72,25a6.84,6.84,0,0,0,3.09-1.48A36.34,36.34,0,0,1,128,18,52.15,52.15,0,0,1,137,16.74a79.27,79.27,0,0,1,8.45.12,56.73,56.73,0,0,1,14,2.34,49.77,49.77,0,0,1,9.67,4.12,90.22,90.22,0,0,1,9.41,6.3c1.76,1.31,3.56,2.56,5.4,3.77,2.7,1.77,5.39,3.56,8.24,5.06a37.51,37.51,0,0,0,4.75,1.8,42.84,42.84,0,0,0,8.28,2,24.7,24.7,0,0,0,3.42.39c2.55.06,5.11,0,7.66,0,3.16,0,10.81-1.24,11.56-1.21.14.29.49.57.05.91-2.24.87-2.17.86-2,3.36s.16,4.78.33,7.17c.1,1.39,0,2.79.2,4.18a2.1,2.1,0,0,1-.27,1.72c-1.63.57-3.31.18-5,.28-2-.11-4.06-.06-6.1,0a4.54,4.54,0,0,1-2.69-.77c-5.84-3.89-11.83-7.55-17.72-11.37-1.4-.91-2.79-1.84-4.22-2.72a1.74,1.74,0,0,0-2,0c-3.24,1.88-6.43,3.86-9.65,5.77-4.7,2.79-9.43,5.52-14.12,8.33-.89.53-1.82,1-2.65,1.62A6.16,6.16,0,0,1,157.79,61a13.94,13.94,0,0,0-2,0c-6.1,0-12.21,0-18.32,0a6.43,6.43,0,0,1-1.31-.1A27,27,0,0,0,131,60.8a12.12,12.12,0,0,1-3-.15.66.66,0,0,1-.3-.27,1.11,1.11,0,0,1,0-.7c1.59-7.62,0-14.69-3.54-21.49A35.59,35.59,0,0,0,115,26.82C114.24,26.2,113.14,26,112.72,25Z" transform="translate(-27.23 -16.67)"/><path class="cls-4" d="M160.46,195c-8.12,0-16.24,0-24.37,0-.93,0-.65.67-1,1a6.83,6.83,0,0,1-2.3-4c-.05-1.4-.06-2.79,0-4.18a3.5,3.5,0,0,0-1.58-3.49,1.19,1.19,0,0,1-.5-.66c-.27-2.91-.07-5.82-.11-8.74,0-.47,0-.95,0-1.43a2.43,2.43,0,0,1,.31-1.37q1.18-2.85,2.27-5.75c.57-1.51.33-1.82-1.25-1.95a1.37,1.37,0,0,1-1.09-.36,5.64,5.64,0,0,1-.2-2.48,3.66,3.66,0,0,0-1.07-3.05,1.2,1.2,0,0,1-.33-.63,8.24,8.24,0,0,1-.1-1.79V98.74c0-2.66.08-2.73,2.77-2.73h28.51c2.17,0,2.35.18,2.36,2.3v61.2a11.61,11.61,0,0,1-.08,2c-1.16,1.88-.89,4-.89,6q0,10,0,20.11a5.82,5.82,0,0,1-.47,2.56c-.48,1-.17,2.12-.26,3.19C161,194,161.22,194.68,160.46,195Z" transform="translate(-27.23 -16.67)"/><path class="cls-5" d="M316.51,73.41c1.7,2.6,9.86,13.08,11,14.84.8,1.2.57,2-.68,2.65s-2.94.67-4.44.77-3.28,0-4.91.06c-2.48,0-4.95,0-7.42,0s-4.93.09-7.4,0c-8.41-.19-16.82,0-25.23,0-5.58,0-11.15,0-16.73,0a7.55,7.55,0,0,1-1.78-.1c-.46-.14-.49-.37-.3-.81.79-1.72.76-1.85-.47-3.11a61.78,61.78,0,0,0-5.44-3.68c-5.05-3.28-10.13-6.5-15.21-9.74-2.66-1.69-5.34-3.34-8-5.08-2.19-1.45-4.45-2.79-6.66-4.22-.44-.29-1-.54-.87-1.28.24-.48.7-.48,1.14-.52s1,0,1.43,0c9.14.11,18.28-.12,27.42-.33,6.1-.13,12.21,0,18.31-.27,2-.11,4.06-.09,6.08-.08,7.59.06,15.17-.35,22.75-.32,2.87,0,5.74-.14,8.6-.13a.92.92,0,0,1,1,.39C311.4,66,316.51,73.29,316.51,73.41Z" transform="translate(-27.23 -16.67)"/><path class="cls-4" d="M178,194.93l-4.31,0c-.7-.18-.56-.79-.59-1.26a23.77,23.77,0,0,0-.15-2.39,1.7,1.7,0,0,0-1-1.52c-.72-.29-.58-1-.58-1.55,0-7.51,0-15,0-22.52,0-1.6-.19-3-1.48-4.1-.34-1.4,0-2.83-.16-4.25a25.38,25.38,0,0,1,.11-5.84,13.77,13.77,0,0,0,0-3.57c0-.4-.13-.79-.13-1.19a63.89,63.89,0,0,0,0-6.78,3.94,3.94,0,0,1,.4-2c.43-.42.3-1,.3-1.47V99.1a4.66,4.66,0,0,1,0,.63V137a1.94,1.94,0,0,1,0,.59c-.54.11-.54-.33-.61-.65a6.69,6.69,0,0,1-.08-1.55V98.85c0-.2,0-.4,0-.6,0-1.83.27-2,2.11-2,12.58,0,25.17.1,37.75,0,1.24,0,1.62.38,1.58,1.65a89.53,89.53,0,0,0,.06,11.11,37.16,37.16,0,0,1-.22,3.94c0,2.6.28,5.18.23,7.78-.08,4.66.15,9.33,0,14-.12,3.23-.22,6.46-.25,9.69a4.45,4.45,0,0,0,.13,1.54,6,6,0,0,1,0,2,24.25,24.25,0,0,0,0,6c-.27,2.2.15,4.4.09,6.6.6,3.73-3,3.11-4.31.14-.68-1.5-1.17-1.31-2.8-.78-.48.16-.83.16-1.1-.31-.37-.79-.45-1.68-.88-2.47-2.05-3.76-5.41-5.34-9.49-5.69a14.2,14.2,0,0,0-5.89.77,11.23,11.23,0,0,0-5.87,4.66,3.34,3.34,0,0,1-.5.67c-.32.35-.65-.14-1,0,.23.49.67.92.45,1.53a11,11,0,0,0-.46,3.42q0,13.41,0,26.83a3.29,3.29,0,0,1-.71,2.57c-.34.36-.22.91-.25,1.38S178.44,194.44,178,194.93Z" transform="translate(-27.23 -16.67)"/><path class="cls-6" d="M317.75,91.38c2.35-.07,4.69-.13,7-.22a3.27,3.27,0,0,0,1.29-.2c1.91-.89,2.12-1.33.95-3a66.18,66.18,0,0,1-4.94-7.14c0-.43.29-.45.63-.53,3-.73,5.42.35,7.68,2.19a25.69,25.69,0,0,1,6.77,8.62,48.61,48.61,0,0,1,3.75,11c.2.88.4,1.77.61,2.65a10.32,10.32,0,0,1,.5,4.11,26.86,26.86,0,0,1-6.32,17.17,23.43,23.43,0,0,0-3.64,5.46c-2.27,5-.46,10.59,3.42,14.27,2.48,2.36,5.12,4.57,7,7.54s2.1,6.3,2,9.68a3.5,3.5,0,0,1-.51,1.46,38.76,38.76,0,0,1-4.23,11.31,72.57,72.57,0,0,1-5.58,8.27c-.3.41-.93.53-1,1.15a.77.77,0,0,1-.78.45,56.06,56.06,0,0,1-6.08,0,1.08,1.08,0,0,1-.64-.29,1.49,1.49,0,0,1-.26-.65c-.32-1.57-.52-1.77-2.16-1.87-1.22-.08-2.44,0-3.66-.05a1.43,1.43,0,0,1-.75-.2c-.33-.78.37-.84.78-1,1.17-.49,2.41-.77,3.61-1.21a3.51,3.51,0,0,0,2.25-2.44,2.74,2.74,0,0,0-3.15-3.44c-.5.1-1,.39-1.51.18a.75.75,0,0,1-.18-1c.7-1.69.45-3.47.37-5.2-.05-1,0-2-.14-3.06-.38-1.58-1.35-2.91-1.89-4.42a4,4,0,0,0-.89-3.24,3.34,3.34,0,0,1-.43-2.31c0-10.22.07-20.45,0-30.68,0-4.5-.3-9-.19-13.53.16-6.34.3-12.69.21-19A1.78,1.78,0,0,1,317.75,91.38Z" transform="translate(-27.23 -16.67)"/><path class="cls-3" d="M316.51,73.41c-1.94-2.36-3.61-4.92-5.43-7.36-1-1.3-1.94-2.58-2.92-3.87a1.12,1.12,0,0,1-1-.88,4,4,0,0,0-3.25-2.44c-.65-.16-1.32-.26-2-.38-3.26-.2-6.52-.07-9.77-.07a.86.86,0,0,1-.39,0c-.57-.44-.25-.93,0-1.39,1.33-2.92,2.77-5.8,4.13-8.72a4.25,4.25,0,0,0,.54-2.48c.79-.45.72-1.69,1.75-1.92a36.89,36.89,0,0,0,5.36-.29c.24,0,.48,0,.71-.11s.8-.06.86-.49-.35-.5-.61-.66a18.09,18.09,0,0,0-4.77-1.85c-.72-.22-1.47-.34-2.19-.57-1-.3-1.3-.09-1.45,1-.09.67-.24,1.33-.28,2a5.59,5.59,0,0,1-1.17,2c-.2.15-3.44,4-3.66,4.28a30.74,30.74,0,0,0-2,3.27c-.14.27-.56,1.36-.67,1.69s-.25.8-.71.85-.63-.36-.78-.73c-.21-3.8,0-11.86-.22-12.43a1.24,1.24,0,0,1-.35-.37c-.05-.17-.35-1.49-.09-1.91A1.17,1.17,0,0,1,287,39c.08,0,.18-.14.16-.24-.05-.61.38-.94.75-1.29,1.11-1,2.05-2.21,3.06-3.33.16-.18.36-.38.26-.62s-.48-.19-.74-.14c-1.32.29-4.64,1.55-4.85,2a.8.8,0,0,1-.61.3c-.6-.13-1.5.15-1.75-.48s.57-1,1.06-1.42.32-.71.08-1.15c-.39-.71-.2-1,.61-.95a8.12,8.12,0,0,1,1.75.42c.81.21,1.62-.49,1.3-1.24-.73-1.75-.27-3.55-.36-5.32s0-1.63-1.6-2c-.32-.07-.63-.15-.74-.51a104.52,104.52,0,0,1,12.93-2.37,57.58,57.58,0,0,1,7.66,0c3.1.29,9.88,2.35,10.34,2.11,2.24,1.11,4.63,1.93,6.68,3.42,1.53,1.1,3.18,2.05,4.19,3.75.15.25,3.17,3,3.77,4.64A61.78,61.78,0,0,1,335.38,43a14.84,14.84,0,0,1-.65,11.7,24.42,24.42,0,0,1-5.57,7.44c-2,1.75-3.69,3.74-5.72,5.37C321.59,69,317.27,73.25,316.51,73.41Z" transform="translate(-27.23 -16.67)"/><path class="cls-7" d="M40.55,225.53c1.13-2.07,1-4.38,1.14-6.61a40,40,0,0,0-.63-10.53,1.8,1.8,0,0,0-.94-1.41c.28-.43.74-.42,1.18-.45s1,0,1.43,0H127.1a13.73,13.73,0,0,1,2,.07,6.22,6.22,0,0,1,3.66,3,9.08,9.08,0,0,1,.74,3.85c0,2.36,0,4.71,0,7.07a5.72,5.72,0,0,1-.53,2.68c-.88,1.73-2,2.87-4.25,2.87q-43.08-.08-86.17,0C41.88,226,41.12,226.17,40.55,225.53Z" transform="translate(-27.23 -16.67)"/><path class="cls-4" d="M226.83,194.89h-5.21c-.54-.61-.32-1.36-.36-2s0-1.43,0-2.14c0-.44,0-1-.47-1.16-1.32-.52-1.18-1.62-1.18-2.69,0-1.23.46-2.44.09-3.68a3.62,3.62,0,0,1-.08-.87c-.08-5.84,0-11.69,0-17.54a4.35,4.35,0,0,0-1.06-3.42,1.63,1.63,0,0,1-.37-1,7.8,7.8,0,0,1,0-1.08q0-30.37,0-60.75c0-2.31,0-2.36,2.32-2.32,8.11.12,16.22,0,24.33,0,2.9,0,2.9,0,2.9,3v57c0,.48,0,1,0,1.44-.05.31,0,.68-.18.93-1,1.33-.78,2.86-.78,4.36,0,3.5,0,7,0,10.49a3.07,3.07,0,0,1-.27,1.74c-.46.39-.84.09-1.14-.2a10.79,10.79,0,0,0-5.67-2.74c-.55-.12-1.23-.14-1.3-.95,0-3.34,0-6.68,0-10,0-1.39-.07-1.46-1.5-1.47H230.1c-1.48,0-1.48,0-1.75,1.47a1.47,1.47,0,0,1-.9.89c-1.89,1-2,1.36-1.18,3.25-.06,1-.72,1.76-.93,2.7a3.09,3.09,0,0,0-.16,2.73.89.89,0,0,0,.94.74,2,2,0,0,1,1.14.26c1,1.34.77,2.85.63,4.35-.62.93-1.66,1.44-2.39,2.29-1.23,1.42-1.93,2.84-1.23,4.78s1,4.32,2.23,6.27a14.44,14.44,0,0,1,1,3C227.38,193.35,227.52,194.25,226.83,194.89Z" transform="translate(-27.23 -16.67)"/><path class="cls-8" d="M341.55,205.93l2.72,0c3.23,0,4.44,1.37,4.16,4.57a52.17,52.17,0,0,0-.08,5.73c0,2.71-.11,5.43.07,8.14a3.21,3.21,0,0,1-3.56,2.66l-62.93,0H265.27c-2.42,0-3.77-1.24-3.79-3.64-.05-4.63,0-9.26,0-13.9a3.16,3.16,0,0,1,1.85-3.09c.64-.73,1.52-.6,2.35-.6,10.26,0,20.53,0,30.8,0,3.43,0,6.86-.2,10.29-.21q16.47-.08,33,0A2.43,2.43,0,0,1,341.55,205.93Z" transform="translate(-27.23 -16.67)"/><path class="cls-7" d="M265.71,203a16.29,16.29,0,0,0,.77-5.23,5.69,5.69,0,0,0-.17-3.14,3.65,3.65,0,0,1-.2-1.43,14.63,14.63,0,0,0-.41-3.43c-.09-.44-.34-.93.19-1.3a4.29,4.29,0,0,1,1.78-.2q33.61,0,67.23-.05a3.15,3.15,0,0,1,3.4,3,34.63,34.63,0,0,1-.06,9.43,3.14,3.14,0,0,1-3,2.73c-.36,0-.72,0-1.08,0H268C267.22,203.45,266.38,203.67,265.71,203Z" transform="translate(-27.23 -16.67)"/><path class="cls-8" d="M112.72,25a30.71,30.71,0,0,1,11.4,12.51,36.41,36.41,0,0,1,3.41,8.23c1.16,4.78,1.74,9.62.31,14.47-.8.62-1.81.12-2.65.49a3.85,3.85,0,0,1-1.55,0,3.93,3.93,0,0,0-1.18-.13c-4.9,0-9.79,0-14.69,0-4.27.15-8.54,0-12.82,0a.9.9,0,0,1-.51-.88c-.22-3.7-.53-7.4-.48-11.11.79-1.86,2.46-2.79,4-3.82.13-.08.31,0,.44.1.82,1.86,1.64,3.66,1.26,5.84a10.06,10.06,0,0,0,.59,5.3,6.71,6.71,0,0,0,2.5,3.13c.8.57,1.1.41,1.25-.53s.28-2.14.42-3.21c.23-1.75-.75-3-1.72-4.32a9.5,9.5,0,0,0-1.51-1.53c-1.74-1.47-2.17-3.45-2.3-5.57a6.62,6.62,0,0,1,1.68-1.82c.54-.49,1.43-.84,1.09-1.78s-1.34-.6-2.07-.55c-1.39.09-2.78.08-4.16.3-.48.07-1,.17-1.43-.33,0-1.6.91-2.91,1.56-4.28a29.47,29.47,0,0,1,5.77-8.39c3.16-3.13,6.73-4.07,10.89-2.25A2.44,2.44,0,0,0,112.72,25Z" transform="translate(-27.23 -16.67)"/><path class="cls-5" d="M343.92,164.48a19.62,19.62,0,0,0-.08-6.75,14.22,14.22,0,0,0-4.09-7.35c-1.9-2-4.08-3.76-5.88-5.88a12.26,12.26,0,0,1-.8-15.4c1.46-2,3-4,4.41-6a19.69,19.69,0,0,0,3.55-8.93c.11-1,.38-2,.53-3,.31-2.12-.16-4.2,0-6.29a13.57,13.57,0,0,1,4,3.65,40,40,0,0,1,2.48,3.3,44.85,44.85,0,0,1,4.63,8.84,42.7,42.7,0,0,1,3,12.72,36.41,36.41,0,0,1-.85,11.38,42.62,42.62,0,0,1-4.64,11.68,14.42,14.42,0,0,1-2.47,3.61C346.14,161.3,345.26,163.06,343.92,164.48Z" transform="translate(-27.23 -16.67)"/><path class="cls-3" d="M285.4,23.05a3.32,3.32,0,0,0,.67.23c2,.24,2,.23,2,2.25,0,1.32,0,2.63,0,3.95,0,.51-.09,1.07.61,1.26.09,0,.16.14.24.22a3.61,3.61,0,0,0-.78,1.41c-.1.27-.82.39-1.31.13a6,6,0,0,0-2.7-.59c2.62,1.95-.42,2.16-.71,3.3.63.15,1.31-.06,1.85.34,0,.12,0,.27-.09.33-1.42,1-1.47,2.32-1.11,3.8a10.47,10.47,0,0,1,0,1.94,12.66,12.66,0,0,0-.9,4.54,55.4,55.4,0,0,0-.54,6.18c0,.88-.25,1.62-1.4,1.4-2.38-.63-4.78-1.18-7.19-1.72-1.78-.4-3.36.28-5,.89a3.13,3.13,0,0,1-3.49-.66c-3-2.44-6.19-4.7-9.4-6.89a4.79,4.79,0,0,0-.94-.52c-.26-.1-.54-.18-.81-.27-.93-.5-1.87-.07-2.81-.06-1.13-.41-1.8-1.44-2.75-2.09a12,12,0,0,1,.81-3.92c.57-1.27.53-1.4-.73-1.91-.51-.22-.81-.5-.44-1.07,2-.09,7.85-2.35,9-2.76,2.22-.78,4.39-1.68,6.63-2.42,2.77-.9,5.48-2,8.19-3C275.36,26.14,284.15,23.51,285.4,23.05Z" transform="translate(-27.23 -16.67)"/><path class="cls-9" d="M40.55,225.53c1.08,0,2.16.05,3.23.05h84.93a4.14,4.14,0,0,0,4.32-4c.09-3.27,0-6.54,0-9.82,0-.83-.6-1.56-.58-2.42.73-1.13.08-2-.47-3-.2-1.15-1.25-2-1-3.33.1-.18.23-.31.46-.23h1.68a7,7,0,0,1,7.36,6.83c.16,4.55.17,9.11,0,13.66a6.73,6.73,0,0,1-7.08,6.53H39.72c-1.59,0-2.23-.41-2.29-1.47a2.73,2.73,0,0,1,2.17-2.76C39.91,225.56,40.23,225.56,40.55,225.53Z" transform="translate(-27.23 -16.67)"/><path class="cls-1" d="M265.71,203c2.52,0,5,0,7.55,0h61.37c2.29,0,3.09-.9,3.33-3.2a41,41,0,0,0,0-8.58,2.71,2.71,0,0,0-2.79-2.64c-5.47,0-10.95,0-16.42,0l-52.38,0c-.2,0-.4,0-.59,0A2.41,2.41,0,0,1,263,187c-.29-.85-.21-1.59.78-1.94,5.82-.13,11.64,0,17.45-.07a25.39,25.39,0,0,0,4.53-.12,13.83,13.83,0,0,1,2-.12,37.07,37.07,0,0,0,6.32.19,42.15,42.15,0,0,1,6.05-.2c.69-.06,1.31.37,2,.27h6.26a7.14,7.14,0,0,0,2.71-.33,1.38,1.38,0,0,1,.94-.06c1.74.6,3.55.31,5.32.4a9.4,9.4,0,0,0,2.37-.24l5.9.33a35.21,35.21,0,0,0,7.47.12c1.79,0,3.58-.05,5.37-.05a5.54,5.54,0,0,1,5.6,5.33c.1,3.62.05,7.24,0,10.87a5.41,5.41,0,0,1-1.48,3.32l-1.09,1.25c-9.67,0-19.33-.07-29,.07-2.72,0-5.44-.08-8.18.1-4.41.29-8.86.08-13.3.08H265.45a6.87,6.87,0,0,0-2.12.23,8.51,8.51,0,0,1-.17-1.5C263.24,203.75,264.1,203.14,265.71,203Z" transform="translate(-27.23 -16.67)"/><path class="cls-10" d="M91.75,50.79c-2,1.89-9.16,7.67-10.51,8.85-2.89,2.53-6.19,2.9-9.75,1.77-.49-.16-16.77-2.26-18.92-2.6a1.39,1.39,0,0,1-1.3-1.14c-.2-.7.25-1,.72-1.33,3-2.05,20.06-13.78,20.44-13.88,1.32-1.16,2.95-1.24,4.57-1.36,3.62-.27,21.24-1.53,23.34-1.66.74,0,1.49-.09,1.81.75s-.21,1.3-.82,1.77C100.54,42.56,92.61,50,91.75,50.79Z" transform="translate(-27.23 -16.67)"/><path class="cls-5" d="M53.78,202.86c-1.7-1.69-1.43-3.84-1.43-5.94,0-3.23,0-6.47,0-9.71,0-1.52.42-2.84,2.08-3.37a14.3,14.3,0,0,1,2.61-.3c4.33-.45,8.66.07,13,0a35.14,35.14,0,0,1,3.7.05c1.16.53,2.33,1,3.52,0a10.12,10.12,0,0,1,3.72.11c.38.8-.32.92-.77,1.15s-.67.6,0,.86A2.08,2.08,0,0,1,81.43,188c0,.47,0,1,0,1.43-.06,1,0,1.95,1.19,2.42.65.25.71,1,.72,1.66,0,1.56,0,3.12,0,4.67,0,.89.28,1.23,1.22,1s1.18.1.81,1a5.23,5.23,0,0,0-.37,1,1.23,1.23,0,0,1-1.67,1.08,2.14,2.14,0,0,0-2.72.78.92.92,0,0,1-.41.23,7.69,7.69,0,0,1-2,.14c-7.46,0-14.93-.08-22.4.05C55.08,203.51,54.26,203.64,53.78,202.86Z" transform="translate(-27.23 -16.67)"/><path class="cls-11" d="M170.12,161.56a3,3,0,0,1,1.55,3c0,8.06-.06,25,.61,25,1.35,0,1.65,13-.49,12.58h-9.06c-2.85.17-3.21-12-2-12.06.55.52,1-12.21.7-21,0-1.19,0-2.39,0-3.59a5,5,0,0,1,1-3.87,1.8,1.8,0,0,1,1.39-.59c1.68-.06,3.36,0,5,0A1.59,1.59,0,0,1,170.12,161.56Z" transform="translate(-27.23 -16.67)"/><path class="cls-11" d="M257.16,198.8c-2.73,0-7.59-.08-10.32.12-.78.06-1.16-.38-1.22-1.13a3.26,3.26,0,0,0,.11-2.89,13.31,13.31,0,0,1-.66-3.25,4.16,4.16,0,0,0,0-1.27c.24-1.55,0-3.14.77-4.64.42-.88,0-2,0-2.93a6.71,6.71,0,0,0,.17-6.62.71.71,0,0,1,0-.88c.34-.43.18-.92.18-1.38,0-4.14,0-8.27,0-12.41,0-1-.09-2,.82-2.73.42-1.74,7.07-1.5,7.94-.6a7.26,7.26,0,0,1,1.76,3.26C255.64,168.68,258.87,198.79,257.16,198.8Z" transform="translate(-27.23 -16.67)"/><path class="cls-9" d="M53.78,202.86c2.6.53,5.22.16,7.83.19,6.25.06,12.51,0,18.76,0a4.08,4.08,0,0,1,2.33-.38h39.67c1,0,1.92,0,2.87,0,.12,0,.27,0,.35,0a14.52,14.52,0,0,1,4.08,4.22L96,207l-55.86,0a3.16,3.16,0,0,1-2.68-2.78c-.08-.87.26-1.39,1.18-1.39Z" transform="translate(-27.23 -16.67)"/><path class="cls-9" d="M214,201.38a104.84,104.84,0,0,1,0,13.73,144.11,144.11,0,0,1-1.75,15.5,4.32,4.32,0,0,1-.42,1,1.35,1.35,0,0,1-1.7,0c-.57-.19-.48-.67-.49-1.1-.15-5.42-.28-10.85-.47-16.28-.06-1.89-.28-3.79-.51-5.68a134,134,0,0,1-4.27,21.87c-.16.62-.3,1.28-1.17,1.22a1.3,1.3,0,0,1-1.46-.28c-.56-.26-.54-.7-.42-1.2a88.91,88.91,0,0,0,1.62-14.09c.29-5,.41-10,.45-15.07,0-1.39-.13-2.78-.19-4.18.69-.36,1.34,0,2,.2a16.24,16.24,0,0,0,7.33.44,1.86,1.86,0,0,1,1.07,0A4.43,4.43,0,0,1,214,201.38Z" transform="translate(-27.23 -16.67)"/><path class="cls-8" d="M245.34,191.6a25.89,25.89,0,0,0,1,4.16c.3.89.3,1.61-.69,2-1.42,0-2.68.67-4,1-.21-1,.5-1.7.62-2.6.08-.59,0-1-.61-1.22-.93-.31-1.35,0-1.28,1q0,.54.06,1.08c0,1.75-.47,2.13-2.29,1.82.81.59.83.86.08,1.24a4.55,4.55,0,0,1-1,.35,1.3,1.3,0,0,1-1.53-.88c-.22-1.73-.84-3.38-1.12-5.1a6.68,6.68,0,0,1-.22-1.41,1.14,1.14,0,0,1,.2-.54,3.65,3.65,0,0,1,2.41-.75c.6,0,1.26.23,1.78-.28a4.06,4.06,0,0,0-.51-2.06,19.77,19.77,0,0,0-4.12-6.19c-.55,2.61-.07,8.37-.33,8.76-1.79,1.62-4.79,1.87-6.35.55a46.26,46.26,0,0,1-3.75-10.66,2.61,2.61,0,0,1,.57-2.1,10.58,10.58,0,0,1,3.54-3.5c.26-.18.43,0,.62.15,1.56,1.21,2.1,1.19,3.55-.1,1.84-.08,3.16,1,4.38,2.11a23.71,23.71,0,0,1,5.92,8.44c.28,1.25.79,2.42,1.11,3.65.25.39.64.31,1,.27C245,190.67,245.22,191,245.34,191.6Z" transform="translate(-27.23 -16.67)"/><path class="cls-12" d="M234.58,192.52l-.15.43c-1,.82-.85,1.66-.29,2.72s1.55,2.31,1.67,3.75c.18.72.71.82,1.34.73.59.19,1.23.3,1.48,1a69.14,69.14,0,0,0,2.19,10,7.22,7.22,0,0,0,1.23,2.65c.19.56-.2.76-.59.83a5.65,5.65,0,0,1-2.94.13,20.93,20.93,0,0,1-4.73.54c-1.15.63-2.22.08-3.3-.25-.64-3.26-1.3-6.53-1.93-9.79-.53-2.72-1-5.45-1.56-8.16-.16-.76,0-1.52-.17-2.26a10.43,10.43,0,0,1,.54-2.4,6.38,6.38,0,0,0,6.19-.66C234.19,191.62,234.52,191.86,234.58,192.52Z" transform="translate(-27.23 -16.67)"/><path class="cls-13" d="M131.16,203.09c0,1.22,1.07,2.09,1.06,3.31-.06.53-.4.31-.58.16-1.77-1.46-3.53-2.94-4.45-5.14a1,1,0,0,1,.29-.76.89.89,0,0,0,0-1.29c-1.33-1.44-2.28-3.17-3.61-4.61a29.62,29.62,0,0,1-4.82-9c-.11-.72-.16-1.44-.21-2.16.19-.72,0-1-.76-.65-.5.21-1,.47-1.56,0-.45-2.15.87-4.9,3-6.32a10.63,10.63,0,0,1,4.35-.1,23.35,23.35,0,0,1,3.23,4.78c.64,1.14,1.3,1.95,2.71,1.85.38,0,.82,0,1,.43-.29.54-.82.39-1.26.39-.78,0-.95.26-.52.89,1,1.48,1.69,3.14,2.67,4.63a12.33,12.33,0,0,1,1.35,2.63,26.27,26.27,0,0,0,2.07,3.79l2.57,4.48c.15.68-.43.56-.64.45-2-1.11-4.22-2.07-5.49-4.19.54-1.58.84-1.35-.85-2.55-.74-.52-1.32-1.23-2.15-1.84.7,2.84,1.41,5.53,1.85,8.26C130.55,201.4,131.3,202.12,131.16,203.09Z" transform="translate(-27.23 -16.67)"/><path class="cls-11" d="M178,194.93c0-.8,0-1.6,0-2.4,0-.52-.16-1.1.66-1.3.55-.14.3-.75.3-1.15q0-13.46,0-26.91a9.25,9.25,0,0,1,.74-4.65c.55-.07.65.32.48.66-.66,1.34,0,2.45.58,3.57a2,2,0,0,1,.21.68c.13,1.31.06,2.63.06,3.94,0,7.3,0,14.6,0,21.89,0,1.62.06,1.67,1.69,1.68H194.9a13.61,13.61,0,0,1,1.91.07,20.57,20.57,0,0,0,3.76.19,3.09,3.09,0,0,1,1.28.19,6.77,6.77,0,0,1,1.24,5.24l-23.49,0C177.71,196.59,177.94,196.75,178,194.93Z" transform="translate(-27.23 -16.67)"/><path class="cls-3" d="M228.12,42c-.39,0-.43-.2-.27-.5,1.32-.81,2.9-.59,4.33-1.11,1.77-.65,8.81.31,9.84.55a16.86,16.86,0,0,1,.76,2.72c.63,1.82,1.5,2.32,3.32,1.76a1.08,1.08,0,0,1,1,0c.55.5,1.11,1,1,1.83a17,17,0,0,0-3.59,6.68,3.42,3.42,0,0,1-1.6,2c-1.09.61-1.7,1.77-2.77,2.41a.46.46,0,0,1-.28-.25,36.64,36.64,0,0,1-.59-6.18c-.19-2.62-.33-5.24-.51-7.86-.05-.74-.26-1.22-1.08-1.28a1,1,0,0,1-1.06-1.07c-.06-.87-.56-1-1.32-.89-1.92.38-3.81.87-5.72,1.24C229.11,42.16,228.6,42.44,228.12,42Z" transform="translate(-27.23 -16.67)"/><path class="cls-11" d="M214,201.38a29.13,29.13,0,0,0-.49-3.72c-.36-.51-.17-1.08-.13-1.61.11-1.26.22-2.52.31-3.78a1.79,1.79,0,0,1,1.58-1.6,6.08,6.08,0,0,0,4.17-3.39c.1-.23.1-.58.52-.48,0,.43-.38,1.13,0,1.3,1.92.78,2.37,10.3,1.67,12.05,0,.64-.21,1.2-.87,1.21C218.49,201.42,216.24,201.38,214,201.38Z" transform="translate(-27.23 -16.67)"/><path class="cls-5" d="M214,192a35.62,35.62,0,0,1-.49,5.65,19.2,19.2,0,0,1-10.32-.84c0-.06,0-.12-.08-.19a32.25,32.25,0,0,0-1.1-5c.35-.44.85-.33,1.31-.36s1.11,0,1.66,0c1.39-.13,1.85-.57,2.23-2.1a1.2,1.2,0,0,1,1.25.07,17.43,17.43,0,0,0,4.66,1.52C213.87,190.83,214.27,191.19,214,192Z" transform="translate(-27.23 -16.67)"/><path class="cls-14" d="M72.43,42.46c-3.72,2.69-7.59,5.18-11.42,7.71-.18-.1.41-1.08,0-1.43-1.55-1.22-3.09-2.45-4.65-3.66a3.19,3.19,0,0,1-.91-.92,18.58,18.58,0,0,1,9.17-2.88,19.26,19.26,0,0,1,6.83.64A1.68,1.68,0,0,1,72.43,42.46Z" transform="translate(-27.23 -16.67)"/><path class="cls-13" d="M238.52,214.81c.88-.12,1.76-.28,2.65-.37.42,0,.76-.13.88-.59a5.33,5.33,0,0,1,3.46,2.33q3.6,5,7.24,9.89a1.71,1.71,0,0,0,1.18.91,1.41,1.41,0,0,1,.53,1.26,29.37,29.37,0,0,1-.85,4.15c0,.19-.21.57-.6.3a1.93,1.93,0,0,1-.18-.56c0-2.83-1.51-4.79-3.47-6.61-3.24-3-6.37-6.11-9.55-9.16A6.87,6.87,0,0,1,238.52,214.81Z" transform="translate(-27.23 -16.67)"/><path class="cls-13" d="M230.49,215.1l3.3.25c1.48,2.08,1.16,4.41.94,6.74q-.47,4.86-.85,9.72c0,.48-.21,1,.14,1.48a1.53,1.53,0,0,1-.63,1.79c-.86.78-1.92,1.29-2.8,2a.56.56,0,0,1-.85-.05.63.63,0,0,1,.09-.22c2.41-2.61,2.07-5.75,1.76-8.9-.4-4-.74-7.93-1.1-11.9C230.46,215.74,230.49,215.42,230.49,215.1Z" transform="translate(-27.23 -16.67)"/><path class="cls-14" d="M40.08,170.24c1.39.59,2.22,1.87,3.42,2.71a41.61,41.61,0,0,0,11.93,6.34,3.35,3.35,0,0,0,.71.06c.7,1.32.39,2.69.23,4.06-.49.59-1.06.43-1.64.17l.78-.31c-1.83-.24-3.2-1.33-4.6-2.21a42.8,42.8,0,0,1-5.65-4.25A12.06,12.06,0,0,1,43.53,175c-1-1.35-2-2.63-3.07-3.94A1.56,1.56,0,0,1,40.08,170.24Z" transform="translate(-27.23 -16.67)"/><path class="cls-15" d="M203.38,232.64c.08.67.18,1.34.24,2a1.07,1.07,0,0,1-1,1.33c-2.62.24-5.24.18-7.86.18-.25,0-.5,0-.51-.34s.23-.49.48-.61l3.46-1.59,2.8-1.3C201.73,232.71,202.62,232.19,203.38,232.64Z" transform="translate(-27.23 -16.67)"/><path class="cls-16" d="M131.16,203.09c-1.58-3-1.62-6.39-2.56-9.55-.17-.58-.66-1.11-.38-1.93,1.33,1.07,2.65,2.06,3.87,3.16.81.73,0,1.26-.44,1.79-1.09,1.28-1.06,1.37.31,2.47.39.32,1,.47,1,1.19.17,1.22-.62,1.91-1.44,2.59Z" transform="translate(-27.23 -16.67)"/><path class="cls-9" d="M132.93,200.22c-.39-.62-1.08-.87-1.63-1.29-1.19-.94-1.08-1.76.35-2.37a18.82,18.82,0,0,0,5.23,3.89c.27.15.58.35.8-.09a6.86,6.86,0,0,1,1.24,2c.13.27.38.6.12.87s-.58,0-.86-.1a36.13,36.13,0,0,1-4-2.26C133.76,200.63,133.45,200.23,132.93,200.22Z" transform="translate(-27.23 -16.67)"/><path class="cls-13" d="M238.63,201.16c-.38-.51-1.17-.4-1.48-1l1.39-.58c-.16-.56-.9-.59-.94-1.18.23-.18.36,0,.54.1,1.33.49,2,.08,1.94-1.28,0-.52-.06-1-.12-1.54s-.34-.78.18-1a2.34,2.34,0,0,1,2.16.21.67.67,0,0,1,.35.9,12.39,12.39,0,0,1-1.06,3A3.72,3.72,0,0,1,238.63,201.16Z" transform="translate(-27.23 -16.67)"/><path class="cls-3" d="M293.31,21.37c1.87,0,3.75.56,5.59.21,2.24-.43,4.43.1,6.65.05.28,0,.77-.18.79.25s-.48.51-.8.44c-1.65-.37-3.05,1.3-4.61.7-2.63-1-5.31-.58-8-.68C292.43,22.32,292.91,21.43,293.31,21.37Z" transform="translate(-27.23 -16.67)"/><path class="cls-5" d="M229.74,237.07c1.59-1.07,3.76-1.49,4.28-3.78a1.74,1.74,0,0,1,1,2,15.15,15.15,0,0,1-.6,3.22c-.54-.44-.3-1-.37-1.46s-.09-.76-.4-.94-.64.18-.89.4a3.21,3.21,0,0,0-.74.78c-.68,1.21-1.78,1.31-3,1.21-.35,0-.67-.12-.7-.49s.3-.46.58-.45A1.06,1.06,0,0,0,229.74,237.07Z" transform="translate(-27.23 -16.67)"/><path class="cls-5" d="M253,232.69c.67-1.84,1.37-3.68.92-5.71a1.75,1.75,0,0,1,2,.94,10.28,10.28,0,0,1,1.32,2.75l-1.21-1c-.61-.53-1-.6-1.13.39a4.83,4.83,0,0,0-.09,1.3,2.5,2.5,0,0,1-1.31,2.7c-.3.21-.58.51-.94.18s0-.63.23-.86A.87.87,0,0,0,253,232.69Z" transform="translate(-27.23 -16.67)"/><path class="cls-17" d="M54.73,183.58c.49,0,1,.19,1.46-.2a7.07,7.07,0,0,1,2.58-.31,71.58,71.58,0,0,1,7.75.11,6.41,6.41,0,0,0,1.9.13H92.66a2.69,2.69,0,0,1,1.84.29c0,.72-.64.63-1.06.64-3.79.05-7.57.05-11.36,0a1.31,1.31,0,0,1-1-.36l-4.08,0a4,4,0,0,1-2.86,0c-1.08,0-2.16-.07-3.23,0-3.28.15-6.54-.35-9.8-.21-2.23.1-4.45.26-6.68.15Z" transform="translate(-27.23 -16.67)"/><path class="cls-15" d="M211.77,232.83a17.87,17.87,0,0,0,.56,2.06c.39,1-.08,1.32-1,1.36s-2,.6-2.57-.25.18-1.81.59-2.66a3.15,3.15,0,0,1,.43-.55C210.46,233.12,211.12,232.49,211.77,232.83Z" transform="translate(-27.23 -16.67)"/><path class="cls-18" d="M348.42,224.39c-.25-.26-.19-.59-.19-.91q0-6,0-12.06c0-.31-.07-.65.2-.9Q348.43,217.45,348.42,224.39Z" transform="translate(-27.23 -16.67)"/><path class="cls-13" d="M203.38,232.64c-.83.1-1.72.66-2.41-.32l.74-1a3.05,3.05,0,0,1,1.46.28A1.59,1.59,0,0,1,203.38,232.64Z" transform="translate(-27.23 -16.67)"/><path class="cls-13" d="M211.77,232.83c-.65.1-1.32.92-2,0a2.54,2.54,0,0,0,.26-1.18l1.7,0A1.14,1.14,0,0,0,211.77,232.83Z" transform="translate(-27.23 -16.67)"/><path class="cls-3" d="M316.33,22.82c-.26.39-.51.88-1.1.6-.37-.18-.47-.52-.1-.85Z" transform="translate(-27.23 -16.67)"/><path class="cls-5" d="M57.61,92.36l-5.61,0a11.42,11.42,0,0,1-1.55,0c-2.46-.34-3-1.55-1.52-3.44C53.1,83.53,57.31,78.26,61.5,73c.75-1,1.19-2.15,2.31-2.8.53,0,.67.52.93.85a3.22,3.22,0,0,0,2.68,1.33c7.46-.13,14.65-1.39,21.24-5.15a30.63,30.63,0,0,0,4.45-3.4c.34-.29.76-1,1.32-.19,0,.87.63.77,1.18.77,2.68,0,5.36-.11,8,0,5.43.28,10.86,0,16.28.27,4.32.21,8.63,0,12.93.22,6.19.37,12.38,0,18.56.3.73.26.47.58,0,.88-.82.58-1.78.89-2.61,1.45-4,2.73-8.32,5-12.46,7.56-3.64,2.23-7.31,4.39-11,6.59-2.79,1.69-5.66,3.26-8.42,5a2.68,2.68,0,0,0-1.1,1.06c-.89,1.15-.63,2.36-.2,3.58a1.22,1.22,0,0,1-.43,1.17,3.07,3.07,0,0,1-1.41.21H66.15a5.65,5.65,0,0,1-.59,0c-2.2.07-4.39,0-6.59,0A1.89,1.89,0,0,1,57.61,92.36Z" transform="translate(-27.23 -16.67)"/><path class="cls-11" d="M57.61,92.36H65.5a2.57,2.57,0,0,1,.39,1.94q0,24.18,0,48.37,0,7.13,0,14.24a4.46,4.46,0,0,0,.57,2.53,3.15,3.15,0,0,1,.39,1.73q0,10.41,0,20.83a3,3,0,0,1-.14,1.07.87.87,0,0,1-.29.37,80.72,80.72,0,0,0-9.2.17,3.25,3.25,0,0,1-1-.23c0-1.34,0-2.69,0-4q0-9.28,0-18.57a2.22,2.22,0,0,1,.8-2,1.77,1.77,0,0,0,.67-1.57q0-10.11,0-20.24Q57.6,114.67,57.61,92.36Z" transform="translate(-27.23 -16.67)"/><path class="cls-9" d="M94.26,63.24a30.11,30.11,0,0,1-9.41,6.19,41.78,41.78,0,0,1-10.57,2.74c-1.85.24-3.73.27-5.58.5a4.3,4.3,0,0,1-4.89-2.5c-1.08-2.89-2.63-5.57-3.87-8.39-.3-.68-.61-1.37-.91-2.06,2.41.14,12.22,1.35,13.4,1.66,3.9,1,7-.4,9.9-3,2-1.81,4.11-3.5,6.19-5.22q2.74-2.28,5.27-4.78c.1-.1.29-.12.43-.18.18,3.78.42,12,.7,12.23A2.37,2.37,0,0,1,94.26,63.24Z" transform="translate(-27.23 -16.67)"/><path class="cls-6" d="M115.69,87.54c.86-1.32,14-8.64,19.11-11.8C139.5,72.84,161.19,60.13,163,59c4.78-2.93,9.6-5.8,14.41-8.67,3.72-2.22,7.47-4.39,11.2-6.61a1.5,1.5,0,0,1,1.77,0q7.63,5,15.3,9.88c2.51,1.61,5,3.18,7.55,4.8.44.28,12.09,7.64,13.67,8.69,2.6,1.74,5.24,3.44,7.89,5.12,4.38,2.78,8.79,5.53,13.17,8.32,3.31,2.11,6.61,4.26,9.9,6.4a3.4,3.4,0,0,1,.48.52,1.24,1.24,0,0,1-1.08.4c-2.77,0-5.55.11-8.33,0a26.71,26.71,0,0,1-4.64-2.69c-5.91-4.17-12.11-7.9-18.1-12-7.85-5.29-15.89-10.28-23.78-15.5-3.6-2.38-7.25-4.68-10.8-7.13a3,3,0,0,0-3.84-.21c-4.29,2.6-8.63,5.15-13,7.7-8.82,5.18-17.65,10.33-26.42,15.58-7.13,4.26-14.29,8.48-21.41,12.75a14.46,14.46,0,0,1-2.62,1.43c-2.56.17-5.11.07-7.66.07A1.27,1.27,0,0,1,115.69,87.54Z" transform="translate(-27.23 -16.67)"/><path class="cls-6" d="M159.42,61c-2.55,1.61-5,3.12-7.57,4.46-1.07,0-39.49-.21-44.46-.54-4-.26-13,0-13.46-.32-.61-.52.61-.82.33-1.39.53-.85.41-1.86.66-2.79.09-.07.18-.21.27-.21,2.57,0,10.93,0,12.53,0,3.42.18,6.85,0,10.27.08,2,0,3.91-.11,5.85.09h1.32a9.19,9.19,0,0,1,2.77,0,14.13,14.13,0,0,1,3,.07c1.68.25,3.39-.07,5.07.17C142.75,60.68,158.23,60.71,159.42,61Z" transform="translate(-27.23 -16.67)"/><path class="cls-6" d="M222.1,64l-7.92-5c2.4-.24,10.2-.29,11.93-.29.07,0,.17.09.18.15.11,1.9,1.39,2,2.84,1.89a10.33,10.33,0,0,1,2.59.33,18.9,18.9,0,0,0,3.68.15c.91,0,1.82-.05,2.73,0a2,2,0,0,0,2.05-1,26.06,26.06,0,0,1,4.74-.38c1.75-.14,3.49-.26,5.22-.52a40.48,40.48,0,0,1,6,.31,49.53,49.53,0,0,0,8.61.07,39.33,39.33,0,0,1,6.69,0c1.67.18,3.35.05,5,.07s3.62,0,5.44,0a24.64,24.64,0,0,0,5.94-.31c.8-.19,1.64-.05,2.44-.24a1.29,1.29,0,0,0,1.07-.85.69.69,0,0,1,.23-.22l.23.06c3.47-.17,6.93-.14,10.4,0a8.54,8.54,0,0,1,4.14,1.26c.58.34,1.49,2.3,1.77,2.67-1,.88-47.25.74-53.19,1-4,.15-8.06.06-12.08.19-6.55.23-13.09.25-19.64.24C222.81,63.57,222.28,63.39,222.1,64Z" transform="translate(-27.23 -16.67)"/><path class="cls-15" d="M240.13,60.38c.11.78-.07,1.25-1,1.22-1.17-.05-2.35,0-3.52,0-1.3-.17-2.61-.15-3.91-.19a21.57,21.57,0,0,0-3.76-.28c-1.61,0-1.74-.17-1.78-1.77,0-.2,0-.4,0-.59q-.3-7-.62-14.11c-.09-1.94-.09-1.94,1.73-2.39.31-.08.6-.19.9-.28,2.37-.51,4.74-1,7.11-1.51,1.28-.27,1.69,0,1.74,1.3,0,.79.47.68.93.66.68-.05,1.18.07,1.23.9.29,5,.61,9.92.91,14.88a.33.33,0,0,1-.1.06c-.75.1-1.45-.53-2.2-.17A18.6,18.6,0,0,0,235.26,60a9.42,9.42,0,0,0,3,0C238.92,59.9,239.62,59.73,240.13,60.38Z" transform="translate(-27.23 -16.67)"/><path class="cls-19" d="M136.05,60.65c-1.69,0-3.39.28-5.07-.17A37.31,37.31,0,0,1,136.05,60.65Z" transform="translate(-27.23 -16.67)"/><path class="cls-19" d="M127.93,60.41h-2.77c.87-.32,1.79,0,2.68-.21A.72.72,0,0,0,127.93,60.41Z" transform="translate(-27.23 -16.67)"/><path class="cls-20" d="M115.33,92.32l.07-1.21a1.07,1.07,0,0,1,.79-.2c12.18.15,24.37,0,36.55.06q51.58,0,103.17,0a4.49,4.49,0,0,1,2.35.27,3.56,3.56,0,0,1-1.55,5.2c-1.2.44-1.4,1.13-1.4,2.24q0,25.59,0,51.17c0,.73.2,1.53-.41,2.16-.44,1.51,1.62,6.13.09,6.17a15.93,15.93,0,0,1-2,.07c-1.59,0-3.18-.07-4.76,0-.54,0-.87.31-1.1-.06,0-5.71.07-11.87.07-17.58,0-7.43,0-14.86,0-22.3,0-6.77,0-13.55,0-20.33,0-1.15-.3-1.45-1.46-1.45-8.91,0-17.81,0-26.72,0-.57,0-.58.23-.58.62,0,.84,0,1.68,0,2.52v59.68c0,.36,0,.72,0,1.08-.06.59-.3.93-1,.88-1.84-.12-3.68-.05-5.51,0-.73,0-1.05-.2-1.05-1,0-3.62,0-14.93,0-17,0-.16-.29-22.86-.32-29.95,0-4.66,0-9.32,0-14,0-.92.69-2.14-.12-2.7-.61-.43-1.76-.06-2.67-.06H172c-1.9,0-1.89,0-1.89,1.92q0,18.81,0,37.62c0,.51.25,22.84,0,25.42a28,28,0,0,0-7.7.05c0-7.1,0-14.21,0-21.32q0-21.33,0-42.66c0-1-.3-1.24-1.28-1.24q-15.17.06-30.32,0c-1.13,0-1.29.38-1.29,1.37q0,29.18,0,58.35c0,.64,0,1.28,0,1.92-.73.35-1.49.06-2.23.1a31,31,0,0,0-5,.22.72.72,0,0,1-.77-.18,4.36,4.36,0,0,1-.26-2.23V98.67c0-1.57,0-1.57-1.57-1.67-1.76-.11-3.31-.62-4.2-2.3A2.21,2.21,0,0,1,115.33,92.32Z" transform="translate(-27.23 -16.67)"/><path class="cls-21" d="M124,176.73a20.28,20.28,0,0,0-4.54.15c-1.74.6-3.47.16-5.21,0-.47-.58,0-1,.19-1.55a11.53,11.53,0,0,0,.77-1.58c1.22-2.73,2.5-5.42,3.81-8.11a3.77,3.77,0,0,1,1.87-1.78,33.24,33.24,0,0,1,5.73-.18c1,0,2.08,0,3.12,0A1.8,1.8,0,0,1,131,164l1.55,0c1.25,0,1.63.5,1.2,1.65-.95,2.49-2,4.95-2.94,7.43a4,4,0,0,1-.32,1.84c-.64,1.69-1.2,2.13-3,2.08C126.32,177,125.11,177.33,124,176.73Z" transform="translate(-27.23 -16.67)"/><path class="cls-22" d="M141.33,124.17c0-6.79,0-13.58,0-20.37a5,5,0,0,1,3.23-5,5.48,5.48,0,0,1,6,1.16,4.68,4.68,0,0,1,1.32,3.48q0,10.36,0,20.73a3.47,3.47,0,0,1-1.75.13c-2.53,0-5.07,0-7.61,0C142.09,124.31,141.68,124.46,141.33,124.17Z" transform="translate(-27.23 -16.67)"/><path class="cls-23" d="M151.8,170.31c0,3.15,0,6.31,0,9.46,0,.73-.17,1-.92,1q-4.32-.06-8.63,0c-.79,0-1-.27-1-1q0-9.41,0-18.8c0-.79.23-1,1-1q4.25.07,8.51,0c.88,0,1,.3,1,1.1,0,3.12,0,6.23,0,9.35Z" transform="translate(-27.23 -16.67)"/><path class="cls-24" d="M141.3,152.53c-.43-.28-.26-.72-.26-1.1,0-6.23,0-12.46,0-18.69,0-.88.2-1.15,1.11-1.13,2.84.06,5.68,0,8.51,0,.63,0,.94.12.93.85q-.06,10-.06,20a2.69,2.69,0,0,1-1.51.14C147.1,152.57,144.2,152.71,141.3,152.53Z" transform="translate(-27.23 -16.67)"/><path class="cls-11" d="M131,164c-3,0-5.91,0-8.86.06a3.41,3.41,0,0,0-1.42.13,7.8,7.8,0,0,1-.07-5.05,1.18,1.18,0,0,1,1-.87,17.93,17.93,0,0,1,7.85-.24,2.79,2.79,0,0,1,1.46,2.76C130.91,161.85,131,162.92,131,164Z" transform="translate(-27.23 -16.67)"/><path class="cls-11" d="M124,176.73c1.31,0,2.61-.08,3.92,0a1.81,1.81,0,0,0,2-1.39c.24-.75.56-1.48.84-2.21.31.29.16.67.16,1,0,3.14,0,6.27,0,9.4,0,.21-.06.24-.22.11a1.63,1.63,0,0,0-1.37-.2,2.18,2.18,0,0,1-2.32-1.49,40.49,40.49,0,0,0-2.44-3.94C124.37,177.6,124.2,177.15,124,176.73Z" transform="translate(-27.23 -16.67)"/><path class="cls-25" d="M130.74,183.63l.22-.11c1.94,1.09,2.37,2.83,2.18,4.9-.11,1.21-.07,2.44-.1,3.67a39.42,39.42,0,0,1-3-4.93c-.54-.91-1-1.87-1.61-2.77-.4-.61-.2-.75.42-.74S130.1,183.64,130.74,183.63Z" transform="translate(-27.23 -16.67)"/><path class="cls-26" d="M141.3,152.53l10.21-.07c.2.37-.14.26-.26.26h-9.41A1.94,1.94,0,0,1,141.3,152.53Z" transform="translate(-27.23 -16.67)"/><path class="cls-27" d="M141.33,124.17h10.5c-.19.36-.54.29-.84.29l-8.94,0C141.78,124.45,141.48,124.49,141.33,124.17Z" transform="translate(-27.23 -16.67)"/><path class="cls-4" d="M254.42,152c0-4.51.05-9,.05-13.53q0-20.22,0-40.46c0-.89-.12-1.65,1.24-1.73,1.15-.08,1.82-1.07,2.12-2.18a5.61,5.61,0,0,0,0-2.73c0-.1.05-.14.15-.13,5,.11,10-.08,14.94,0s10.05.14,15.07,0c5.9-.12,11.79.19,17.68,0a16.07,16.07,0,0,1,3.92.07A2.1,2.1,0,0,1,310,93q0,25.49,0,51a5.27,5.27,0,0,1-.1,1.19c-.1.39-.06,1.88-.44,1.94-.72.1-1.25-.17-1.74.32-2.07,2-2.55,2.52-1.32,5.17.32.69.67,1.36,1,2,.24.5.41,1,.66,1.52.74,1.51.43,2.15-1.21,2.53l-.57.12c-2,.66-3.73,1.56-4.54,3.68-.16.43-.54.73-1,.18a1.12,1.12,0,0,0-1.35-.89c-2.43.4-4.86,0-7.28,0-1,0-1.37.37-1.36,1.34q0,7.84,0,15.68c0,.86.34,1.23,1.2,1.22,1.43,0,2.85,0,4.37,0a3,3,0,0,1-.91-1.05,3.57,3.57,0,0,1,0-3.51c1.14-1.93,2.35-2.3,4.63-1.41.92.54,1.9,1,2.82,1.5,2.39,1.33,5,2.27,7.44,3.41,1.6.45,3,1.34,4.75,1.53a5.52,5.52,0,0,1,2.52,1.31c.91.68.26,1.62.18,2.44s-.63.85-1.25.79c-.26,0-.52,0-.85,0,.58,0,1.08,0,1.59,0,.12.09.12.19,0,.3l-2.75-.05c-3.78-.09-7.55.1-11.32,0-.48,0-1,0-1.43-.09.29-.43.72-.21,1.08-.21,1.72,0,3.44,0,5.17,0,.16,0-.08-.23,0-.1s0,.08-.09.08c-1.87.07-3.73,0-5.59,0-.62,0-.86-.28-.92-.83a2.15,2.15,0,0,0-.26-1.14,1.06,1.06,0,0,0-1.09-.3,35.53,35.53,0,0,1-3.72.07c-1.63,0-1.78.14-2.1,1.78,0,.2-.14.38-.18.57a25.58,25.58,0,0,1-6.77-.08,15.3,15.3,0,0,0-3.45,0c-6.77,0-13.55,0-20.32,0a1,1,0,0,0-.41.2,1.91,1.91,0,0,0,.9,2.89c.43.13.84.31,1.26.48a11.94,11.94,0,0,1,.67,4.59c.11,1.12-.47,1.36-1.48,1.3-2.25-.13-4.52.12-6.77-.14-.19-2.18-.05-7.69-.73-7.9-1-.3-1-1.1-1-1.91q0-6.47,0-12.92c0-3.55,0-7.1,0-10.65a3.9,3.9,0,0,0-1-2.39c-.48-.3-.44-.71-.44-1.14C254.45,155.7,254.43,153.86,254.42,152Z" transform="translate(-27.23 -16.67)"/><path class="cls-11" d="M258.5,91.27a.34.34,0,0,1-.16.13q-11,0-21.93,0H118.48a10,10,0,0,1-3.08-.26,2.7,2.7,0,0,1,.29-3.56l9,0a4.45,4.45,0,0,1,2.1-.39H246.31a3.88,3.88,0,0,1,2.09.39l9.92,0C260,88.86,260.06,90.05,258.5,91.27Z" transform="translate(-27.23 -16.67)"/><path class="cls-11" d="M310.11,145.46V91.4c2.54-.12,5.09-.1,7.64,0a2,2,0,0,1,.25,1.27c0,4.36.19,8.72-.05,13.06-.26,4.67-.29,9.34-.14,14,.41,12.21.05,24.43.19,36.64a1.79,1.79,0,0,0,.57,1.46c.64,1,.47,2.25.65,3.43-.22.36-.45.08-.53-.06-.91-1.59-2.53-1.94-4.1-2.36a2.6,2.6,0,0,1-1-.29c-1.39-.71-1.53-1.21-.49-2.39s1-2.46,1.63-3.65c.6-.94.38-1.56.65-2.66.17-.71.05-.56-.6-.93-.45-.26-.9-.12-1.12-.59-.6-1.32-2.12-1.15-3.35-.94C309.87,147.44,310.48,146,310.11,145.46Z" transform="translate(-27.23 -16.67)"/><path class="cls-11" d="M212,160.93a30.47,30.47,0,0,1,5.73.08c.6.09.68,0,1,.18,1.21.67,1.28,1.79,1.27,3q0,9.1,0,18.19c-.56.2-.51-.32-.6-.56-1-2.76-3.07-4.7-5.15-6.62a7.38,7.38,0,0,0-3.29-1.33c-.55-.15-1.22-.11-1.52-.78a42.48,42.48,0,0,1-.07-6.48c.34-.85,0-3.7.48-4.09C210.88,161.52,211.13,161,212,160.93Z" transform="translate(-27.23 -16.67)"/><path class="cls-28" d="M204.85,124l-.53.29c-3.34.09-6.69.19-10,0q0-7-.08-14c0-2.23,0-4.47,0-6.7a4.93,4.93,0,0,1,4.24-5,5.08,5.08,0,0,1,5.84,2.81,14.15,14.15,0,0,1,.51,1.83c.19.19.14.44.14.68v19.53A1.15,1.15,0,0,1,204.85,124Z" transform="translate(-27.23 -16.67)"/><path class="cls-29" d="M175.1,124.24c-.56-.09-.49-.53-.49-.92,0-6.67,0-13.34,0-20,0-2.84,2.37-4.89,5.41-4.93a4.93,4.93,0,0,1,5.08,4.84c.07,6.79,0,13.58,0,20.37,0,.23,0,.49-.21.64C181.66,124.39,178.38,124.37,175.1,124.24Z" transform="translate(-27.23 -16.67)"/><path class="cls-13" d="M180.58,163c-2.81-3.4-2.75-7.42-.43-5.54.69.31,1,1,1.6,1.44a4.77,4.77,0,0,1,1.61,3.7c0,1.81,1.26,3.06,2.5,4.2a16.86,16.86,0,0,0,6.7,3.82,2.07,2.07,0,0,1,1.33.73,8.37,8.37,0,0,1-2,4.66c-.26.21-.7.19-.74.64a.76.76,0,0,1-.6.24,7.25,7.25,0,0,1-2.88-1.85A21,21,0,0,1,181.62,165,4.06,4.06,0,0,0,180.58,163Z" transform="translate(-27.23 -16.67)"/><path class="cls-11" d="M181.61,159c-.75-.23-1-.92-1.46-1.49a10.23,10.23,0,0,1,6.22-5.55c4.82-1.66,9.43-1.31,13.56,1.94a8.93,8.93,0,0,1,3.23,5.56,5.27,5.27,0,0,0-2.08.31c-.31-.16-.4-.48-.54-.76a8.92,8.92,0,0,0-7.43-5.27,10.86,10.86,0,0,0-10.63,4.53C182.25,158.57,182.09,159,181.61,159Z" transform="translate(-27.23 -16.67)"/><path class="cls-30" d="M201.23,159.7c4.41-2.29,10.73,2.49,8.39,6.65-1.27.34-2.11,1.41-3.3,1.89-.44.1-1,.42-1.25-.2s.22-.87.61-1.17.57-.32.6-.8c-.76,0-1.36-.19-1-1.23.24-.62-.35-.8-.82-.91a8.55,8.55,0,0,1-3.07-1.27C200.46,161.43,200.41,160.61,201.23,159.7Z" transform="translate(-27.23 -16.67)"/><path class="cls-31" d="M170.29,138.11c0-.15,0-.3,0-.45l0-37.83a2.52,2.52,0,0,1,.23-1.47v1.16q0,18.67,0,37.35C170.53,137.29,170.69,137.76,170.29,138.11Z" transform="translate(-27.23 -16.67)"/><path class="cls-32" d="M204.85,124q0-8.55-.07-17.09c0-1.23,0-2.47,0-3.7a.36.36,0,0,1,0-.11,1,1,0,0,1,.14-.15,6.94,6.94,0,0,1,.08.77q0,9.7,0,19.39C205.07,123.39,205.14,123.72,204.85,124Z" transform="translate(-27.23 -16.67)"/><path class="cls-33" d="M193.84,123.66V103.14H194v20.55Z" transform="translate(-27.23 -16.67)"/><path class="cls-34" d="M194.29,124.2l10,0c-.5.35-1.07.19-1.61.19-2.77,0-5.54,0-8.32,0,0,0-.09,0-.1,0A1.21,1.21,0,0,1,194.29,124.2Z" transform="translate(-27.23 -16.67)"/><path class="cls-35" d="M175.1,124.24h9.83c-.25.29-.58.21-.89.21h-8C175.69,124.45,175.36,124.52,175.1,124.24Z" transform="translate(-27.23 -16.67)"/><path class="cls-8" d="M314.66,158.51a6.41,6.41,0,0,1,4.56,2.73,12.26,12.26,0,0,1,1.87,4c.42.59-.07.85-.44,1.11s-.9.5-1.35.76c-.67.41-1.1.92-.84,1.76s-.21.91-.79,1c-4.46,0-9.61,0-14.06-.18-.69-.13.17-.73.09-1.07a2.56,2.56,0,0,0-1.58-1.8c-.71-.36-1.45-.74-1.43-1.72a3.65,3.65,0,0,1,.83-2.26c.83-.46.73-1.48,1.35-2.13a8.35,8.35,0,0,1,3.9-2.21,1.41,1.41,0,0,1,.63.69,4.25,4.25,0,0,0,5.28,1.62,2.08,2.08,0,0,0,1.13-1.16A2.44,2.44,0,0,1,314.66,158.51Z" transform="translate(-27.23 -16.67)"/><path class="cls-4" d="M317.67,185.1h-2c.07-.31.25-.25.37-.25,1.88-.06,2.23-.41,2.23-2.29,0-.26,0-.5-.29-.6-1-.39-1.88-1.21-3-1.31-1.57-.14-2.86-1.09-4.33-1.53a4.35,4.35,0,0,1,1.8-.89,38.37,38.37,0,0,0,5.94-2.81c1-.08,1.7-.83,2.68-.86,1.1-.36,2.18-.83,3.32-.11a3,3,0,0,1,1.56,2.9,3.47,3.47,0,0,1-2.2,3.16c-1.22.5-2.51.81-3.75,1.24-.42.15-1,.13-1.17.7a8.42,8.42,0,0,1-.22,2.07C318.47,185,318.26,185.37,317.67,185.1Z" transform="translate(-27.23 -16.67)"/><path class="cls-36" d="M321,174.56c-.86.38-1.55,1.17-2.61,1a1.84,1.84,0,0,1-.25-1.25c.08-1.61-.12-3.21-.19-4.81.18-.08.48,0,.29-.43-.51-1-.11-1.71.84-2.2.48-.24.95-.53,1.44-.79s.69-.39.58-.88a26,26,0,0,1,.3,5.31C321.28,171.67,320.58,174.42,321,174.56Z" transform="translate(-27.23 -16.67)"/><path class="cls-37" d="M325.67,185.09a21.27,21.27,0,0,1-5.91,0,1.1,1.1,0,0,1,0-.21c.32-.85-.26-1.61-.23-2.42,1.39,0,2.79,0,4.18.1C325.53,182.69,325.89,183.2,325.67,185.09Z" transform="translate(-27.23 -16.67)"/><path class="cls-36" d="M319.49,182.45c.31.78,1.25,1.51.23,2.42-.58.55-1.31.42-2,.43a.24.24,0,0,0-.05-.2c.66,0,.53-.53.56-.93a2.71,2.71,0,0,1,.52-1.72Z" transform="translate(-27.23 -16.67)"/><path class="cls-1" d="M290.64,59.45c-.83.55-15,.51-15.44.52-2.34.05-4.69-.13-7-.17-.06-.06-.15-.12-.15-.18a20.57,20.57,0,0,1,.79-6.89,8.05,8.05,0,0,1,6.49-.79c1.91.61,11.49,2.21,11.8,2.52-.1.31,5.07-8.15,6.43-9.2.09-.12.13-.28.29-.35h.7a2.54,2.54,0,0,1,1.82,1c.62.4.61.87.3,1.5-1.51,3.1-5,10.26-5,10.85v.1C291.21,58.6,291.21,59.27,290.64,59.45Z" transform="translate(-27.23 -16.67)"/><path class="cls-38" d="M287.1,54.46l0,.12c-1.39-.41-2.87-.26-4.24-.83-.52-.21-.61-.25-.6-1.17.05-3.41.59-6.78,1-10.16a1,1,0,0,1,.76-.92,2.08,2.08,0,0,1,2.35,0l.39,0c.43.2.17.65.33.95Z" transform="translate(-27.23 -16.67)"/><path class="cls-39" d="M295.51,42.92a26.43,26.43,0,0,1,.27-2.68,1,1,0,0,1,1.46-.78c2.09.6,4.19,1.17,6.24,1.88a7.19,7.19,0,0,1,2.11,1.38c.5.42.06.69-.34.81a14.15,14.15,0,0,1-3.75.62c-1.12,0-2.24,0-3.35,0A5.1,5.1,0,0,0,295.51,42.92Z" transform="translate(-27.23 -16.67)"/><path class="cls-39" d="M283.73,39.56a3.09,3.09,0,0,1,1.51-4,36.24,36.24,0,0,1,5.43-2.43c.42-.09.83-.21,1.05.13s-.14.73-.39,1a53.93,53.93,0,0,0-4.08,4.59.24.24,0,0,1-.2.22l-.64.58A8.31,8.31,0,0,0,283.73,39.56Z" transform="translate(-27.23 -16.67)"/><path class="cls-40" d="M295.51,42.92c1.29-.52,2,.29,2.64,1.19-.59.06-.57.61-.75,1s-.47.84-1,.78a5.08,5.08,0,0,1-1.83-1C294.48,44.07,295.38,43.68,295.51,42.92Z" transform="translate(-27.23 -16.67)"/><path class="cls-3" d="M287.79,51.08c-.58-.1-.19-3.79.32-5.88.09-.38.06-.93.74-.89.86,0,.7.58.69,1s1.31,1.11.3,1.66c-.58-.18-.19-1-1-.87s-.24.64-.07,1a1.46,1.46,0,0,1-.33,1.82c-.91.6-.83,1.33-.69,2.15Z" transform="translate(-27.23 -16.67)"/><path class="cls-41" d="M283.73,39.56a1.82,1.82,0,0,1,2.68.08c-.22.29.09,1.23,0,1.39s0,.31-.08.46H284A3.24,3.24,0,0,1,283.73,39.56Z" transform="translate(-27.23 -16.67)"/><path class="cls-42" d="M302.25,58.25l-10.4,0A62.27,62.27,0,0,1,302.25,58.25Z" transform="translate(-27.23 -16.67)"/><path class="cls-3" d="M303.12,38.94c.57.67,1.45.21,2.09.65a3.73,3.73,0,0,1-1.9.92C303.23,40,303.52,39.43,303.12,38.94Z" transform="translate(-27.23 -16.67)"/><path class="cls-3" d="M287,42.48c-.24-.27,0-.71-.33-.95.37.09.62.41,1,.57.88.39.36,1.23.23,2C287.14,43.74,288.07,42.59,287,42.48Z" transform="translate(-27.23 -16.67)"/><path class="cls-3" d="M286.4,41c0-.16,0-.32,0-.48s.17,0,.22-.06c.36-.32.75-.58,1.24-.31a.39.39,0,0,1,.15.51c-.24.55-.74.27-1.13.34A3.53,3.53,0,0,1,286.4,41Z" transform="translate(-27.23 -16.67)"/><path class="cls-3" d="M291.19,48c-.3-.29-.39-.75-.86-.92a.48.48,0,0,1-.16-.72.63.63,0,0,1,.35-.28c.36,0,.43.28.55.52a2.36,2.36,0,0,1,.12,1.39Z" transform="translate(-27.23 -16.67)"/><path class="cls-3" d="M286.71,34.58c-.64.18-.66.52-1.08.63-.72-1.12.7-.81.79-1.38C286.92,34,286.17,34.47,286.71,34.58Z" transform="translate(-27.23 -16.67)"/><path class="cls-3" d="M300.64,38.79c0,.26-.19.31-.4.31s-.6,0-.64-.34c0-.23.16-.33.39-.35A.59.59,0,0,1,300.64,38.79Z" transform="translate(-27.23 -16.67)"/><path class="cls-3" d="M293.82,44.91l-.29.35a.33.33,0,0,1-.06-.1c-.1-.29-.79-.46-.37-.8S293.63,44.64,293.82,44.91Z" transform="translate(-27.23 -16.67)"/><path class="cls-3" d="M322.05,26.67c-.58.5-.92.44-1.27.07C321.17,26.18,321.53,26.73,322.05,26.67Z" transform="translate(-27.23 -16.67)"/><path class="cls-3" d="M288.65,32.8c.53-.5.84-.43,1.22-.22C289.58,33.07,289.22,32.8,288.65,32.8Z" transform="translate(-27.23 -16.67)"/><path class="cls-3" d="M287.05,39.06l.2-.22c.24.13.53.19.65.48,0,0-.12.21-.2.23C287.3,39.64,287.1,39.45,287.05,39.06Z" transform="translate(-27.23 -16.67)"/><path class="cls-3" d="M300.66,40a.83.83,0,0,1,1.22-.26C301.53,40.23,301.12,40,300.66,40Z" transform="translate(-27.23 -16.67)"/><path class="cls-3" d="M292.09,43.83c-.23-.08-.39-.19-.37-.42a.35.35,0,0,1,.37-.35c.21,0,.23.18.24.33A.37.37,0,0,1,292.09,43.83Z" transform="translate(-27.23 -16.67)"/><path class="cls-43" d="M130.45,222H44v-.12h86.47Z" transform="translate(-27.23 -16.67)"/><path class="cls-44" d="M130.44,216.45H44v-.12h86.48Z" transform="translate(-27.23 -16.67)"/><path class="cls-9" d="M127.32,201.34a20.17,20.17,0,0,0,4.52,5.14c.14.14.28.08.38-.08a2.79,2.79,0,0,1,.92,2.49c0,.48-.38.41-.67.45a20.87,20.87,0,0,0-2.8-2.42c-1.08-1.06-2.13-2.15-3.24-3.17a4.72,4.72,0,0,1-.7-.93c-.45-.56-.08-1,.3-1.28S126.8,200.77,127.32,201.34Z" transform="translate(-27.23 -16.67)"/><path class="cls-5" d="M191.68,176.05c1.11-1.33,1.47-3,2.11-4.54.25-.34.59-.22.87-.11,1.9.79,3.9.62,5.88.63.35,0,.71,0,1.07,0a3.38,3.38,0,0,1,1.22.14,5.22,5.22,0,0,0,5.7.88,1.64,1.64,0,0,1,1.18.23c5.24.62,7.92,4.24,10,8.57.08.17,0,.4.27.5v.78a1.07,1.07,0,0,1-.81.42c-1.45.14-2.74.94-4.22.93a1.1,1.1,0,0,1-.5-.82,18.9,18.9,0,0,1,.06,2.65c-.18,1.36-1.3,1.53-2.3,1.66a9,9,0,0,1-5.17-1.18c-.85-.41-1-1.48-1.54-2.21-.46-1.89-1.19-3.7-1.69-5.58a1.52,1.52,0,0,0-.92-1.16c-3.4-.55-6.84-.8-10.24-1.31C192.26,176.5,191.8,176.6,191.68,176.05Z" transform="translate(-27.23 -16.67)"/><path class="cls-45" d="M241.93,186.75a29,29,0,0,0-5.58-7.91,8.89,8.89,0,0,0-4.5-2.5c-.62,0-.67-.47-.79-.88-.32-1.15-.55-2.32-.84-3.48a3.8,3.8,0,0,1,.55-3.42.66.66,0,0,0,.13-.77c-.06-.08-.14-.12-.21-.07-1.31.82-1.32.81-1.67-.7-.39-1.71-.66-1.85-2.89-1.48-1.17-1.4-.95-2.57.67-3.4.41-.21.85-.37,1.28-.55l.17,0c1.79-.25,2.82.83,3.7,2.13a9.82,9.82,0,0,0,1,1.49,4.13,4.13,0,0,0,.95.82c.22.14.43.3.66.42.42.25.9.37,1.34.58,1.43.68,1.9,2,2.25,3.38.12.37.43.69.34,1.12.41.46,1,.43,1.53.52a10.89,10.89,0,0,1,6.06,3.27c.41,1.29,1.17,2.47,1.09,3.9-.07,1.27-.11,2.53-1.12,3.49a6.28,6.28,0,0,1-1.92,1.2,2.7,2.7,0,0,0-1.87,2.39A.49.49,0,0,1,241.93,186.75Z" transform="translate(-27.23 -16.67)"/><path class="cls-46" d="M238.44,123.23l-.28,1c-3.36.17-6.72.13-10.07,0l-.24,0h0c0-6.89-.08-13.78,0-20.67a4.87,4.87,0,0,1,4.91-5.12c2.74-.14,5.21,1.43,5.51,4.32a.53.53,0,0,0,.12.2c.24.23.15.52.15.79q0,9.47,0,18.92A1.47,1.47,0,0,1,238.44,123.23Z" transform="translate(-27.23 -16.67)"/><path class="cls-47" d="M228.33,152.05c-.59-.12-.42-.6-.42-1,0-6.31,0-12.62,0-18.93,0-.79.23-1,1-1,2.84,0,5.67,0,8.51,0,.67,0,1,.08,1,.88,0,6.43,0,12.86,0,19.29,0,.27,0,.57-.28.72C234.87,152.17,231.6,152.19,228.33,152.05Z" transform="translate(-27.23 -16.67)"/><path class="cls-13" d="M215,184.35a22.59,22.59,0,0,1,5-1.2c.47,1.22,0,2.43,0,3.65a6.12,6.12,0,0,1-5.24,4.26,3.67,3.67,0,0,1-1.19,0c-2.23-.16-4.17-1.22-6.22-1.93a1.68,1.68,0,0,1-1.7-.89,1.71,1.71,0,0,0-2.06-.79c-.88.27-1.15-.38-1.48-1-1.24-2.19-.49-1.95,1.09-2.37.78-.21,1.68-.73,2.38.25.25.3.66.55.75.89.44,1.64,1.93,1.69,3.14,2.1a5.34,5.34,0,0,0,4.15-.09,1,1,0,0,0,.63-1C214.75,185.75,214.34,184.85,215,184.35Z" transform="translate(-27.23 -16.67)"/><path class="cls-13" d="M226.13,165.54c1.34-1.09,2.76-.64,3.14,1,.12.53.21,1.06.31,1.61.66-.21.77-1.54,1.61-.87s0,1.25-.39,1.83a2.76,2.76,0,0,0-.37,2.16,19.11,19.11,0,0,0,1.42,5.08,2.09,2.09,0,0,1-3.5.55c-.22-.21-.24-.62-.62-.66-.13-1.45.08-2.94-.63-4.29,0-.06-.11-.14-.18-.16-2.15-.6-2.63-1.63-1.76-3.75A7.73,7.73,0,0,1,226.13,165.54Z" transform="translate(-27.23 -16.67)"/><path class="cls-48" d="M233.85,166.29a2.1,2.1,0,0,1-1-.85,18.72,18.72,0,0,1-.06-3.43c0-.88-.29-1.37-1.24-1.27s-2-.38-2.58.87c-.1.21-.58.19-.86,0l0,0c.19-2.16.19-2.16,2.39-2.16,2.44,0,4.87,0,7.31,0,.64,0,.92.15.91.86,0,3.63,0,7.26,0,10.89a.35.35,0,0,1-.25.35c-.16-.35-.6-.55-.57-1a9.31,9.31,0,0,1-.2-1.39c-.28-1.77-.26-1.77-2-1.93-.56,0-.91-.41-1.36-.6.41-.8,1.17-.48,1.79-.52,1.34-.09,1.41-.12,1.42-1.45,0-1,0-1.91,0-2.87,0-.63-.3-.9-.94-1-2.17-.23-2.36,0-2.42,2.15C234.15,164,234.52,165.22,233.85,166.29Z" transform="translate(-27.23 -16.67)"/><path class="cls-49" d="M227.85,124.21c-.17.17-.37.22-.43-.06a4.3,4.3,0,0,1-.06-1q0-9.23,0-18.45a2.23,2.23,0,0,1,.23-1.37v3.18q0,8.2,0,16.41c0,.41-.19.89.23,1.23Z" transform="translate(-27.23 -16.67)"/><path class="cls-50" d="M238.44,123.23c0-1.19-.09-2.38-.09-3.58q0-8.36,0-16.72c.46-.13.27.25.27.4q0,9.61,0,19.24A.83.83,0,0,1,238.44,123.23Z" transform="translate(-27.23 -16.67)"/><path class="cls-49" d="M228.09,124.25l10.07,0c-.14.07-.27.2-.41.2-3.08,0-6.16,0-9.25,0C228.36,124.44,228.23,124.31,228.09,124.25Z" transform="translate(-27.23 -16.67)"/><path class="cls-51" d="M228.33,152.05h9.82c-.47.37-1,.18-1.51.19q-3.58,0-7.17,0C229.08,152.24,228.66,152.37,228.33,152.05Z" transform="translate(-27.23 -16.67)"/><path class="cls-2" d="M338.63,216.68c0,2.16,0,4.31,0,6.47a1.28,1.28,0,0,1-1.43,1.48c-2.44,0-4.87,0-7.31,0-.95,0-1.41-.39-1.37-1.45.09-2.31-.17-4.61-.14-6.91s.11-4.52.15-6.79a.85.85,0,0,1,.72-.94,8.1,8.1,0,0,1,1.06-.18c2.15,0,4.31,0,6.46,0,1.44,0,1.85.45,1.86,1.86v6.46Z" transform="translate(-27.23 -16.67)"/><path class="cls-2" d="M323.05,216.19c0-1.95,0-3.91,0-5.87,0-1.69.55-2.14,2.21-1.84s1.6.29,1.65,2c.06,2.27.06,4.55.09,6.81,0,2,0,4.05-.09,6.07,0,.91-.45,1.26-1.34,1.28-2.28.06-2.46-.06-2.5-2.33,0-2,0-4.08,0-6.12Z" transform="translate(-27.23 -16.67)"/><path class="cls-52" d="M336.18,193.78h-68v-.22h68Z" transform="translate(-27.23 -16.67)"/><path class="cls-53" d="M268.13,191.38H336v.22H268.17Z" transform="translate(-27.23 -16.67)"/><path class="cls-54" d="M268.15,195.7H336v.22H268.16Z" transform="translate(-27.23 -16.67)"/><path class="cls-55" d="M336.18,198h-68v-.14h68.05Z" transform="translate(-27.23 -16.67)"/><path class="cls-56" d="M336,200.15H268.11V200H336Z" transform="translate(-27.23 -16.67)"/><path class="cls-57" d="M258.16,194.44c2.23,0,4.46-.05,6.68,0,1,0,1.46-.25,1.57-1.19,0,.47,0,.93,0,1.4-2.41,0-4.82,0-7.23,0C258.87,194.66,258.43,194.9,258.16,194.44Z" transform="translate(-27.23 -16.67)"/><path class="cls-9" d="M98.33,44.9c-.2-.67.45-.7.75-1,.09.46.18.93.28,1.39.35,1.52.71,3,2.15,4a4.78,4.78,0,0,1,.59.6,7.38,7.38,0,0,1,2.43,7.75,11.26,11.26,0,0,0-.19,1.42c-.12,1.09-.41,1.24-1.37.64a7.72,7.72,0,0,1-3.62-6.38,12.11,12.11,0,0,1,.16-3.7,2.26,2.26,0,0,0-.12-1.4C99,47.1,98.68,46,98.33,44.9Z" transform="translate(-27.23 -16.67)"/><path class="cls-19" d="M123.84,60.42l-15.46,0a.83.83,0,0,1-.66-.2h15.43A2.87,2.87,0,0,1,123.84,60.42Z" transform="translate(-27.23 -16.67)"/><path class="cls-58" d="M268.81,52.73l-.65,7a10.83,10.83,0,0,1-3.31.2c-2.9.1-5.81.21-8.71.07l-6-.33c-.55-.31-.65-.86-.82-1.4-.5-1.59-1-1.8-2.4-.93a11.51,11.51,0,0,1-5.59,1.4,1.13,1.13,0,0,1-1.06-.43,3.84,3.84,0,0,1,1.78-2c1.73-.93,2.29-2.52,2.85-4.2a9.37,9.37,0,0,1,3-4.77c.71-.47,1.63-.15,2.37-.83a3.18,3.18,0,0,0,1.28-2.12c1-.19,1.93-.63,2.89,0-.72.44-1.7.62-1.79,1.72.31-1.43,1.37-1.5,2.53-1.42,1.58.43,2.68,1.63,4,2.5,2.1,1.43,4.1,3,6.1,4.58C266.36,52.53,267.36,53.32,268.81,52.73Z" transform="translate(-27.23 -16.67)"/><path class="cls-59" d="M251.62,44.37a.86.86,0,0,1-.06,1.27c-1,1.07-2,2.11-3.66,1.6.06-.76-.61-1.14-.88-1.73a4.62,4.62,0,0,1,1.45-2.23c.15-.18.41-.27.33-.57l.2-.25C250.22,42.62,250.61,43.92,251.62,44.37Z" transform="translate(-27.23 -16.67)"/><path class="cls-60" d="M255.23,44.62s0,.08-.08.09c-1.78.51-1.78.51-2.68,2.16a2.12,2.12,0,0,1,2-2.55Z" transform="translate(-27.23 -16.67)"/><path class="cls-37" d="M294.53,185.13c-.27-2.16.15-2.67,2.27-2.71,1.31,0,2.62,0,3.93,0,0,.84-.58,1.6-.26,2.46-.16.41-.52.31-.82.31Z" transform="translate(-27.23 -16.67)"/><path class="cls-61" d="M263.58,185.09c.27-.33.65-.25,1-.25h22.15c.35,0,.73-.09,1,.2l-1.88.07a1.51,1.51,0,0,1-.7.09H264.4A1.37,1.37,0,0,1,263.58,185.09Z" transform="translate(-27.23 -16.67)"/><path class="cls-62" d="M263.58,185.09l22.3,0c-.25.27-.58.2-.89.2H263.58Z" transform="translate(-27.23 -16.67)"/><path class="cls-36" d="M300.47,184.86c-1-.93-.14-1.67.26-2.46.34-.33.58.12.88.11a3.53,3.53,0,0,1,.83,2.49A3.83,3.83,0,0,1,300.47,184.86Z" transform="translate(-27.23 -16.67)"/><path class="cls-63" d="M52.86,57.05c7.52.8,15,1.58,22.43,2.39A4.63,4.63,0,0,0,79,58.35L98.24,42.24c.7-.59,1.37-1.22,2.08-1.79.22-.18.56-.51.83-.19s-.19.52-.4.7c-2.56,2.15-5.14,4.3-7.71,6.44-4.47,3.73-9,7.42-13.4,11.2a6.15,6.15,0,0,1-5,1.37c-7.25-.8-14.51-1.54-21.77-2.34-.42-.05-1.27.29-1.2-.44C51.72,56.65,52.49,57.21,52.86,57.05Z" transform="translate(-27.23 -16.67)"/><path class="cls-5" d="M127.32,201.34a1.33,1.33,0,0,0-1.59,1.48c-.32.36-.74.24-1.13.24H80.37c.65-1.4,1.6-1.74,3-1.05.63.3,1.41,0,1.24-.88s1-1.13.64-1.62-1.05.37-1.72.22-.55-.58-.55-1c0-1.75,0-3.51,0-5.27,0-.92-.26-1.6-1.29-1.65-.66,0-.64-.46-.64-.91,0-1.12,0-2.24,0-3.36,0-.83-.33-1.4-1.21-1.47-.49,0-.75-.2-.71-.72a.69.69,0,0,1,.77-.73,1.18,1.18,0,0,0,1.14-.72h12.2c.42,0,.89.15,1.25-.23.62-.52,1.2-.22,1.78.07,1.71,1.55,3.89,1.26,5.91,1.45a37.05,37.05,0,0,0,6.32,0,21.25,21.25,0,0,0,5.86-1.55,5.28,5.28,0,0,1,1.82-.52,5.53,5.53,0,0,0,1.52,0c.46-.06,1-.1,1.24.41a7.21,7.21,0,0,1,.26,2.26c-.81.66-1.76.34-2.65.38-1.43.08-1.58.15-1.56,1.6.06,3.66-.27,7.32,0,11,.1,1.56.25,1.79,1.83,1.8s3.35,0,5,0a1.49,1.49,0,0,0,1.68-1.46c.13-1,.07-1.91.11-2.86,0-.54-.09-1.13.38-1.57,1.52,1.44,2.48,3.34,3.89,4.88C128.6,200.27,127.65,200.77,127.32,201.34Z" transform="translate(-27.23 -16.67)"/><path class="cls-5" d="M74.15,183.92H77c0,.25-.1.57-.32.57a23.77,23.77,0,0,1-2.39-.15C74.23,184.34,74.2,184.07,74.15,183.92Z" transform="translate(-27.23 -16.67)"/><path class="cls-9" d="M241.93,186.75a2.75,2.75,0,0,1,2.1-3.12c.7-.24,1.19-.93,2-.94a6.56,6.56,0,0,1-.33,4.35c-.5,1-.26,2.34-.36,3.52a5.18,5.18,0,0,1-2.27.31C242.79,189.47,242,188.2,241.93,186.75Z" transform="translate(-27.23 -16.67)"/><path class="cls-9" d="M233.16,187.68a14.94,14.94,0,0,1,.75-5,16.89,16.89,0,0,1,5.14,8.68c0,.06-.06.14-.09.21C234.49,192.46,233.34,193.65,233.16,187.68Z" transform="translate(-27.23 -16.67)"/><path class="cls-64" d="M235.81,199.42l-2.3-4.43c-.56-1.08-.32-1.63.92-2q.73,2.93,1.48,5.84C236,199,236.07,199.25,235.81,199.42Z" transform="translate(-27.23 -16.67)"/><path class="cls-9" d="M238.65,191.42c.08,0,.21.1.31.15,0,.58-.49.42-.8.44a9.48,9.48,0,0,0-3.58.51C233.49,192.08,236.86,192.1,238.65,191.42Z" transform="translate(-27.23 -16.67)"/><path class="cls-12" d="M116,183.4a30.15,30.15,0,0,1-6.33,2,18.34,18.34,0,0,1-3.32.19,60.61,60.61,0,0,1-7.26-.27,3.69,3.69,0,0,1-2.92-1.38,2,2,0,0,1-.47-.57,2,2,0,0,1-.07-1.5,16.14,16.14,0,0,1,3.24-6.34,30.91,30.91,0,0,1,7.13.07,3.06,3.06,0,0,0,2.29.78c1.46,0,2.93,0,4.39,0a2,2,0,0,1,1.47.32c1.21.18,2.45-.17,3.67.32.44.17,1-.6,1.64-.11-2.06,1.49-2.75,3.64-2.89,6.05C116.5,183.24,116.24,183.32,116,183.4Z" transform="translate(-27.23 -16.67)"/><path class="cls-65" d="M124,194.66a44.11,44.11,0,0,1-.21,5,1.29,1.29,0,0,1-1.43,1.24q-3.16,0-6.34,0c-.94,0-1.38-.42-1.42-1.47-.16-4.13.1-8.25,0-12.38,0-.93.3-1.3,1.25-1.25,1.11,0,2.23,0,3.35,0A36.45,36.45,0,0,0,124,194.66Z" transform="translate(-27.23 -16.67)"/><path class="cls-9" d="M116,183.4l.57-.47a2.56,2.56,0,0,0,1.46-.31c.35-.16.81-.41,1.07-.18s.1.73-.1,1.08Z" transform="translate(-27.23 -16.67)"/><path class="cls-66" d="M180.58,163a1.5,1.5,0,0,1,1.16,1.31,21.1,21.1,0,0,0,6.18,10.56,8.25,8.25,0,0,0,2.78,1.81c.26.17-.41.7.27.71-.73.75-.54,1.51-.11,2.35,1.8,3.56,3.73,7.05,5.75,10.49.18.31.43.59.29,1-5.14,0-10.28,0-15.43.05-1,0-.9-.61-.9-1.24V165C180.57,164.32,180.58,163.68,180.58,163Z" transform="translate(-27.23 -16.67)"/><path class="cls-1" d="M196.9,191.26c-2.27-3.67-4.33-7.45-6.27-11.3-.18-.35-.29-.74-.48-1.08-.43-.82-.11-1.22.71-1.39.79-.72,1.72-.38,2.6-.32,2.73.19,5.46.39,8.18.64a1.17,1.17,0,0,0,.69-.12,1,1,0,0,1,.93-.05c.11,0,.31,0,.33.07.75,2.19,1.73,4.32,1.93,6.67-1.35-.59-2.54.13-3.77.48a.24.24,0,0,0-.09.45c.6.41.59,1.07.78,1.65s.7.35,1,.25a1.69,1.69,0,0,1,2.38.85,3,3,0,0,0,1.49,1.09,2,2,0,0,1-2,2.37c-1.09.08-2.2.06-3.3.08l-3.89,0A1.45,1.45,0,0,1,196.9,191.26Z" transform="translate(-27.23 -16.67)"/><path class="cls-13" d="M240.29,58.27a9.69,9.69,0,0,0,6.65-1.39c1.57-1,2.12-.54,2.69,1.19a12.46,12.46,0,0,1,.53,1.56,42.19,42.19,0,0,1-10,.76c-1.78-.36-3.57.29-5.34,0,1.17-2.15,3.21-3,5.25-2.11Z" transform="translate(-27.23 -16.67)"/><path class="cls-36" d="M248.75,42.72c.21.2.26.44,0,.62A21,21,0,0,0,247,45.57c-.4-.26-.65.11-1,.23a2.32,2.32,0,0,1-3.31-1.38,8.14,8.14,0,0,1-.74-3.34,3.07,3.07,0,0,1,2.81-1.53c1.61-.94,1.6-.85,1.77.8a2.26,2.26,0,0,0,.13.33.73.73,0,0,0,.17.19c.09-.12.2-.23.28-.36.2-.34.37-.85.84-.63s.51.75.31,1.24a1.54,1.54,0,0,0,0,1.58C248.46,43,248.59,42.83,248.75,42.72Z" transform="translate(-27.23 -16.67)"/><path class="cls-67" d="M95.91,183.38l.25.53a3.2,3.2,0,0,0-1.62-.25q-13.37,0-26.74,0c-.46,0-1,.16-1.38-.2l0-.07a2.4,2.4,0,0,1,1.61-.34H94.31A2.27,2.27,0,0,1,95.91,183.38Z" transform="translate(-27.23 -16.67)"/><path class="cls-4" d="M95.91,183.38H66.46q0-11.15,0-22.28c0-.48.07-1-.27-1.38-.89-.93-.7-2.05-.7-3.14q0-32.1,0-64.21l27.07,0h22.76c-.09,3.28,2.26,4.53,5.16,4.24,1.05-.11,1.15.24,1.14,1.12q0,29.32,0,58.66c0,.64,0,1.28,0,1.92a3.1,3.1,0,0,0-1,2.69c.06,1.07,0,2.15,0,3.23-2,1.38-2.25,3.76-3.34,5.66-.76,1.3-1.33,2.7-2,4.06a.48.48,0,0,1-.63-.16,2.09,2.09,0,0,0-3.06-.7,1.27,1.27,0,0,1-.82.07c-.38-.06-.67-.22-.64-.68a34.21,34.21,0,0,1,3-3.35,9.69,9.69,0,0,0,2.3-3.43,7.22,7.22,0,0,0-.5-4.54,52.2,52.2,0,0,0-2.47-5.56.86.86,0,0,1,.91-1.19,2.35,2.35,0,0,0,2.17-1.87,14.37,14.37,0,0,0,.72-3.48,3.5,3.5,0,0,1,.88-1.27,2,2,0,0,0,.2-2.82c-1.15-1.75-3.13-2.15-5.19-1-.45.25-.86.58-1.31.84s-.68.27-.84-.24c-.24-3.14-.07-6.3-.1-9.44,0-2.29,0-2.29-2.29-2.29-2,0-4.07,0-6.11,0-1.26,0-1.44.21-1.44,1.5,0,4.42,0,8.85,0,13.28a6.18,6.18,0,0,1-.08,1.55c-.39,1-1.15.74-1.9.54a13,13,0,0,0-6.73-.35,8.14,8.14,0,0,0-5.84,5.33,4.36,4.36,0,0,0,1.09,4.83c2.11,2.32,2.23,3.27.71,5.94a3.85,3.85,0,0,0-.14,3.45c1,2.73,3.25,4,6.36,3.79.57,0,1.19-.3,1.71.2a3,3,0,0,0,2.73,2.64.76.76,0,0,1,.58.35c-.71,1.43-1.46,2.85-2.14,4.31A5.06,5.06,0,0,0,95.91,183.38Z" transform="translate(-27.23 -16.67)"/><path class="cls-4" d="M248.4,87.53H124.72c1.7-1.37,45.92-27.39,50.73-30.24,2.28-1.34,4.66-2.55,6.9-4,2-1.25,4-2.44,6-3.67a1.75,1.75,0,0,1,2.24-.06C199.94,55.74,246.8,85.9,248.4,87.53Z" transform="translate(-27.23 -16.67)"/><path class="cls-42" d="M256.14,60l12-.27c2.43,0,4.87.07,7.3.12.4,0,.91-.21,1.14.37-3.27.25-6.53-.43-9.79-.19s-6.29.22-9.43.21C257,60.2,256.49,60.36,256.14,60Z" transform="translate(-27.23 -16.67)"/><path class="cls-42" d="M282,60.18c1-.55,2.18-.29,3.27-.38.91-.07,1.83,0,2.75,0A23,23,0,0,1,282,60.18Z" transform="translate(-27.23 -16.67)"/><path class="cls-42" d="M292.15,58.58h3.29v.12h-3.25Z" transform="translate(-27.23 -16.67)"/><path class="cls-42" d="M290.64,59.45c.4-.32.27-1.1,1-1.14C291.48,58.84,291.42,59.46,290.64,59.45Z" transform="translate(-27.23 -16.67)"/><path class="cls-68" d="M228.09,42.51c2.54-.57,5.07-1.15,7.62-1.7.68-.14.89.35.95.92s-.32.75-.87.76C233.25,42.51,230.71,42.4,228.09,42.51Z" transform="translate(-27.23 -16.67)"/><path class="cls-13" d="M111.59,172.75c2-.63,2-.65,3.38.89a1.73,1.73,0,0,0,.39.25c-.21.48-.43,1-.65,1.43a1.58,1.58,0,0,1-.66.26c-2.69.12-5.38,0-8.07.17l-7.34,0a12.84,12.84,0,0,1-1.59-.33c-1.2-.49-2-1.19-1.79-2.61s.89-3.12,1.24-2.91c.54.32,2,1.07,2.56,1.35C99.88,171.68,111.17,172.88,111.59,172.75Z" transform="translate(-27.23 -16.67)"/><path class="cls-9" d="M106,175.75a3.25,3.25,0,0,1,2-.43h6.78l-.57,1.35c-2.3,0-4.59,0-6.89,0C106.56,176.69,106.1,176.48,106,175.75Z" transform="translate(-27.23 -16.67)"/><path class="cls-69" d="M146.61,103.82c-1.15,0-2.31,0-3.46,0-.86,0-1-.37-.91-1.09a4.81,4.81,0,0,1,4.65-3.68,4.69,4.69,0,0,1,4.12,3.44c.24.81.18,1.39-.94,1.33S147.77,103.82,146.61,103.82Z" transform="translate(-27.23 -16.67)"/><path class="cls-70" d="M151.11,113.93c0,2.86,0,2.82-2.9,2.86-.94,0-1.26-.25-1.2-1.21.08-1.31,0-2.63,0-4,0-.35,0-.79.48-.79a12.93,12.93,0,0,1,3,.09.7.7,0,0,1,.62.84C151.09,112.49,151.11,113.21,151.11,113.93Z" transform="translate(-27.23 -16.67)"/><path class="cls-71" d="M142,113.78c0-2.81,0-2.77,2.8-2.8.95,0,1.37.21,1.29,1.24-.09,1.23,0,2.47,0,3.7,0,.6-.18.91-.82.84h-.12C141.33,116.7,142.12,117.29,142,113.78Z" transform="translate(-27.23 -16.67)"/><path class="cls-72" d="M151.1,107.5c0,2.82,0,2.77-2.8,2.83-1,0-1.36-.23-1.29-1.26.08-1.23,0-2.47,0-3.71,0-.61.2-.9.83-.83a1.92,1.92,0,0,0,.24,0C151.09,104.49,151.09,104.49,151.1,107.5Z" transform="translate(-27.23 -16.67)"/><path class="cls-73" d="M151.11,120.12c0,2.95,0,2.92-3,2.92-.87,0-1.21-.22-1.15-1.14a30.71,30.71,0,0,0,0-3.59c0-.87.3-1.15,1.1-1h.12C151.11,117.26,151.11,117.26,151.11,120.12Z" transform="translate(-27.23 -16.67)"/><path class="cls-74" d="M142,120.06c0-2.8,0-2.76,2.8-2.8,1,0,1.36.22,1.29,1.25a32.89,32.89,0,0,0,0,3.58c0,.75-.26,1-1,.94a.24.24,0,0,0-.12,0C142,123.08,142,123.08,142,120.06Z" transform="translate(-27.23 -16.67)"/><path class="cls-75" d="M142,107.73v-.24c0-3.09.36-3.39,3.42-3,.45.06.65.22.65.66,0,1.43,0,2.86.05,4.29,0,.66-.16.87-.78.83-.24,0-.48,0-.72,0C141.68,110.27,142.06,110.75,142,107.73Z" transform="translate(-27.23 -16.67)"/><path class="cls-76" d="M150.9,163.65c0,.76,0,1.52,0,2.28s-.28,1-1,.94c-3.45-.09-3.1.54-3.11-3,0-3,0-2.93,2.85-3,1.07,0,1.53.2,1.25,1.34A6.21,6.21,0,0,0,150.9,163.65Z" transform="translate(-27.23 -16.67)"/><path class="cls-77" d="M146.08,163.92c0,3,0,3-3,3-.83,0-1.11-.25-1.07-1.09.06-1.27,0-2.55,0-3.83,0-.31-.05-.64.23-.89a11.75,11.75,0,0,1,3.65-.08c.27.21.2.5.2.77C146.09,162.48,146.08,163.2,146.08,163.92Z" transform="translate(-27.23 -16.67)"/><path class="cls-78" d="M146.08,170.41v.12c-.05.87.38,2.17-.15,2.51-.91.57-2.21.3-3.35.28-.49,0-.58-.3-.58-.71,0-1.51,0-3,0-4.53,0-.5.19-.75.7-.71h.12C146.08,167.15,146.08,167.15,146.08,170.41Z" transform="translate(-27.23 -16.67)"/><path class="cls-79" d="M150.92,170.47c0,.87.31,1.93-.08,2.57s-1.52,0-2.34.07c-1.67.23-1.68.17-1.68-1.48V168.4c0-.72.32-1,1.1-1.05C150.91,167.27,150.91,167.24,150.92,170.47Z" transform="translate(-27.23 -16.67)"/><path class="cls-80" d="M150.9,176.87c0,2.7,0,2.64-2.68,2.74-1.18,0-1.52-.35-1.42-1.48a30.72,30.72,0,0,0,0-3.46c0-.61.19-.82.82-.86C150.92,173.62,150.92,173.6,150.9,176.87Z" transform="translate(-27.23 -16.67)"/><path class="cls-77" d="M142,176.65c0-2.86,0-2.81,2.91-2.85,1,0,1.25.28,1.19,1.22a35.82,35.82,0,0,0,0,3.59c0,.7-.18,1.08-.94,1a.48.48,0,0,0-.12,0C142,179.64,142,179.64,142,176.65Z" transform="translate(-27.23 -16.67)"/><path class="cls-81" d="M146.58,142.62V142c0-3.05.35-3.34,3.43-2.95.53.06.61.34.7.76a15.38,15.38,0,0,1-.07,4.74c0,.35-.26.46-.57.46H149C146.58,145,146.58,145,146.58,142.62Z" transform="translate(-27.23 -16.67)"/><path class="cls-82" d="M145.84,142c0,3.15,0,3.12-3.17,3-.76,0-.94-.3-.92-1,0-1.35.05-2.71,0-4.06,0-.75.26-1,1-1s1.66.05,2.49,0c.48,0,.64.21.63.65C145.83,140.51,145.84,141.26,145.84,142Z" transform="translate(-27.23 -16.67)"/><path class="cls-83" d="M145.85,135.6c0,3.06,0,3-3.09,3-.79,0-1-.24-1-1,0-1.35,0-2.7,0-4.05,0-.51.08-.71.66-.82C145.6,132.12,145.85,132.31,145.85,135.6Z" transform="translate(-27.23 -16.67)"/><path class="cls-84" d="M150.85,148.08a17,17,0,0,0-.08,2.17c.06,1.11-.47,1.12-1.25,1.05-.28,0-.56,0-.84,0-2,0-2,0-2.09-2,0-.92,0-1.84,0-2.75,0-.66.28-1.07,1-1a7.85,7.85,0,0,0,.84,0C151.15,145.59,150.82,145.17,150.85,148.08Z" transform="translate(-27.23 -16.67)"/><path class="cls-84" d="M146.58,135.49c0-2.68,0-2.56,2.68-2.73,1.32-.08,1.64.45,1.51,1.47a26.72,26.72,0,0,0-.1,3.46c0,.68-.24.92-.91.9C145.92,138.49,146.66,139.19,146.58,135.49Z" transform="translate(-27.23 -16.67)"/><path class="cls-79" d="M145.85,148.52c0,2.8,0,2.75-2.82,2.8-1,0-1.36-.25-1.29-1.26a26.79,26.79,0,0,0,0-3.47c-.05-.87.3-1.05,1.1-1.05C145.85,145.53,145.85,145.51,145.85,148.52Z" transform="translate(-27.23 -16.67)"/><path class="cls-85" d="M317.94,169.53c.74,1.11.43,2.37.47,3.57,0,.83,0,1.66,0,2.49-.38.77-1.21.83-1.87,1.15a31.76,31.76,0,0,1-5.94,2.38c-2.51-1.08-5.05-2.11-7.46-3.43-.63-1.76-.32-3.57-.21-5.36a.91.91,0,0,1,1-.88C308.54,169.45,313.24,169.31,317.94,169.53Z" transform="translate(-27.23 -16.67)"/><path class="cls-86" d="M265.49,180.35c-.33-.28-.22-.66-.22-1,0-5.63,0-11.26,0-16.89,0-.84.23-1.07,1.07-1.06,2.83.06,5.67.05,8.51,0,.78,0,1,.22,1,1,0,6,0,11.9,0,17.85a5,5,0,0,1-2.11.13C271,180.39,268.22,180.49,265.49,180.35Z" transform="translate(-27.23 -16.67)"/><path class="cls-87" d="M301.45,131.41c0,6,0,12,0,17.94,0,.79-.22,1-1,1q-4.31-.06-8.61,0c-.75,0-.95-.26-.95-1,0-5.75,0-11.49,0-17.23,0-1.4,1.16-.45,1.69-.8A76.68,76.68,0,0,1,301.45,131.41Z" transform="translate(-27.23 -16.67)"/><path class="cls-88" d="M301.34,121.57c-3.11,0-6.22,0-9.33,0-.89,0-1.15-.21-1.15-1.12q.08-8.37,0-16.75c0-1,.34-1.09,1.17-1.08,2.75,0,5.5,0,8.25,0,.93-.22,1.34,0,1.33,1.1-.06,5.61,0,11.22,0,16.82C301.57,120.85,301.79,121.29,301.34,121.57Z" transform="translate(-27.23 -16.67)"/><path class="cls-89" d="M265,103.09a4.89,4.89,0,0,1,2.34-.19c2.44,0,4.87,0,7.31,0,.71,0,1,.15,1,.92,0,5.7,0,11.41,0,17.12,0,.43.09.9-.61.9-3.23,0-6.46,0-9.7,0-.09,0-.19-.13-.28-.2a1.41,1.41,0,0,1-.11-.81V103.91A1.45,1.45,0,0,1,265,103.09Z" transform="translate(-27.23 -16.67)"/><path class="cls-36" d="M314.66,158.51c-1.29,2.91-3.79,3.77-6.45,2.22-.86-.5-1.08-1.42-1.44-2.25l.91-.16c1.06-.24,1.36-.86.77-1.79a8.4,8.4,0,0,1-.79-1.95c-.08-.18-.11-.38-.18-.57-.26-.79-1-1.65-.22-2.42a3.67,3.67,0,0,1,3.4-1.3,34.29,34.29,0,0,0,3.92.9c.89.09.48.89.31,1.44-.44,1.49-.71,3.06-2,4.15-.52.44-.36.86.16,1.1S314,158.56,314.66,158.51Z" transform="translate(-27.23 -16.67)"/><path class="cls-90" d="M275.75,149.86c-.14.53-.56.48-1,.48-2.87,0-5.75,0-8.63,0-.72,0-.95-.19-.95-.94q0-8.57,0-17.13c0-.68.19-.88.87-.87,3.16,0,6.31,0,9.47,0a2.17,2.17,0,0,1,.13,1.28c0,5.28,0,10.57,0,15.85A4.73,4.73,0,0,0,275.75,149.86Z" transform="translate(-27.23 -16.67)"/><path class="cls-91" d="M314.89,152.63c.07-.89-.11-1.35-1.23-1.23a4.92,4.92,0,0,1-2.27-.61c-1.48-.67-2.66.08-3.81.76-.47.27-.29.93-.21,1.44s.49,1,.29,1.59a10.94,10.94,0,0,1-1.7-3.74C304.75,144.07,319.54,145.71,314.89,152.63Z" transform="translate(-27.23 -16.67)"/><path class="cls-92" d="M301.52,162.82c-.2.78-.41,1.57-.61,2.36a.28.28,0,0,1-.33-.15.83.83,0,0,1-.08-.22c-.34-2-.6-2.14-2.6-1.91-.59.07-.86.33-.88.91v.11c.05,1.07-.39,2.32.19,3.16s1.93.26,2.92.38a.89.89,0,0,1,.45.15.62.62,0,0,1-.27.88,5.47,5.47,0,0,1-2.13.17c-.79,0-1.19.28-1.16,1.12s0,1.6,0,2.39.37,1.05,1.1,1.07a4.82,4.82,0,0,1,2.35.24.52.52,0,0,1,0,.77c-2.33-.77-3.3-.49-4.33,1.23a3.18,3.18,0,0,0-2.86-1.11c-.82.1-1.14.4-1.1,1.19,0,.31,0,.64,0,.95.12.79-.45,1.91.38,2.32a4,4,0,0,0,3-.05c.18-.06.34-.2.56-.14.29.78,1,1.15,1.83,1.71-2.25,0-4.27,0-6.28,0-.6,0-.74-.23-.74-.78q0-8.67,0-17.34c0-.53.14-.82.73-.82,3,0,6.06.17,9.08,0C301.91,161.36,301.37,162.3,301.52,162.82Z" transform="translate(-27.23 -16.67)"/><path class="cls-36" d="M300.21,168.32c.33-.14.06-2.4.56-3.18a8.22,8.22,0,0,0,1.35,1.35c.87.49,2,.73,1.77,2.15a12.5,12.5,0,0,0-.76,2.44c0,1.54,0,3.08,0,4.61l-2.62-1.44,0-.65A7.51,7.51,0,0,1,300.21,168.32Z" transform="translate(-27.23 -16.67)"/><path class="cls-93" d="M296.17,178.64c-.26.79-.9.71-1.54.71-2.77,0-2.77,0-2.77-2.71s0-2.43,2.56-2.6c1.3-.09,1.39.7,1.74,1.44A3.21,3.21,0,0,0,296.17,178.64Z" transform="translate(-27.23 -16.67)"/><path class="cls-94" d="M301.34,121.57c.21-3.9,0-7.8.08-11.7,0-2-.05-4.07,0-6.1,0-.94-.24-1.32-1.17-1.2,1-.42,1.45-.22,1.45,1,0,5.66,0,11.32,0,17C301.7,120.91,301.84,121.36,301.34,121.57Z" transform="translate(-27.23 -16.67)"/><path class="cls-95" d="M265,103.09v18.48c-.33-.27-.23-.65-.23-1q0-8.23,0-16.48C264.78,103.75,264.68,103.37,265,103.09Z" transform="translate(-27.23 -16.67)"/><path class="cls-96" d="M275.75,149.86a2.38,2.38,0,0,1-.15-1.39q0-8.52-.05-17c.27.13.26.38.26.62Z" transform="translate(-27.23 -16.67)"/><path class="cls-97" d="M265.49,180.35l10.32-.08c-.18.29-.46.27-.74.27h-9A1.91,1.91,0,0,1,265.49,180.35Z" transform="translate(-27.23 -16.67)"/><path class="cls-98" d="M301.45,131.41l-8.84,0a5.4,5.4,0,0,1,2.43-.19c1.78,0,3.56,0,5.33,0C300.73,131.18,301.18,131,301.45,131.41Z" transform="translate(-27.23 -16.67)"/><path class="cls-4" d="M209.71,173.3h-1.23c-.52-.25-.65-.76-.82-1.25a38.88,38.88,0,0,0-1.45-4,5.69,5.69,0,0,0,1.69-1.19c.45-.56,1.09-.5,1.72-.47Z" transform="translate(-27.23 -16.67)"/><path class="cls-99" d="M199.61,103.82c-1.2,0-2.4,0-3.59,0-.89,0-1.14-.29-1-1.11a5,5,0,0,1,4.13-3.65,4.42,4.42,0,0,1,4.47,2.93c.08.22.14.45.22.68.27.82.14,1.24-.89,1.14s-2.23,0-3.35,0Z" transform="translate(-27.23 -16.67)"/><path class="cls-100" d="M199.07,113.84c0,3,0,2.94-3,3-.83,0-1.12-.24-1.08-1.08.06-1.31.05-2.63,0-3.94,0-.71.2-1,.94-1C199.07,110.7,199.07,110.67,199.07,113.84Z" transform="translate(-27.23 -16.67)"/><path class="cls-101" d="M195,107.33c0-2.81,0-2.76,2.75-2.82,1,0,1.46.18,1.36,1.3a28.5,28.5,0,0,0,0,3.58c0,.66-.18,1-.88.92h-.12C195,110.41,195,110.41,195,107.33Z" transform="translate(-27.23 -16.67)"/><path class="cls-102" d="M203.85,113.85c0,2.94,0,2.9-2.88,2.94-1,0-1.24-.29-1.18-1.22.07-1.23,0-2.47,0-3.7,0-.68.24-1,.91-.88.12,0,.24,0,.36,0,.93.07,2.18-.42,2.7.19S203.85,112.94,203.85,113.85Z" transform="translate(-27.23 -16.67)"/><path class="cls-103" d="M199.07,120.16c0,2.89,0,2.86-2.87,2.88-.89,0-1.31-.17-1.24-1.17.09-1.27,0-2.56,0-3.83,0-.57.2-.83.77-.77.12,0,.24,0,.36,0C199.07,117.24,199.07,117.24,199.07,120.16Z" transform="translate(-27.23 -16.67)"/><path class="cls-102" d="M199.8,120.09c0-2.82,0-2.77,2.79-2.84,1.08,0,1.4.29,1.32,1.34a35.81,35.81,0,0,0,0,3.59c0,.6-.19.91-.82.84h-.24C199.8,123.09,199.8,123.09,199.8,120.09Z" transform="translate(-27.23 -16.67)"/><path class="cls-104" d="M199.8,107.4c0-2.91,0-2.88,2.95-2.89.89,0,1.21.24,1.16,1.15-.08,1.26,0,2.54,0,3.81,0,.62-.21.89-.83.83h-.36C199.8,110.33,199.8,110.33,199.8,107.4Z" transform="translate(-27.23 -16.67)"/><path class="cls-69" d="M179.79,103.83c-1.2,0-2.4,0-3.59,0-.67,0-.94-.15-.78-.89A4.72,4.72,0,0,1,180,99.07a4.6,4.6,0,0,1,4.34,3.47c.28.92.16,1.35-.92,1.29s-2.39,0-3.58,0Z" transform="translate(-27.23 -16.67)"/><path class="cls-105" d="M184.43,114c0,2.8,0,2.76-2.8,2.82-1,0-1.34-.23-1.31-1.25a30.47,30.47,0,0,0-.17-3.57c-.05-.71.17-1.07.93-1a2.17,2.17,0,0,0,.36,0C184.43,111,184.43,111,184.43,114Z" transform="translate(-27.23 -16.67)"/><path class="cls-105" d="M184.43,120.2c0,2.81,0,2.81-2.78,2.81-1.58,0-1.7-.05-1.47-1.59a19.61,19.61,0,0,0,.16-3.33c0-.62.22-.9.84-.83h.24C184.43,117.21,184.43,117.21,184.43,120.2Z" transform="translate(-27.23 -16.67)"/><path class="cls-105" d="M179.41,113.9c0,2.91,0,2.87-2.95,2.9-.86,0-1.2-.19-1.15-1.12.09-1.35.05-2.7,0-4.05,0-.73.32-.91,1-.8a7.69,7.69,0,0,0,1,.18c2.1.1,2.1.1,2.1,2.18C179.41,113.43,179.42,113.66,179.41,113.9Z" transform="translate(-27.23 -16.67)"/><path class="cls-106" d="M180.3,107.28c0-.89-.25-2.16.21-2.58s1.74-.07,2.65-.17c1.1-.13,1.37.32,1.3,1.34a28.53,28.53,0,0,0,0,3.46c0,.7-.16,1.08-.93,1h-.24C180.19,110.33,180.19,110.33,180.3,107.28Z" transform="translate(-27.23 -16.67)"/><path class="cls-106" d="M179.42,107.45c0,2.87,0,2.82-2.86,2.89-1,0-1.31-.29-1.25-1.28.09-1.22,0-2.46,0-3.69,0-.62.2-.9.83-.83h.24C179.4,104.48,179.4,104.48,179.42,107.45Z" transform="translate(-27.23 -16.67)"/><path class="cls-106" d="M175.33,120.13c0-2.92,0-2.89,2.94-2.89.85,0,1.23.17,1.17,1.11-.08,1.23-.05,2.46,0,3.69,0,.69-.17,1.07-.93,1h-.24C175.31,123.07,175.31,123.07,175.33,120.13Z" transform="translate(-27.23 -16.67)"/><path class="cls-66" d="M201.74,172.37a19.45,19.45,0,0,1-8-.86c-1.58-.84-3.39-1.12-4.92-2.07-2.35-1.45-4.56-3-5.66-5.71a1.51,1.51,0,0,1-.22-.67,4.91,4.91,0,0,0-1.38-4.07,10.9,10.9,0,0,1,9.26-5.68c4.75-.21,8.18,1.44,10.36,6.39-.36,1.07-.48,2.1.58,2.88a6.28,6.28,0,0,1-.73,2.24c-.65,1.67-1.07,3.26.85,4.43A4.71,4.71,0,0,1,201.74,172.37Z" transform="translate(-27.23 -16.67)"/><path class="cls-107" d="M202.43,177.88c-.37.32-.37.32-.83.28a106.94,106.94,0,0,0-10.74-.67c-1-.05.08-.55-.16-.77l.53-.21a9.66,9.66,0,0,1,3.17.2c2.54.29,5.09.52,7.61,1A1,1,0,0,1,202.43,177.88Z" transform="translate(-27.23 -16.67)"/><path class="cls-1" d="M202.43,177.88l-11.2-1.37c-.28-.57.18-.42.45-.46l10.68,1.35a1.56,1.56,0,0,1,.9.24C203,177.71,202.66,177.62,202.43,177.88Z" transform="translate(-27.23 -16.67)"/><path class="cls-13" d="M201.72,169.05c-1.31-.28-1.73-.86-1.52-2.15a12.85,12.85,0,0,1,1.61-4.31,9.33,9.33,0,0,0,3,1.12c1.33.39,1.35.39.7,1.64-.08.14-.2.25-.06.45l.63-.15c.27-.07.56-.16.71.18a.64.64,0,0,1-.16.76,2.76,2.76,0,0,1-.78.53c-.43.18-.7.56-.54.91s.62,0,.94,0c.58.06.6.57.74,1,.52,1.45,1,2.89,1.53,4.34-2.13,1.11-4.34.75-5.57-.92a2.32,2.32,0,0,1-.55-1.88A1.48,1.48,0,0,0,201.72,169.05Z" transform="translate(-27.23 -16.67)"/><path class="cls-108" d="M201.72,169.05c.7-.1,1.07.13.95.9a11,11,0,0,0,.24,2.43h-1.17C201.73,171.26,201.73,170.16,201.72,169.05Z" transform="translate(-27.23 -16.67)"/><path class="cls-11" d="M215,184.35c-.13.69.25,1.58-.76,1.92V183.1A2.45,2.45,0,0,1,215,184.35Z" transform="translate(-27.23 -16.67)"/><path class="cls-109" d="M233.85,166.29c0-1.67,0-3.35,0-5,0-.61.2-.82.82-.86,3.26-.19,3.26-.21,3.28,3.05,0,2.86,0,2.86-2.8,2.93-.28,0-.56,0-.79.18Z" transform="translate(-27.23 -16.67)"/><path class="cls-110" d="M228.12,161.57c.23,0,.67,0,.67-.06,0-1.55,1.13-1.07,1.92-1.08,2.39,0,2.42,0,2.38,2.44a5.11,5.11,0,0,1-.23,2.57c-.19-.19-.45-.35-.55-.58A5,5,0,0,0,228.12,161.57Z" transform="translate(-27.23 -16.67)"/><path class="cls-111" d="M235.7,167.17a6.55,6.55,0,0,1,.89-.27c.94-.15,1.51.08,1.36,1.23a23.17,23.17,0,0,0-.06,2.36A5,5,0,0,0,235.7,167.17Z" transform="translate(-27.23 -16.67)"/><path class="cls-112" d="M232.9,103.82c-1.16,0-2.31,0-3.47,0-.69,0-1-.22-.82-.9.45-1.69,1.71-3.63,4-3.68,2.67-.06,4.29,1,4.81,3.3.21.89.05,1.36-1,1.28s-2.31,0-3.47,0Z" transform="translate(-27.23 -16.67)"/><path class="cls-113" d="M228.56,113.72a11.62,11.62,0,0,0,0-1.67c-.17-1.16.42-1.38,1.38-1.24a5.81,5.81,0,0,0,.58.09c2.13.17,2.13.16,2.13,2.28,0,.92,0,1.84,0,2.75,0,.61-.2.81-.83.85C228.56,117,228.56,117,228.56,113.72Z" transform="translate(-27.23 -16.67)"/><path class="cls-114" d="M233.38,113.83c0-.63,0-1.28,0-1.91-.07-1,.46-1.17,1.27-1.06l.58.12c.7.11,1.61-.32,2.06.23s.12,1.53.19,2.32c0,.12,0,.24,0,.36,0,3.12-.25,3.32-3.46,2.89-.54-.07-.65-.34-.64-.79,0-.72,0-1.44,0-2.16Z" transform="translate(-27.23 -16.67)"/><path class="cls-115" d="M237.4,107.43c.08,2.92.08,2.89-2.89,2.89-.88,0-1.21-.23-1.15-1.14.07-1.27,0-2.54,0-3.82,0-.61.2-.9.83-.83.11,0,.24,0,.35,0,.95.07,2.24-.42,2.75.17S237.4,106.49,237.4,107.43Z" transform="translate(-27.23 -16.67)"/><path class="cls-116" d="M232.64,120.11c0,3,0,2.91-2.93,2.93-.86,0-1.23-.18-1.17-1.12.08-1.27,0-2.55,0-3.83,0-.62.23-.89.84-.82a1.45,1.45,0,0,0,.36,0C232.64,117.26,232.64,117.26,232.64,120.11Z" transform="translate(-27.23 -16.67)"/><path class="cls-102" d="M237.47,120.15c0,2.9,0,2.87-2.88,2.89-.89,0-1.3-.18-1.23-1.18.09-1.27,0-2.55,0-3.82,0-.56.19-.82.76-.76.16,0,.32,0,.48,0C237.47,117.28,237.47,117.28,237.47,120.15Z" transform="translate(-27.23 -16.67)"/><path class="cls-117" d="M232.64,107.5c0,2.81,0,2.76-2.78,2.83-1.06,0-1.4-.26-1.32-1.32.09-1.23,0-2.46,0-3.7,0-.54.17-.83.75-.78a1.92,1.92,0,0,0,.24,0C232.64,104.45,232.64,104.45,232.64,107.5Z" transform="translate(-27.23 -16.67)"/><path class="cls-118" d="M232.86,141.74c0,2.84,0,2.79-2.9,2.86-1.09,0-1.49-.26-1.4-1.38a28.69,28.69,0,0,0,0-3.47c0-.73.09-1.13,1-1a6.21,6.21,0,0,0,2.15,0c1.07-.2,1.22.3,1.16,1.17C232.83,140.54,232.86,141.14,232.86,141.74Z" transform="translate(-27.23 -16.67)"/><path class="cls-82" d="M228.58,147.84c0-2.76,0-2.76,2.72-2.76,1.56,0,1.56,0,1.56,1.59,0,1-.05,2.08,0,3.11.06.87-.29,1.16-1.1,1.06h-.12C228.58,150.88,228.58,150.88,228.58,147.84Z" transform="translate(-27.23 -16.67)"/><path class="cls-81" d="M232.86,135.24c0,2.86,0,2.86-2.83,2.88-1.53,0-1.59,0-1.43-1.53.12-1.11-.06-2.21,0-3.32,0-.74.28-1,1-.94a1.45,1.45,0,0,0,.36,0C232.87,132.33,232.87,132.33,232.86,135.24Z" transform="translate(-27.23 -16.67)"/><path class="cls-119" d="M237.68,141.7c0,2.92,0,2.89-3,2.9-.91,0-1.18-.28-1.13-1.17.07-1.31,0-2.62,0-3.94,0-.57.17-.93.86-.75a5.57,5.57,0,0,0,.83.07c.77.07,1.81-.49,2.25.09s.12,1.53.14,2.32Z" transform="translate(-27.23 -16.67)"/><path class="cls-120" d="M233.6,135.19c0-2.89,0-2.84,2.9-2.87,1,0,1.25.27,1.19,1.22a32.48,32.48,0,0,1-.06,3.7c-.33,1.83-1.86.54-2.8.84-.56.17-1.33.21-1.24-.86C233.65,136.55,233.6,135.87,233.6,135.19Z" transform="translate(-27.23 -16.67)"/><path class="cls-121" d="M237.68,147.93c0,2.95,0,2.92-2.93,2.92-.84,0-1.23-.18-1.17-1.12.08-1.22-.13-2.48,0-3.68.3-2,1.92-.61,2.88-.94.63-.21,1.28-.07,1.18.92A17.2,17.2,0,0,0,237.68,147.93Z" transform="translate(-27.23 -16.67)"/><path class="cls-122" d="M258.13,50.57c-.49,2.79-1.25,5.44-3.77,7.17A14.63,14.63,0,0,0,258.13,50.57Z" transform="translate(-27.23 -16.67)"/><path class="cls-122" d="M252.23,49.14a3.46,3.46,0,0,1-.64,2.75Z" transform="translate(-27.23 -16.67)"/><path class="cls-65" d="M113,193.25c0,1.83,0,3.66,0,5.5,0,1.3-.68,2.12-1.74,2.16s-1.84-.83-1.85-2.17q0-5.51,0-11c0-1.29.69-2.12,1.74-2.15s1.84.82,1.85,2.16C113,189.58,113,191.41,113,193.25Z" transform="translate(-27.23 -16.67)"/><path class="cls-123" d="M97,168.8l-1.72,4c-1.18-.09-2.35.14-3.55,0-3-.25-5.68-3.76-5-6.68a4,4,0,0,1,.69-1.36c1.16-1.71,1.09-3.31-.35-4.63-3.19-2.91-2.31-5.85,0-8.6,2.18-2.6,5.14-3.3,8.43-2.86a10.92,10.92,0,0,1,3.47.77.79.79,0,0,0,.88-.18c.3-.25.66-.43,1-.69a8.58,8.58,0,0,0,1-1,5.1,5.1,0,0,1,3.89-1.59,10.69,10.69,0,0,0,2.77-.12c.52-.06.81-.48,1.17-.79a1.49,1.49,0,0,1,.89-.4,7.93,7.93,0,0,1,3.81-1.8,4,4,0,0,1,4,3.16,2.12,2.12,0,0,1-.71,1.81c-.31.3-.6.62-.91.92a.69.69,0,0,1-.42-.38c-1-1.55-2.48-1.56-3.48,0-.11.17-.19.35-.29.52-.39.67-.8,1.08-1.32.1-.12-.21-.29-.4-.57-.32s-.33.33-.36.57a3.67,3.67,0,0,0,.1,1.19c.49,2.18-.53,3.81-2,5.27a34.12,34.12,0,0,0-10.74,12.33A1.46,1.46,0,0,1,97,168.8Z" transform="translate(-27.23 -16.67)"/><path class="cls-124" d="M260.28,57.92c.94-.07,1.87.12,2.82,0,2.38-.2,4.53-3,4-5.26a3.05,3.05,0,0,0-.56-1.07,2.53,2.53,0,0,1,.29-3.65c2.54-2.29,1.84-4.6,0-6.77s-4.09-2.6-6.71-2.26a16,16,0,0,1-5-.88A4.15,4.15,0,0,0,252,36.82a9,9,0,0,1-2.2-.09c-.42,0-1.36-.93-1.64-.94a6.27,6.27,0,0,0-3-1.41,3.15,3.15,0,0,0-3.2,2.48c-.2.69-.5,4,0,4.22.17,0,3.77-2,3.93-2,.66.1.87,2.76.95,1.8.28-.36.69-1.11.91-1s.62.2.49.49c-.78,1.76.08,3,1.57,4.15C253.49,47,259.82,56.86,260.28,57.92Z" transform="translate(-27.23 -16.67)"/><path class="cls-1" d="M97,168.8a31.92,31.92,0,0,1,11.22-13.22c.89-.44,3.87,0,4.46,0,1,.63,1,1.8,1.52,2.72a16.8,16.8,0,0,1,1.79,5,5.16,5.16,0,0,1-1.14,4.34,37,37,0,0,1-4.48,5c-1.24,1.17-11.22-.64-10.91-1.12.43-.71,2.65-2.48,3.13-3.15-.5.65-.9,1.37-1.37,2,0,0-.69,1.47-1.48,1.36-1-.14-1.9-.78-2.92-.91S96.79,169.41,97,168.8Z" transform="translate(-27.23 -16.67)"/><path class="cls-125" d="M84.71,113.06c0,2.84,0,5.67,0,8.51,0,.8-.24,1-1,1q-4.3-.06-8.63,0c-.72,0-1-.18-1-.93,0-5.67,0-11.35,0-17,0-.81.29-1,1-1,2.87,0,5.75,0,8.63,0,.77,0,.93.27.92,1C84.69,107.39,84.71,110.22,84.71,113.06Z" transform="translate(-27.23 -16.67)"/><path class="cls-126" d="M84.65,142c0,2.79,0,5.59,0,8.38,0,.77-.18,1-1,1-2.84,0-5.67,0-8.51,0-.72,0-1.06-.12-1-1q0-8.5,0-17c0-.74.26-1,1-1,2.91,0,5.83,0,8.74,0,.72,0,.86.28.86.92,0,2.88,0,5.75,0,8.63Z" transform="translate(-27.23 -16.67)"/><path class="cls-127" d="M110.47,117.73c0,1.4,0,2.8,0,4.19,0,.65-.17.9-.87.88-2.91,0-5.83,0-8.74,0-.77,0-1.05-.21-1-1q.11-8.44.12-16.88c0-.75.16-1,1-1,2.84.05,5.68.05,8.51,0,.89,0,1,.32,1,1.09C110.46,109.21,110.47,113.47,110.47,117.73Z" transform="translate(-27.23 -16.67)"/><path class="cls-128" d="M84.52,171.9c0,2.87,0,5.74,0,8.61,0,.71-.2,1-.94,1q-4.32-.06-8.62,0c-.73,0-1-.23-1-.95q0-8.61,0-17.23c0-.57.2-.76.77-.76,3,0,6.06,0,9.1,0,.62,0,.69.24.68.78C84.51,166.16,84.52,169,84.52,171.9Z" transform="translate(-27.23 -16.67)"/><path class="cls-129" d="M108.65,146.21a7,7,0,0,1-3.08.08c-.48.14-.87.18-1.19-.39s-2.73-.72-3.23-.35c-.29.22-.27.55-.29.87,0,.83,0,1.67,0,2.5a1,1,0,0,1-1.07.43c0-5.19,0-10.38,0-15.57,0-1.09.28-1.45,1.4-1.41,2.64.07,5.27.06,7.91,0,1,0,1.3.22,1.29,1.25,0,3.71,0,7.42,0,11.13l-.77.62c-1.1.25-2.22-.16-3.58.16a5.51,5.51,0,0,0,1.52.2C108,145.78,108.5,145.59,108.65,146.21Z" transform="translate(-27.23 -16.67)"/><path class="cls-13" d="M112.66,155.6c-.89.86-1.9.1-2.84.14a13.25,13.25,0,0,1-1.62-.16c1.11-1.45,2.31-2.86,1.8-4.91a9.39,9.39,0,0,1-.13-1.3c-.05-.53.07-1,.62-1.15s.84.29,1,.77c0,.15.09.3.17.6.77-1,1.1-2.35,2.48-2.61s1.93.22,2.49,1.86a11.88,11.88,0,0,1-.81,4.16c-.46,1-1,1.8-2.31,1.63C112.7,154.52,112.77,155.12,112.66,155.6Z" transform="translate(-27.23 -16.67)"/><path class="cls-130" d="M189.48,78a6.88,6.88,0,1,1,7-6.71A6.86,6.86,0,0,1,189.48,78Z" transform="translate(-27.23 -16.67)"/><path class="cls-79" d="M270.07,165.05c0,2.79,0,2.73-2.8,2.8-1.09,0-1.39-.32-1.3-1.35a22.64,22.64,0,0,0,0-3c0-.7.18-1.07.93-1a5.81,5.81,0,0,0,.59,0C270.07,162.52,270.07,162.52,270.07,165.05Z" transform="translate(-27.23 -16.67)"/><path class="cls-131" d="M270.07,176.76c0,2.59,0,2.59-2.54,2.58-1.54,0-1.54,0-1.54-1.55,0-.95,0-1.91,0-2.86,0-.59.16-.92.81-.85a5.8,5.8,0,0,0,.59,0C270.07,174.08,270.07,174.08,270.07,176.76Z" transform="translate(-27.23 -16.67)"/><path class="cls-132" d="M271,176.83c0-2.77,0-2.73,2.77-2.76,1,0,1.41.23,1.33,1.27s0,2.15,0,3.23c0,.57-.2.81-.77.77-.28,0-.56,0-.84,0-.82-.07-1.92.37-2.4-.2S271,177.62,271,176.83Z" transform="translate(-27.23 -16.67)"/><path class="cls-81" d="M270.07,170.92c0,2.68,0,2.63-2.71,2.7-1.08,0-1.5-.27-1.39-1.39a21.32,21.32,0,0,0,0-3c0-.75.28-1,1-.93a3.84,3.84,0,0,0,.48,0C270.07,168.31,270.07,168.31,270.07,170.92Z" transform="translate(-27.23 -16.67)"/><path class="cls-133" d="M275.07,171c0,2.6,0,2.54-2.65,2.62-1.16,0-1.56-.31-1.44-1.47a16.71,16.71,0,0,0,0-2.74c-.05-.79.17-1.23,1.05-1.09a2.16,2.16,0,0,0,.36,0C275.06,168.31,275.06,168.31,275.07,171Z" transform="translate(-27.23 -16.67)"/><path class="cls-81" d="M271,165.21c0-2.68,0-2.62,2.7-2.69,1.11,0,1.48.3,1.38,1.39a29.82,29.82,0,0,0,0,3c0,.67-.27,1-.93.92h-.48C271,167.83,271,167.83,271,165.21Z" transform="translate(-27.23 -16.67)"/><path class="cls-84" d="M291.64,135.09c0-2.73,0-2.68,2.75-2.74,1,0,1.46.2,1.36,1.31a31,31,0,0,0,0,3.34c0,.6-.19.9-.82.84h-.48C291.65,137.86,291.65,137.86,291.64,135.09Z" transform="translate(-27.23 -16.67)"/><path class="cls-134" d="M296.65,146.63c0-2.52,0-2.46,2.59-2.55,1.19-.05,1.66.26,1.51,1.5a17.06,17.06,0,0,0,0,2.86c0,.76-.27,1-1,.92-.11,0-.23,0-.35,0C296.66,149.36,296.66,149.36,296.65,146.63Z" transform="translate(-27.23 -16.67)"/><path class="cls-77" d="M291.64,140.91c0-2.59,0-2.59,2.56-2.58,1.53,0,1.53,0,1.53,1.57,0,.95,0,1.91,0,2.87,0,.6-.19.9-.83.84a5.8,5.8,0,0,0-.59,0C291.64,143.62,291.64,143.62,291.64,140.91Z" transform="translate(-27.23 -16.67)"/><path class="cls-109" d="M295.73,146.7c0,2.67,0,2.62-2.71,2.69-1.09,0-1.52-.25-1.4-1.38a11.57,11.57,0,0,0,0-2.63c-.12-1.1.34-1.44,1.35-1.28a.48.48,0,0,0,.12,0C295.74,144.1,295.74,144.1,295.73,146.7Z" transform="translate(-27.23 -16.67)"/><path class="cls-135" d="M296.65,140.9c0-2.58,0-2.58,2.56-2.57,1.53,0,1.53,0,1.52,1.58,0,1,0,2,0,3,0,.51-.19.74-.7.71-.24,0-.48,0-.72,0C296.63,143.61,296.63,143.61,296.65,140.9Z" transform="translate(-27.23 -16.67)"/><path class="cls-136" d="M300.73,135.18c0,2.46,0,2.46-2.53,2.47-1.55,0-1.55,0-1.55-1.54v-2.38c0-.24-.08-.53,0-.7.73-1.23,1.93-.5,2.91-.61.54,0,1.23.07,1.15,1C300.69,134,300.73,134.58,300.73,135.18Z" transform="translate(-27.23 -16.67)"/><path class="cls-137" d="M291.62,112c0-2.63,0-2.56,2.6-2.65,1.2,0,1.65.27,1.52,1.51a22.92,22.92,0,0,0,0,3.21c0,.56-.2.82-.76.77-.16,0-.32,0-.48,0C291.63,114.85,291.63,114.85,291.62,112Z" transform="translate(-27.23 -16.67)"/><path class="cls-138" d="M296.44,112.19v-.6c0-2.22,0-2.22,2.22-2.21,1.86,0,1.86,0,1.87,1.82a21.46,21.46,0,0,0,0,2.27c.11,1.09-.43,1.36-1.4,1.37C296.45,114.86,296.45,114.89,296.44,112.19Z" transform="translate(-27.23 -16.67)"/><path class="cls-135" d="M300.53,117.47a11.83,11.83,0,0,0,0,1.19c.15,1.92.15,1.92-1.83,1.92-2.53,0-2.25.25-2.26-2.2v-.23c0-3,.5-3.36,3.49-2.83a.6.6,0,0,1,.59.71c0,.48,0,1,0,1.44Z" transform="translate(-27.23 -16.67)"/><path class="cls-106" d="M295.71,106.21c0,2.68,0,2.63-2.71,2.7-1.09,0-1.51-.28-1.39-1.4a18.33,18.33,0,0,0,0-2.87c-.06-.87.3-1.16,1.11-1h.36C295.71,103.59,295.71,103.59,295.71,106.21Z" transform="translate(-27.23 -16.67)"/><path class="cls-139" d="M295.71,118c0,2.6,0,2.55-2.64,2.63-1.14,0-1.59-.26-1.46-1.44a14.86,14.86,0,0,0,0-2.75c-.07-.93.31-1.2,1.17-1.12a8.33,8.33,0,0,0,1.8,0c.88-.09,1.26.21,1.15,1.12A13.53,13.53,0,0,0,295.71,118Z" transform="translate(-27.23 -16.67)"/><path class="cls-140" d="M300.52,106.3c0,2.59,0,2.59-2.54,2.58-1.54,0-1.54,0-1.53-1.56v-.95c0-2.75.88-3.41,3.57-2.76.4.09.5.31.5.67Z" transform="translate(-27.23 -16.67)"/><path class="cls-141" d="M270,106.54c0,3.22.48,2.68-2.79,2.81-1.26.05-1.57-.56-1.47-1.56a24.73,24.73,0,0,0,.18-3.22c0-.48.17-.76.69-.73.24,0,.48,0,.72,0C270,103.84,270,103.84,270,106.54Z" transform="translate(-27.23 -16.67)"/><path class="cls-142" d="M270,112.4c0,2.71,0,2.62-2.67,2.74-1.3,0-1.6-.56-1.6-1.58s.09-2.29.12-3.44c0-.32.13-.41.43-.38a11.71,11.71,0,0,0,1.19.06C270,109.81,270,109.8,270,112.4Z" transform="translate(-27.23 -16.67)"/><path class="cls-143" d="M270,118.17c0,2.68,0,2.62-2.75,2.71-1.22,0-1.54-.49-1.53-1.52v-.72c0-4,.08-2.92,3.66-3.06.48,0,.62.25.62.68C270,116.89,270,117.53,270,118.17Z" transform="translate(-27.23 -16.67)"/><path class="cls-144" d="M274.85,106.56c0,2.57,0,2.57-2.56,2.57-1.52,0-1.52,0-1.52-1.57,0-1,0-1.92,0-2.87,0-.62.21-.9.83-.84.2,0,.4,0,.6,0C274.85,103.85,274.85,103.85,274.85,106.56Z" transform="translate(-27.23 -16.67)"/><path class="cls-145" d="M270.77,118.17c0-2.59,0-2.53,2.64-2.62,1.15,0,1.57.28,1.46,1.44a22.94,22.94,0,0,0,0,3c0,.59-.16.92-.8.85-.2,0-.4,0-.6,0C270.77,120.85,270.77,120.85,270.77,118.17Z" transform="translate(-27.23 -16.67)"/><path class="cls-146" d="M270.77,112.49c0-2.69,0-2.64,2.69-2.71,1.07,0,1.52.23,1.41,1.38a23.05,23.05,0,0,0,0,3.11c0,.63-.23.89-.84.83-.2,0-.4,0-.6,0C270.77,115.09,270.77,115.09,270.77,112.49Z" transform="translate(-27.23 -16.67)"/><path class="cls-96" d="M270.78,140.88c0-2.57,0-2.56,2.55-2.56,1.91,0,1.73-.2,1.74,1.73v.36c0,3.31,0,3.3-3.33,3.22-.71,0-1-.2-1-.95C270.82,142.08,270.78,141.48,270.78,140.88Z" transform="translate(-27.23 -16.67)"/><path class="cls-96" d="M270.78,146.67c0-2.56,0-2.57,2.54-2.57,1.92,0,1.73-.23,1.75,1.7v.48c0,3.32-.32,3.58-3.66,3.09-.44-.06-.64-.23-.63-.67C270.79,148,270.78,147.35,270.78,146.67Z" transform="translate(-27.23 -16.67)"/><path class="cls-96" d="M270.78,135c0-2.65,0-2.65,2.61-2.62,1.79,0,1.84.07,1.53,1.82a7.49,7.49,0,0,0,.14,2.36c.12.78-.12,1.2-1,1.12a5.53,5.53,0,0,0-1.9.09c-.94.26-1.46,0-1.37-1.1C270.82,136.1,270.78,135.54,270.78,135Z" transform="translate(-27.23 -16.67)"/><path class="cls-79" d="M266,135c0-2.59,0-2.53,2.65-2.61,1.16,0,1.57.28,1.45,1.45a22.94,22.94,0,0,0,0,3c0,.59-.17.92-.81.86-.2,0-.4,0-.6,0C266,137.67,266,137.67,266,135Z" transform="translate(-27.23 -16.67)"/><path class="cls-147" d="M270.05,146.83c0,2.53,0,2.46-2.59,2.56-1.21.05-1.67-.28-1.51-1.51a9.56,9.56,0,0,0,0-2.39c-.15-1.2.36-1.45,1.47-1.42C270.05,144.15,270.05,144.1,270.05,146.83Z" transform="translate(-27.23 -16.67)"/><path class="cls-135" d="M270.05,141.1c0,2.51,0,2.51-2.5,2.51-1.58,0-1.58,0-1.58-1.63,0-.28,0-.56,0-.84.09-.89-.44-2.14.24-2.61.87-.6,2.16-.16,3.27-.19.5,0,.57.33.57.73Z" transform="translate(-27.23 -16.67)"/><path class="cls-78" d="M295.92,171c0,2.56,0,2.5-2.56,2.59-1.18,0-1.67-.25-1.53-1.5a19.89,19.89,0,0,0,0-3c0-.62.23-.88.85-.82.15,0,.32,0,.47,0C295.92,168.31,295.92,168.31,295.92,171Z" transform="translate(-27.23 -16.67)"/><path class="cls-81" d="M295.93,165.25c0,2.58,0,2.58-2.54,2.57-1.53,0-1.53,0-1.53-1.56,0-.92,0-1.83,0-2.75,0-.7.18-1.07.94-1a2.16,2.16,0,0,0,.36,0C295.92,162.53,295.92,162.53,295.93,165.25Z" transform="translate(-27.23 -16.67)"/><path class="cls-148" d="M300.77,165.14c-.11.83-.21,1.65-.31,2.48a9.64,9.64,0,0,1-3.3.18c-.51,0-.49-.42-.49-.78,0-1.23,0-2.46,0-3.69,0-.54.17-.82.75-.78H298C300.67,162.53,300.67,162.53,300.77,165.14Z" transform="translate(-27.23 -16.67)"/><path class="cls-131" d="M300.21,168.32a32.15,32.15,0,0,0,.25,5.28c-1,0-1.91,0-2.86,0-.63,0-1-.12-.94-.84,0-1.19,0-2.39,0-3.58,0-.7.28-.89.93-.86C298.46,168.35,299.34,168.32,300.21,168.32Z" transform="translate(-27.23 -16.67)"/><path class="cls-149" d="M100.84,148.92c-.68-1.11-.2-2.31-.27-3.46,0-.36.34-.39.63-.39h2.88c.41,0,.77.18.69.62-.16.84.48.47.8.6C103.52,146.31,102.11,147.48,100.84,148.92Z" transform="translate(-27.23 -16.67)"/><path class="cls-149" d="M108.65,146.21c-.76-.36-1.57-.09-2.35-.17-.36,0-.76,0-.74-.52s.39-.45.7-.44a9.67,9.67,0,0,1,3.39.28C109.38,145.71,109.16,146.13,108.65,146.21Z" transform="translate(-27.23 -16.67)"/><path class="cls-150" d="M101.2,170.47c-.43-.51.23-.62.38-.88a9.31,9.31,0,0,1,1.5-1.89c-.62.93-.92,2.07-1.84,2.81Z" transform="translate(-27.23 -16.67)"/><path class="cls-79" d="M79,107.19c0,2.8,0,2.77-2.79,2.87-1,0-1.37-.29-1.3-1.29s0-2.14,0-3.21c0-.71.27-1,1-1,.16,0,.32,0,.48,0C78.94,104.57,78.94,104.57,79,107.19Z" transform="translate(-27.23 -16.67)"/><path class="cls-121" d="M84,119.05c0,2.51,0,2.51-2.49,2.51-1.59,0-1.59,0-1.59-1.62v-.84c0-2.94.51-3.33,3.52-2.81.48.09.57.33.56.73Z" transform="translate(-27.23 -16.67)"/><path class="cls-151" d="M84,113.19c0,2.63,0,2.57-2.63,2.64-1.12,0-1.6-.22-1.47-1.43a19.89,19.89,0,0,0,0-3c0-.68.25-1,.91-.89a3.85,3.85,0,0,0,.48,0C84,110.53,84,110.53,84,113.19Z" transform="translate(-27.23 -16.67)"/><path class="cls-146" d="M79,113.29c0,2.53,0,2.46-2.59,2.55-1.25,0-1.67-.4-1.5-1.57a5.75,5.75,0,0,0,0-.83c0-3.16,0-3.15,3.27-2.93.64,0,.84.28.81.87S79,112.65,79,113.29Z" transform="translate(-27.23 -16.67)"/><path class="cls-152" d="M79,119c0,2.59,0,2.53-2.64,2.62-1.19,0-1.55-.38-1.46-1.5a27.28,27.28,0,0,0,0-2.86c0-.64.25-1,.92-.94a3.85,3.85,0,0,0,.48,0C79,116.28,79,116.28,79,119Z" transform="translate(-27.23 -16.67)"/><path class="cls-153" d="M84,107.41c0,2.43,0,2.43-2.42,2.44-1.66,0-1.66,0-1.66-1.64a13.89,13.89,0,0,0,0-2.14c-.16-1.1.44-1.36,1.32-1.48C83.63,104.26,84,104.59,84,107.41Z" transform="translate(-27.23 -16.67)"/><path class="cls-154" d="M83.94,141.86c0,3.34.06,2.67-2.65,2.71-1.62,0-1.62,0-1.61-1.59,0-.92,0-1.83,0-2.75,0-.63.13-1,.85-.93a7.85,7.85,0,0,0,.84,0C84,139.3,84,139.3,83.94,141.86Z" transform="translate(-27.23 -16.67)"/><path class="cls-144" d="M78.94,147.79c0,2.55,0,2.55-2.57,2.55-1.52,0-1.52,0-1.52-1.58,0-.95,0-1.91,0-2.86,0-.63.23-.89.84-.83a3.84,3.84,0,0,0,.48,0C78.94,145.06,78.94,145.06,78.94,147.79Z" transform="translate(-27.23 -16.67)"/><path class="cls-109" d="M84,147.85c0,3.09-.07,2.41-2.53,2.48-.28,0-.56,0-.83,0-.67.06-.86-.1-.77-.86a10.8,10.8,0,0,0-.06-3.45c-.15-.72.14-1,.8-.95h.6C84,145.07,84,145.07,84,147.85Z" transform="translate(-27.23 -16.67)"/><path class="cls-138" d="M78.93,142.05c0,2.53,0,2.53-2.56,2.53-1.51,0-1.51,0-1.52-1.55,0-1,0-1.91,0-2.86,0-.69.27-.94.92-.87h.35C78.92,139.29,78.92,139.29,78.93,142.05Z" transform="translate(-27.23 -16.67)"/><path class="cls-155" d="M78.94,136.21c0,2.59,0,2.53-2.65,2.63-1.15,0-1.57-.28-1.46-1.45a17.07,17.07,0,0,0,0-2.86c0-.82.29-1.09,1-1a2,2,0,0,0,.35,0C78.94,133.52,78.94,133.52,78.94,136.21Z" transform="translate(-27.23 -16.67)"/><path class="cls-109" d="M81.7,138.8c-1.83,0-1.81,0-1.84-1.75a10,10,0,0,0-.14-2.73c-.17-.57.14-.8.7-.78.84,0,1.67,0,2.51,0s1,.47.93,1a14.14,14.14,0,0,0,0,3.56c.08.48-.18.65-.6.66S82.22,138.8,81.7,138.8Z" transform="translate(-27.23 -16.67)"/><path class="cls-79" d="M109.63,113.4c0,.16,0,.32,0,.48-.08.7.35,1.74-.23,2a4.64,4.64,0,0,1-2.8.35,1.08,1.08,0,0,1-1-1.2c0-1.16,0-2.31,0-3.47,0-.65.28-.85.86-.8.2,0,.4,0,.6,0C109.65,110.78,109.65,110.78,109.63,113.4Z" transform="translate(-27.23 -16.67)"/><path class="cls-79" d="M104.82,107.71c0,2.57,0,2.57-2.52,2.58-1.56,0-1.56,0-1.57-1.52,0-1,0-2.06,0-3.09,0-.57.14-.71.63-.66.24,0,.48,0,.72,0C104.82,105,104.82,105,104.82,107.71Z" transform="translate(-27.23 -16.67)"/><path class="cls-79" d="M104.75,119.2c0,.79.28,1.76-.07,2.34s-1.47.2-2.24.28c-1.69.17-1.84,0-1.72-1.72a23.07,23.07,0,0,0,0-2.63c0-.75.28-1,1-.9a4,4,0,0,0,2.1,0c.62-.19,1.09,0,1,.85,0,.59,0,1.19,0,1.79Z" transform="translate(-27.23 -16.67)"/><path class="cls-156" d="M109.63,119.16c0,2.66,0,2.61-2.7,2.68-1.08,0-1.51-.26-1.4-1.38a16.18,16.18,0,0,0,0-2.87c-.06-.86.3-1.15,1.11-1a3.65,3.65,0,0,0,.47,0C109.63,116.6,109.63,116.6,109.63,119.16Z" transform="translate(-27.23 -16.67)"/><path class="cls-81" d="M109.63,107.66c0,3.07.31,2.52-2.6,2.65-1.24.06-1.68-.33-1.48-1.52a4.33,4.33,0,0,0,0-.72c0-3.19,0-3.16,3.16-3.08.77,0,1,.3.93,1S109.63,107.1,109.63,107.66Z" transform="translate(-27.23 -16.67)"/><path class="cls-157" d="M100.73,113.28c0-2.51,0-2.51,2.48-2.5,1.62,0,1.55,0,1.64,1.59.06,1.12-.47,2.2-.12,3.31.08.25-.12.36-.34.37l-.84,0C100.73,116.05,100.73,116.05,100.73,113.28Z" transform="translate(-27.23 -16.67)"/><path class="cls-145" d="M78.92,172.18c-.09.68.33,1.64-.18,2.3s-1.5.1-2.27.19c-1.71.21-1.83.09-1.83-1.67,0-1,.08-2.06.07-3.08,0-.51.29-.62.68-.62.92,0,1.84,0,2.75,0,.56,0,.79.28.79.82S78.92,171.39,78.92,172.18Z" transform="translate(-27.23 -16.67)"/><path class="cls-154" d="M78.93,166.2c0,2.59,0,2.59-2.64,2.61-1.65,0-1.66,0-1.65-1.59,0-1,.16-1.91.09-2.86,0-.69.21-.86.79-.85.24,0,.48,0,.72,0C78.93,163.51,78.93,163.51,78.93,166.2Z" transform="translate(-27.23 -16.67)"/><path class="cls-158" d="M78.93,177.92c-.05,3,.42,2.56-2.6,2.59-1.69,0-1.71,0-1.69-1.71,0-1.07.11-2.14.13-3.21,0-.42.18-.44.51-.39a7.71,7.71,0,0,0,1,0C78.92,175.26,78.92,175.26,78.93,177.92Z" transform="translate(-27.23 -16.67)"/><path class="cls-81" d="M83.73,172.14c0,2.42,0,2.42-2.43,2.43-1.64,0-1.64,0-1.64-1.58,0-1,0-1.92,0-2.87,0-.63.22-.89.84-.83a1.45,1.45,0,0,0,.36,0C83.74,169.27,83.74,169.27,83.73,172.14Z" transform="translate(-27.23 -16.67)"/><path class="cls-159" d="M83.74,166.14c0,2.66,0,2.61-2.71,2.69-1.11,0-1.5-.29-1.39-1.4a17.19,17.19,0,0,0,0-2.87c-.06-.88.3-1.16,1.11-1.05a2.14,2.14,0,0,0,.36,0C83.74,163.52,83.74,163.52,83.74,166.14Z" transform="translate(-27.23 -16.67)"/><path class="cls-160" d="M79.66,177.83c0-2.58,0-2.58,2.54-2.59,1.54,0,1.54,0,1.54,1.55,0,1,0,1.92,0,2.87,0,.6-.17.91-.81.85-.2,0-.4,0-.6,0C79.65,180.52,79.65,180.52,79.66,177.83Z" transform="translate(-27.23 -16.67)"/><path class="cls-79" d="M102.7,139.29c1.93,0,1.93,0,1.92,1.93,0,.12,0,.24,0,.36,0,3.3,0,3.28-3.32,3-.57,0-.78-.24-.77-.79,0-1.11,0-2.23,0-3.35,0-.86.2-1.29,1.13-1.17A7.77,7.77,0,0,0,102.7,139.29Z" transform="translate(-27.23 -16.67)"/><path class="cls-131" d="M100.52,136c0-2.51,0-2.51,2.49-2.51h1.19c.47,0,.68.26.58.68a18.81,18.81,0,0,0-.17,3.67c0,.31.11.78-.26.83a11.67,11.67,0,0,1-3.44,0c-.37-.05-.38-.45-.38-.78C100.52,137.31,100.53,136.67,100.52,136Z" transform="translate(-27.23 -16.67)"/><path class="cls-154" d="M105.54,141.89c0-2.59,0-2.59,2.54-2.59,1.54,0,1.54,0,1.54,1.55,0,.92,0,1.84,0,2.76,0,.68-.15,1.09-.93,1a2.57,2.57,0,0,0-.48,0C105.54,144.59,105.54,144.59,105.54,141.89Z" transform="translate(-27.23 -16.67)"/><path class="cls-81" d="M109.62,136.25c0,2.55,0,2.49-2.57,2.58-1.19,0-1.69-.23-1.54-1.5a13.3,13.3,0,0,0,0-2.75c-.06-.87.3-1.16,1.1-1.05h.24C109.62,133.52,109.62,133.52,109.62,136.25Z" transform="translate(-27.23 -16.67)"/><path class="cls-4" d="M183.67,71.1a5.75,5.75,0,0,1,5.86-5.9A5.89,5.89,0,0,1,189.69,77,5.8,5.8,0,0,1,183.67,71.1Z" transform="translate(-27.23 -16.67)"/><path class="cls-2" d="M199.57,250.87" transform="translate(-27.23 -16.67)"/></svg>